<?xml version="1.0" standalone="no"?>
<!DOCTYPE svg PUBLIC "-//W3C//DTD SVG 1.1//EN" "http://www.w3.org/Graphics/SVG/1.1/DTD/svg11.dtd" >
<svg>
<metadata>
Created by FontForge 20090914 at Wed Jul 25 23:20:38 2012
 By www-data
Copyright (C) 2005 Emigre Inc.; Designed by Xavier Dupre
</metadata>
<defs>
<font id="VistaSansBold" horiz-adv-x="500" >
  <font-face 
    font-family="VistaSansBold"
    font-weight="700"
    font-stretch="normal"
    units-per-em="1000"
    panose-1="2 0 8 3 4 0 0 2 0 4"
    ascent="800"
    descent="-200"
    x-height="522"
    cap-height="674"
    bbox="-100 -216 1149 846"
    underline-thickness="20"
    underline-position="-123"
    unicode-range="U+0020-U+FB02"
  />
<missing-glyph 
 />
    <glyph glyph-name=".notdef" 
 />
    <glyph glyph-name=".null" horiz-adv-x="0" 
 />
    <glyph glyph-name="nonmarkingreturn" 
 />
    <glyph glyph-name="space" unicode=" " horiz-adv-x="204" 
 />
    <glyph glyph-name="parenleft" unicode="(" horiz-adv-x="305" 
d="M290 -164q-26 -6 -56.5 -8.5t-58.5 -2.5q-63 98 -94 215.5t-31 242.5q0 128 30 237.5t95 213.5q25 0 57 -3t58 -8q-22 -40 -41 -91.5t-32.5 -108t-21 -116.5t-7.5 -118t7 -120.5t20.5 -122.5t32.5 -114t42 -96z" />
    <glyph glyph-name="parenright" unicode=")" horiz-adv-x="305" 
d="M255 276q0 -128 -30 -237.5t-95 -213.5q-25 0 -57 3t-58 8q22 40 41 91.5t32.5 108t21 116.5t7.5 118t-7 120.5t-20.5 122.5t-32.5 114t-42 96q26 6 56.5 8.5t58.5 2.5q63 -98 94 -215.5t31 -242.5z" />
    <glyph glyph-name="asterisk" unicode="*" horiz-adv-x="458" 
d="M296 461l91 -93q-23 -23 -48 -43.5t-51 -39.5l-64 123l-61 -114q-28 14 -55.5 31.5t-53.5 36.5l96 99l-126 23q5 30 13 62t18 62l125 -62l-18 129q31 5 63.5 7t64.5 2l-22 -139l118 58q14 -29 26 -59.5t22 -59.5z" />
    <glyph glyph-name="plus" unicode="+" horiz-adv-x="492" 
d="M295 225v-180h-97v180h-158v96h158v179h97v-179h157v-96h-157z" />
    <glyph glyph-name="comma" unicode="," horiz-adv-x="270" 
d="M201 59q0 -59 -31.5 -116t-85.5 -116l-118 26q31 37 52 65t33 53t16.5 50.5t4.5 56.5v35h125q2 -10 3 -27t1 -27z" />
    <glyph glyph-name="hyphen" unicode="-" horiz-adv-x="250" 
d="M30 239v111h190v-111h-190z" />
    <glyph glyph-name="hyphen" unicode="&#xad;" horiz-adv-x="250" 
d="M30 239v111h190v-111h-190z" />
    <glyph glyph-name="period" unicode="." horiz-adv-x="270" 
d="M210 65q0 -39 -21.5 -57t-52.5 -18q-33 0 -54.5 18t-21.5 57q0 38 22 57t54 19q31 0 52.5 -19t21.5 -57z" />
    <glyph glyph-name="slash" unicode="/" horiz-adv-x="390" 
d="M67 -114q-24 5 -49.5 11.5t-48.5 16.5l306 770q11 0 25 -1t28 -3l27.5 -4t23.5 -5z" />
    <glyph glyph-name="zero" unicode="0" 
d="M464 273q0 -138 -57 -210.5t-157 -72.5q-47 0 -86 16t-67.5 50t-44.5 87.5t-16 129.5q0 72 16.5 125.5t45 88t68 51.5t84.5 17q49 0 88.5 -16t67.5 -50.5t43 -88t15 -127.5zM326 273q0 39 -2.5 69t-11 51t-23.5 31.5t-39 10.5q-46 0 -61 -41t-15 -121q0 -83 14.5 -123.5
t61.5 -40.5t61.5 42.5t14.5 121.5z" />
    <glyph glyph-name="one" unicode="1" 
d="M67 0v130h161v284l-145 -17q-5 24 -8.5 55.5t-3.5 59.5l162 33h124v-415h115q0 -29 -2.5 -65.5t-7.5 -64.5h-395z" />
    <glyph glyph-name="two" unicode="2" 
d="M450 130q0 -30 -1.5 -63.5t-6.5 -66.5h-369l-7 111q61 42 102.5 76.5t67 63.5t37 54t11.5 49q0 36 -17.5 54t-56.5 18q-13 0 -29 -2t-31.5 -5.5t-30 -8t-23.5 -9.5q-8 29 -14.5 62t-8.5 65q32 13 71 20t79 7q46 0 84 -11t65.5 -33.5t42.5 -56.5t15 -79q0 -71 -44 -129.5
t-122 -115.5h186v0z" />
    <glyph glyph-name="three" unicode="3" 
d="M454 66q0 -54 -21.5 -92.5t-56 -63.5t-78.5 -37t-89 -12q-38 0 -83 7t-77 21q5 38 10.5 69t13.5 60q26 -13 65 -20t73 -7q45 0 69.5 19.5t24.5 62.5q0 46 -27 64.5t-70 18.5h-92v129h78q29 0 47.5 4.5t29 14t14.5 23.5t4 33q0 35 -24 50t-64 15q-64 0 -118 -21
q-7 30 -10.5 63.5t-5.5 65.5q40 13 80 17.5t81 4.5t78.5 -9.5t65.5 -29.5t44.5 -52.5t16.5 -79.5q0 -57 -29 -94.5t-76 -57.5v-7q57 -17 91.5 -56t34.5 -103z" />
    <glyph glyph-name="four" unicode="4" 
d="M464 150q0 -31 -3 -62.5t-8 -61.5h-48v-155h-133v155h-233v125q21 50 46.5 104l52 106.5l53 102t51.5 91.5q14 -1 31 -3t33.5 -5t32 -7t27.5 -8l-196 -389h110v142h125v-135h59v0z" />
    <glyph glyph-name="five" unicode="5" 
d="M450 86q0 -50 -18.5 -91.5t-50.5 -71t-75.5 -46t-93.5 -16.5q-34 0 -73 6.5t-72 18.5q4 32 10 64t14 62q26 -11 60.5 -15.5t68.5 -4.5q44 0 67 22t23 64q0 45 -25 64.5t-83 19.5q-14 0 -31.5 -0.5t-35.5 -1.5t-34 -2t-26 -2q1 47 4 97.5t7 101t9 99t11 91.5h331
q0 -29 -2.5 -63.5t-7.5 -66.5h-211l-10 -128q45 0 89 -9.5t78.5 -32.5t55.5 -61.5t21 -97.5z" />
    <glyph glyph-name="six" unicode="6" 
d="M460 228q0 -58 -15 -102.5t-43 -74.5t-66.5 -45.5t-86.5 -15.5q-49 0 -88 15t-66 51t-41 96t-14 149q0 99 17.5 171.5t50.5 119.5t80.5 69.5t107.5 22.5q14 0 31 -1t34.5 -3t33.5 -4.5t27 -5.5q-2 -29 -6.5 -61.5t-12.5 -65.5q-19 5 -50 8t-57 3t-47.5 -7.5t-37.5 -26
t-25 -49.5t-11 -79h7q39 45 107 45q35 0 66 -11.5t54 -37t37 -65t14 -95.5zM329 224q0 60 -22 82t-57 22q-38 0 -56.5 -26t-18.5 -82q0 -60 18 -86.5t53 -26.5q42 0 62.5 28t20.5 89z" />
    <glyph glyph-name="seven" unicode="7" 
d="M455 422l-59 -135.5l-66 -142.5l-70.5 -143.5l-72.5 -137.5q-15 1 -32 3.5l-35 5t-35 6t-31 7.5l259 530h-253q-3 32 -4.5 65.5t-1.5 64.5h401v-123z" />
    <glyph glyph-name="eight" unicode="8" 
d="M463 189q0 -97 -58.5 -148t-162.5 -51q-43 0 -80.5 10t-65.5 32.5t-43.5 58.5t-15.5 88q0 104 106 162q-47 29 -71.5 67t-24.5 88q0 89 54.5 138.5t149.5 49.5q94 0 147.5 -44t53.5 -129q0 -47 -27 -85t-71 -64q52 -32 80.5 -71.5t28.5 -101.5zM318 500q0 71 -70 71
q-33 0 -51 -18t-18 -51q0 -35 17 -62t59 -42q32 14 47.5 42.5t15.5 59.5zM325 196q0 40 -22 66t-64 39q-32 -12 -49.5 -41.5t-17.5 -65.5q0 -43 17 -66t59 -23q43 0 60 24.5t17 66.5z" />
    <glyph glyph-name="nine" unicode="9" 
d="M40 317q0 58 15 102.5t43 74.5t66.5 45.5t86.5 15.5q50 0 88.5 -15t65.5 -51t41 -96t14 -149q0 -99 -17.5 -171.5t-50.5 -119.5t-80.5 -69.5t-107.5 -22.5q-13 0 -30.5 1t-35 3t-33.5 4.5t-27 5.5q2 29 6.5 61.5t12.5 65.5q19 -5 50 -8t57 -3t48 7.5t37.5 26t25 49.5
t10.5 79h-7q-39 -45 -107 -45q-34 0 -65.5 11.5t-54.5 37t-37 65t-14 95.5zM171 321q0 -60 22 -82t57 -22q38 0 56.5 26t18.5 82q0 60 -18 86.5t-53 26.5q-42 0 -62.5 -28t-20.5 -89z" />
    <glyph glyph-name="colon" unicode=":" horiz-adv-x="270" 
d="M210 65q0 -39 -21.5 -57t-52.5 -18q-33 0 -54.5 18t-21.5 57q0 38 22 57t54 19q31 0 52.5 -19t21.5 -57zM210 412q0 -38 -21.5 -56.5t-52.5 -18.5q-33 0 -54.5 18.5t-21.5 56.5q0 39 22 57.5t54 18.5q31 0 52.5 -18.5t21.5 -57.5z" />
    <glyph glyph-name="semicolon" unicode=";" horiz-adv-x="270" 
d="M204 412q0 -38 -21.5 -56.5t-52.5 -18.5q-33 0 -54.5 18.5t-21.5 56.5q0 40 22 58t54 18q31 0 52.5 -18.5t21.5 -57.5zM201 59q0 -59 -31.5 -116t-85.5 -116l-118 26q31 37 52 65t33 53t16.5 50.5t4.5 56.5v35h125q2 -10 3 -27t1 -27z" />
    <glyph glyph-name="less" unicode="&#x3c;" horiz-adv-x="434" 
d="M251 45l-205 229l205 226h128v-12l-202 -210l202 -222v-11h-128z" />
    <glyph glyph-name="equal" unicode="=" horiz-adv-x="493" 
d="M58 317v94h377v-94h-377zM58 128v94h377v-94h-377z" />
    <glyph glyph-name="greater" unicode="&#x3e;" horiz-adv-x="434" 
d="M183 45h-128v12l202 210l-202 222v11h128l206 -230z" />
    <glyph glyph-name="question" unicode="?" horiz-adv-x="404" 
d="M375 494q0 -68 -45 -118t-130 -83v-88q-29 -5 -59.5 -8t-57.5 -5q-8 42 -12.5 85t-4.5 83q83 20 128.5 52.5t45.5 72.5q0 22 -5 36.5t-16.5 23t-30.5 12t-48 3.5q-9 0 -22 -0.5t-26.5 -1.5t-26.5 -2.5l-22 -2.5q-5 29 -7.5 60t-2.5 62q24 5 57 7t65 2q46 0 86 -11.5
t70 -35.5t47 -59.5t17 -83.5zM218 65q0 -39 -21.5 -57t-53.5 -18t-54 18t-22 57q0 38 22.5 57t53.5 19q32 0 53.5 -19t21.5 -57z" />
    <glyph glyph-name="at" unicode="@" horiz-adv-x="830" 
d="M780 355q0 -60 -11 -108t-32 -82.5t-52.5 -53t-72.5 -18.5q-51 0 -82 14t-45 40h-3q-23 -28 -50.5 -41.5t-65.5 -13.5q-58 0 -95.5 31.5t-37.5 95.5q0 35 12 59t34 39t51.5 22.5t65.5 8.5l71 3v63q-14 6 -34.5 10t-43.5 4q-26 0 -53 -5t-44 -13q-5 21 -9.5 49t-4.5 55
q57 15 122 15q49 0 95.5 -11.5t81.5 -37.5v-256q0 -47 47 -47q33 0 50 42t17 134q0 126 -72 187.5t-195 61.5q-138 0 -209 -80t-71 -223q0 -67 13.5 -120t43.5 -89.5t79 -55.5t119 -19q16 0 35.5 2t39 5t37.5 7t30 9q6 -20 10 -44.5t4 -41.5q-31 -11 -75.5 -16.5t-85.5 -5.5
q-174 0 -259 94t-85 274q0 95 29.5 167t81 121t121 73.5t148.5 24.5q78 0 142.5 -22.5t110.5 -65t71.5 -103.5t25.5 -138zM467 273l-70 -3q-29 -2 -39 -12t-10 -35q0 -26 12.5 -35t35.5 -9q18 0 37.5 7t33.5 18v69z" />
    <glyph glyph-name="A" unicode="A" horiz-adv-x="596" 
d="M581 7q-35 -8 -71.5 -10t-74.5 -2l-46 166h-193l-46 -166q-33 0 -68 2.5t-67 9.5q45 164 95 329t108 338h164l104 -337.5zM305 466q-3 13 -5 26.5t-3 30.5h-10q-1 -33 -7 -57l-50 -182h125z" />
    <glyph glyph-name="B" unicode="B" horiz-adv-x="597" 
d="M547 190q0 -54 -18 -91.5t-49 -61.5t-73 -35t-90 -11t-109.5 3.5t-121.5 10.5v662q44 6 102 10t113 4q50 0 90.5 -10t69.5 -31t45 -54t16 -80q0 -56 -25.5 -96t-70.5 -57v-9q121 -31 121 -154zM379 488q0 43 -21 61.5t-61 18.5q-14 0 -29.5 -0.5t-37.5 -2.5v-170h74
q36 0 55.5 22t19.5 71zM394 202q0 48 -25 67t-61 19h-78v-179q21 -2 40.5 -2.5t34.5 -0.5q47 0 68 24.5t21 71.5z" />
    <glyph glyph-name="C" unicode="C" horiz-adv-x="579" 
d="M539 35q-38 -23 -90.5 -34t-97.5 -11q-148 0 -224.5 88t-76.5 260q0 90 22.5 155.5t62 108t92.5 62.5t114 20q24 0 50 -2.5t51 -6.5t47 -10t36 -13q-2 -29 -7.5 -64.5t-12.5 -67.5q-35 17 -76 25.5t-80 8.5q-29 0 -54.5 -9.5t-44.5 -34t-30 -66t-11 -105.5q0 -61 9 -103
t27 -67.5t45.5 -37t64.5 -11.5q21 0 44 3.5t44.5 10t40.5 15t34 18.5q8 -30 13.5 -63.5t7.5 -68.5z" />
    <glyph glyph-name="D" unicode="D" horiz-adv-x="675" 
d="M625 351q0 -86 -22.5 -153t-63 -113t-96.5 -70t-124 -24q-28 0 -59.5 1t-63 2.5t-60.5 4.5t-50 6v662q21 3 51.5 5.5t63 4.5t64 3t53.5 1q62 0 117.5 -18.5t97.5 -58.5t67 -102.5t25 -150.5zM466 337q0 59 -11.5 100t-31.5 66t-48 36t-60 11q-17 0 -40.5 -0.5t-40.5 -2.5
v-422q15 -2 39 -2.5t41 -0.5q77 0 114.5 49.5t37.5 165.5z" />
    <glyph glyph-name="E" unicode="E" horiz-adv-x="542" 
d="M497 130q0 -30 -3 -63.5t-8 -66.5h-400v674h394q0 -29 -2.5 -65t-7.5 -65h-236v-136h172v-128h-172v-150h263v0z" />
    <glyph glyph-name="F" unicode="F" horiz-adv-x="527" 
d="M481 674q0 -29 -2.5 -62.5t-7.5 -67.5h-237v-157h197v-129h-197v-258h-148v674h395v0z" />
    <glyph glyph-name="G" unicode="G" horiz-adv-x="639" 
d="M567 36q-18 -9 -43 -17.5t-54.5 -14.5t-62 -10t-64.5 -4q-144 0 -218.5 90t-74.5 258q0 91 23 156.5t63.5 107.5t96 62t120.5 20q26 0 53.5 -2t54.5 -6.5t51 -10.5t43 -14q-2 -29 -7.5 -65t-13.5 -68q-32 17 -79.5 26.5t-91.5 9.5q-35 0 -63.5 -9t-48.5 -34t-31 -67.5
t-11 -110.5q0 -112 35 -162.5t100 -50.5q20 0 43 2t35 6v112h-84q-5 29 -8 62t-3 65h240v-331v0z" />
    <glyph glyph-name="H" unicode="H" horiz-adv-x="696" 
d="M462 0v282h-228v-282h-148v674h148v-259h228v259h148v-674h-148z" />
    <glyph glyph-name="I" unicode="I" horiz-adv-x="320" 
d="M86 0v674h148v-674h-148z" />
    <glyph glyph-name="J" unicode="J" horiz-adv-x="333" 
d="M243 97q0 -49 -10.5 -93.5t-35.5 -79.5t-67 -58t-105 -29q-11 29 -17 64.5t-8 68.5q26 3 44.5 9.5t29.5 17.5t16 29t5 45v603h148v-577v0z" />
    <glyph glyph-name="K" unicode="K" horiz-adv-x="637" 
d="M622 7q-38 -8 -80 -11t-76 -3l-181 279l-53 -65v-207h-146v674h146v-275h7l213 281q15 0 35.5 -1t42.5 -2.5t42 -4t35 -5.5l-232 -287q66 -89 127.5 -182.5z" />
    <glyph glyph-name="L" unicode="L" horiz-adv-x="506" 
d="M476 132q0 -34 -3 -67t-7 -65h-380v674h148v-542h242v0z" />
    <glyph glyph-name="M" unicode="M" horiz-adv-x="879" 
d="M811 6q-33 -6 -72 -8t-70 -2l-25 395q0 5 -0.5 15.5t-0.5 22.5v22v16h-10q-2 -22 -6.5 -44t-7.5 -32l-112 -391h-140l-118 391q-3 11 -6.5 33.5t-5.5 42.5h-10v-16q0 -10 -0.5 -22t-1 -22.5t-0.5 -15.5l-33 -395q-29 0 -64 2.5t-60 7.5q11 169 26 333t35 335h167
l129 -423q5 -17 8.5 -39t4.5 -42h10q2 21 4.5 42t7.5 40l122 422h170q19 -170 33.5 -335t25.5 -333z" />
    <glyph glyph-name="N" unicode="N" horiz-adv-x="698" 
d="M612 5q-14 -2 -32.5 -4t-38 -3.5t-38 -2t-32.5 -0.5l-216 393q-7 13 -16.5 36t-14.5 42l-10 -1q2 -23 3.5 -43.5t1.5 -37.5v-384h-133v667q17 2 37.5 4t41 3.5t40.5 2t35 0.5l202 -368q8 -14 17 -36t15 -42l10 1q-2 17 -3.5 42t-1.5 42v358h133v-669z" />
    <glyph glyph-name="O" unicode="O" horiz-adv-x="679" 
d="M629 337q0 -92 -21.5 -157.5t-59.5 -107.5t-91.5 -62t-116.5 -20q-65 0 -118.5 19t-91.5 60t-59 106t-21 158q0 88 21 154t59.5 109.5t92 65.5t117.5 22q65 0 118 -19.5t91 -61.5t59 -108t21 -158zM471 337q0 65 -8.5 107.5t-25.5 67.5t-41.5 35.5t-56.5 10.5
q-33 0 -57 -10.5t-40.5 -35.5t-24.5 -67.5t-8 -107.5q0 -62 7.5 -104.5t23.5 -68.5t41 -37t59 -11q35 0 59.5 11t40.5 36.5t23.5 68t7.5 105.5z" />
    <glyph glyph-name="P" unicode="P" horiz-adv-x="585" 
d="M535 455q0 -66 -19.5 -112t-52.5 -75.5t-75 -43t-87 -13.5h-69v-211h-146v667q51 6 106 10t115 4q51 0 93 -14.5t72 -43t46.5 -70.5t16.5 -98zM389 456q0 50 -24.5 79t-66.5 29q-17 0 -32.5 -0.5t-33.5 -2.5v-229h56q101 0 101 124z" />
    <glyph glyph-name="Q" unicode="Q" horiz-adv-x="679" 
d="M629 337q0 -78 -15.5 -136.5t-43.5 -99.5t-68 -65.5t-90 -33.5q0 -42 22 -63t57 -21q22 0 51 5t45 12q6 -27 10 -60.5t6 -65.5q-15 -5 -32 -8.5t-34.5 -6t-34 -3.5t-28.5 -1q-40 0 -75.5 13t-62.5 39t-43 64.5t-16 90.5q-109 18 -168 99t-59 237q0 88 21 153.5t59 109.5
t91.5 66t118.5 22t118.5 -20t91.5 -62t58.5 -107.5t20.5 -157.5zM471 336q0 65 -8.5 107.5t-25.5 68t-41.5 36t-56.5 10.5q-33 0 -57.5 -10.5t-40.5 -36t-24 -68t-8 -107.5q0 -61 7.5 -103t23.5 -68t41 -37.5t59 -11.5q35 0 59.5 11t40.5 36.5t23.5 67.5t7.5 105z" />
    <glyph glyph-name="R" unicode="R" horiz-adv-x="606" 
d="M585 8q-37 -8 -77.5 -11.5t-77.5 -3.5l-46 102q-26 55 -50 97t-43 64h-61v-256h-144v667q66 8 119 11t104 3q47 0 88 -11.5t72 -35.5t49 -62t18 -92q0 -34 -10 -62.5t-26.5 -51.5t-39 -39.5t-46.5 -25.5q56 -53 99 -142l72 -151v0zM387 469q0 93 -88 93q-37 0 -69 -3
v-192h57q43 0 71.5 23.5t28.5 78.5z" />
    <glyph glyph-name="S" unicode="S" horiz-adv-x="539" 
d="M486 199q0 -53 -18.5 -92t-51.5 -65t-79 -39t-100 -13q-43 0 -92.5 6.5t-91.5 24.5q5 35 13 67.5t16 59.5q37 -16 84.5 -25t88.5 -9q42 0 60.5 18.5t18.5 52.5q0 28 -20.5 46.5t-51.5 34.5t-67 32.5t-67 40t-51.5 58t-20.5 85.5q0 50 19.5 87.5t54.5 63t82.5 38.5
t102.5 13q32 0 69 -3.5t74 -13.5q-2 -29 -6 -62t-11 -64q-17 4 -37.5 7.5t-41 6t-40.5 4t-36 1.5q-40 0 -58.5 -18t-18.5 -51q0 -26 20.5 -44t51.5 -34l66.5 -33t66.5 -41t51.5 -57.5t20.5 -82.5z" />
    <glyph glyph-name="T" unicode="T" horiz-adv-x="501" 
d="M477 674q0 -32 -3 -66.5t-8 -63.5h-144v-544h-148v544h-150v130h453v0z" />
    <glyph glyph-name="U" unicode="U" horiz-adv-x="687" 
d="M604 279q0 -139 -62 -214t-199 -75q-60 0 -108.5 14.5t-82 48.5t-51.5 89t-18 137v395h148v-416q0 -39 5.5 -64.5t19 -40.5t35 -21t54.5 -6q63 0 91 28.5t28 103.5v416h140v-395v0z" />
    <glyph glyph-name="V" unicode="V" horiz-adv-x="592" 
d="M573 667q-44 -172 -93 -335.5t-105 -331.5h-164q-54 166 -102 331t-90 336q17 3 37.5 5.5t40.5 4t38 2.5t31 1l118 -454q4 -13 6 -27l4 -29h10q2 31 9 56l120 454q14 0 32.5 -1t38 -2.5t38 -4t31.5 -5.5z" />
    <glyph glyph-name="W" unicode="W" horiz-adv-x="941" 
d="M881 667q-26 -169 -58 -333.5t-70 -333.5h-157l-116 404q-3 10 -6.5 29t-4.5 39h-10q-1 -21 -4 -39.5t-6 -29.5l-108 -403h-157q-38 167 -69.5 333t-54.5 334q36 7 74.5 10t67.5 3l66 -407q3 -20 5 -39t2 -33h10l5 33.5t8 36.5l109 403h136l105 -404q5 -17 8 -35.5
t5 -33.5h10q2 32 8 69l71 410q29 0 65.5 -3.5t65.5 -9.5z" />
    <glyph glyph-name="X" unicode="X" horiz-adv-x="609" 
d="M599 7q-40 -7 -85.5 -10.5t-85.5 -3.5l-108 210q-6 12 -11 25l-10 27h-9q-8 -26 -20 -51l-103 -211q-15 0 -36 1t-42.5 3t-42.5 4.5t-36 5.5l187 340l-175 320q20 3 42.5 5.5t45 4t44 2.5t38.5 1l99 -195q7 -14 11 -24.5l8 -21.5h9q8 27 19 49l93 192q14 0 34.5 -1
t42.5 -2.5t43 -4t37 -5.5l-176 -317l187 -343v0z" />
    <glyph glyph-name="Y" unicode="Y" horiz-adv-x="552" 
d="M542 667q-42 -112 -89.5 -216t-101.5 -210v-241h-148v241q-57 107 -103 212l-90 214q17 3 38 5.5t42 4t41 2.5t33 1l98 -236q12 -27 18 -58h10l8.5 29.5t10.5 30.5l93 234q30 0 68.5 -3.5t71.5 -9.5z" />
    <glyph glyph-name="Z" unicode="Z" horiz-adv-x="574" 
d="M521 130q0 -32 -2.5 -66.5t-7.5 -63.5h-452l-8 110l289 434h-265q-4 35 -6 66.5t-2 63.5h441l8 -110l-289 -434h294v0z" />
    <glyph glyph-name="bracketleft" unicode="[" horiz-adv-x="338" 
d="M80 -175v910h228q0 -57 -9 -114h-92v-682h92q9 -57 9 -114h-228z" />
    <glyph glyph-name="backslash" unicode="\" horiz-adv-x="390" 
d="M422 -86q-23 -10 -49 -16.5t-49 -11.5l-313 785q21 5 51.5 9t53.5 4l306 -770v0z" />
    <glyph glyph-name="bracketright" unicode="]" horiz-adv-x="338" 
d="M30 -175q0 57 9 114h92v682h-92q-9 57 -9 114h228v-910h-228z" />
    <glyph glyph-name="asciicircum" unicode="^" horiz-adv-x="494" 
d="M449 365q-29 -4 -59.5 -6t-62.5 -2l-82 240l-79 -240q-29 0 -59.5 2t-61.5 5q10 35 24 76.5l29 83.5t31 81l29 69h176q14 -30 29.5 -69l31 -81l29.5 -83z" />
    <glyph glyph-name="underscore" unicode="_" 
d="M0 -139v97h516q0 -25 -3.5 -50.5t-8.5 -46.5h-504z" />
    <glyph glyph-name="grave" unicode="`" 
d="M342 580q-24 -4 -53 -6t-57 -2q-29 33 -53 75t-37 84h148l52 -151v0z" />
    <glyph glyph-name="a" unicode="a" horiz-adv-x="542" 
d="M542 80q0 -26 -8 -43t-21.5 -27.5t-32 -15t-38.5 -4.5q-34 0 -58.5 11t-38.5 43h-6q-61 -54 -137 -54q-34 0 -63 9t-50 27.5t-32.5 47t-11.5 67.5q0 43 13 72.5t38 48t61.5 27.5t83.5 11l82 3v89q-19 11 -44.5 15.5t-52.5 4.5q-32 0 -63.5 -6t-54.5 -16q-6 25 -11.5 57
t-7.5 64q35 10 72 15.5t76 5.5q29 0 59 -3.5t58 -11t53.5 -19t44.5 -27.5v-311q0 -20 6.5 -27.5t24.5 -7.5h59v-45v0zM323 214l-82 -3q-33 -2 -47 -14t-14 -47q0 -30 13 -43t42 -13q22 0 46.5 5.5t41.5 18.5v96z" />
    <glyph glyph-name="b" unicode="b" horiz-adv-x="581" 
d="M534 282q0 -67 -16 -121.5t-46.5 -92t-74.5 -58t-100 -20.5q-63 0 -119 15.5t-98 48.5v681q29 4 66 6.5t69 2.5v-267h7q29 32 58 43.5t64 11.5q40 0 74.5 -13.5t60 -43.5t40.5 -77.5t15 -115.5zM390 270q0 42 -5.5 69.5t-17 44t-28 23.5t-38.5 7q-25 0 -47.5 -8
t-38.5 -23v-258q14 -10 34 -14.5t40 -4.5q57 0 79 38t22 126z" />
    <glyph glyph-name="c" unicode="c" horiz-adv-x="466" 
d="M429 17q-11 -6 -27.5 -11t-35 -8.5t-37 -5.5t-33.5 -2q-118 0 -183.5 64.5t-65.5 197.5q0 74 19 127t51.5 87t75 50t88.5 16q38 0 76 -4.5t66 -14.5q-5 -29 -12.5 -63t-16.5 -66q-23 10 -50.5 14.5t-52.5 4.5q-51 0 -75 -30.5t-24 -108.5q0 -44 6 -72t19.5 -44.5
t34 -22.5t50.5 -6q26 0 53.5 6.5t47.5 17.5q8 -30 15 -62t11 -64z" />
    <glyph glyph-name="d" unicode="d" horiz-adv-x="581" 
d="M366 0v44h-7q-29 -31 -61 -42.5t-66 -11.5q-90 0 -137.5 64t-47.5 192q0 76 17 130t47.5 88.5t72.5 51t92 16.5q21 0 46 -4t44 -9v216q29 4 66 6.5t69 2.5v-744h-135zM366 397q-13 8 -34.5 14t-41.5 6q-27 0 -45.5 -8t-30.5 -27t-17.5 -49.5t-5.5 -74.5t5 -73t15.5 -46
t27 -24t40.5 -7q28 0 50.5 5.5t36.5 13.5v270z" />
    <glyph glyph-name="e" unicode="e" horiz-adv-x="534" 
d="M484 300q0 -17 -1 -38.5t-3 -39.5h-285v-10q0 -25 5 -43t17.5 -29.5t34.5 -17t55 -5.5q17 0 37 2.5t39 7t36 10t29 12.5q9 -26 16.5 -60.5t12.5 -66.5q-17 -8 -39.5 -14t-46 -10t-46 -6t-40.5 -2q-125 0 -191.5 66.5t-66.5 197.5q0 69 17 121t47.5 87t73 52.5t92.5 17.5
q55 0 94 -16.5t64 -47t37 -73.5t12 -95zM347 310q1 5 1 14v14q0 47 -17.5 70t-55.5 23t-58.5 -29t-20.5 -92h151v0z" />
    <glyph glyph-name="f" unicode="f" horiz-adv-x="364" 
d="M346 739q0 -29 -1.5 -59t-5.5 -60q-8 2 -26.5 3t-28.5 1q-29 0 -39.5 -13.5t-10.5 -41.5v-47h111q0 -29 -2 -59t-6 -59h-103v-404h-135v404h-59v118h59v36q0 44 14 78.5t38 58.5t57 36.5t70 12.5q8 0 18 -0.5l20 -1t18 -1.5t12 -2z" />
    <glyph glyph-name="g" unicode="g" horiz-adv-x="533" 
d="M506 -25q0 -42 -14.5 -77t-44.5 -60.5t-75.5 -39.5t-107.5 -14q-60 0 -101 12t-66 32.5t-36 48t-11 58.5q0 32 12 52t34 41q-9 16 -17.5 33.5t-14.5 35.5q2 11 7 28t12.5 36.5t17 38.5t20.5 33q-26 20 -42 50.5t-16 72.5q0 79 50 127.5t142 48.5q20 0 45 -2.5t45 -7.5
h158q0 -23 -1.5 -48.5t-6.5 -48.5l-52 -8l-1 -5q6 -11 9.5 -26.5t3.5 -30.5q0 -43 -13.5 -74t-38.5 -51.5t-58.5 -30t-74.5 -9.5q-18 0 -35 2.5t-31 5.5q-11 -17 -14.5 -30t-3.5 -20q0 -30 32 -30h133q35 0 64 -6t49 -22t31 -44t11 -71zM379 -38q0 23 -8 29t-30 6h-164
q-4 -7 -6 -17.5t-2 -18.5q0 -36 21 -51t83 -15q50 0 78 14.5t28 52.5zM334 362q0 44 -19.5 60.5t-52.5 16.5q-37 0 -54.5 -18t-17.5 -59q0 -42 18.5 -59.5t53.5 -17.5q34 0 53 17t19 60z" />
    <glyph glyph-name="h" unicode="h" horiz-adv-x="588" 
d="M377 0v354q0 13 -2 24t-9.5 19t-21.5 12.5t-38 4.5q-27 0 -49 -7.5t-42 -19.5v-387h-135v735q29 4 66 6.5t69 2.5v-271h7q35 33 67 46t70 13q69 0 111 -40t42 -122v-370h-135z" />
    <glyph glyph-name="i" unicode="i" horiz-adv-x="295" 
d="M223 657q0 -31 -19 -54t-57 -23t-56.5 23.5t-18.5 53.5t18.5 54.5t57.5 24.5q38 0 56.5 -24t18.5 -55zM80 0v522h135v-522h-135z" />
    <glyph glyph-name="j" unicode="j" horiz-adv-x="301" 
d="M222 3q0 -53 -14 -93t-39.5 -67t-61.5 -41.5t-80 -17.5q-9 25 -17 58.5t-12 62.5q49 0 69 23.5t20 67.5v526h135v-519v0zM230 657q0 -31 -19 -54t-57 -23t-56.5 23.5t-18.5 53.5t18.5 54.5t57.5 24.5q38 0 56.5 -24t18.5 -55z" />
    <glyph glyph-name="k" unicode="k" horiz-adv-x="537" 
d="M362 312l85 -150l84 -157q-12 -2 -30 -4t-37.5 -3.5t-39.5 -2t-37 -0.5l-111 215l-61 -72v-138h-135v735q29 4 66 6.5t69 2.5v-422h7l171 213q38 -5 71 -12t62 -16z" />
    <glyph glyph-name="l" unicode="l" horiz-adv-x="295" 
d="M80 0v735q29 4 66 6.5t69 2.5v-744h-135z" />
    <glyph glyph-name="m" unicode="m" horiz-adv-x="845" 
d="M634 0v355q0 28 -12 43.5t-49 15.5q-46 0 -81 -27v-387h-135v354q0 29 -11 44.5t-46 15.5q-22 0 -44 -7t-41 -20v-387h-135v517q29 4 66 6t69 2v-52h7q37 33 66.5 46t66.5 13q38 0 67 -14.5t46 -51.5q38 39 72.5 52.5t75.5 13.5q33 0 61 -9.5t48.5 -29t32 -50t11.5 -73.5
v-370h-135z" />
    <glyph glyph-name="n" unicode="n" horiz-adv-x="588" 
d="M377 0v354q0 31 -14 45.5t-57 14.5q-49 0 -91 -27v-387h-135v517q29 4 66 6t69 2v-52h7q20 19 37.5 30.5t34 18t33 8.5t32.5 2q31 0 58.5 -8.5t48.5 -28t33.5 -50.5t12.5 -76v-369h-135z" />
    <glyph glyph-name="o" unicode="o" horiz-adv-x="572" 
d="M525 261q0 -66 -18.5 -116.5t-51 -85t-76.5 -52t-95 -17.5q-52 0 -96 16t-75 49.5t-48.5 84.5t-17.5 121q0 63 18 113.5t49.5 85.5t76 53.5t96.5 18.5q51 0 94.5 -15t75.5 -48t50 -84.5t18 -123.5zM381 261q0 84 -23.5 120.5t-71.5 36.5q-46 0 -69.5 -36.5t-23.5 -120.5
q0 -85 21 -121t70 -36q48 0 72.5 35.5t24.5 121.5z" />
    <glyph glyph-name="p" unicode="p" horiz-adv-x="581" 
d="M390 264q0 48 -6 77t-17.5 45.5t-27.5 22t-37 5.5q-23 0 -46.5 -4.5t-40.5 -14.5v-270q34 -20 75 -20q58 0 79 37.5t21 121.5zM534 276q0 -73 -16.5 -127t-46.5 -89.5t-72 -52.5t-94 -17q-21 0 -44 3.5t-46 9.5v-209h-135v723q29 4 66 6t69 2v-48h7q29 31 61 43t66 12
q89 0 137 -64t48 -192z" />
    <glyph glyph-name="q" unicode="q" horiz-adv-x="581" 
d="M366 -206v250h-7q-28 -30 -60 -42t-67 -12q-88 0 -136.5 63t-48.5 192q0 141 62 214t175 73q57 0 114.5 -10.5t102.5 -27.5v-700h-135zM366 403q-14 5 -35 8.5t-38 3.5q-56 0 -79 -35.5t-23 -122.5q0 -45 5.5 -74t16.5 -45.5t27 -23t38 -6.5q23 0 48 4.5t40 14.5v276z
" />
    <glyph glyph-name="r" unicode="r" horiz-adv-x="397" 
d="M372 526q0 -35 -3.5 -70t-8.5 -70q-9 2 -22.5 4t-25.5 2q-28 0 -51.5 -7t-45.5 -18v-367h-135v517q29 4 66 6t69 2v-67h7q18 26 33.5 40.5t29.5 22t26.5 9.5t24.5 2q7 0 17.5 -1.5t18.5 -4.5z" />
    <glyph glyph-name="s" unicode="s" horiz-adv-x="461" 
d="M421 158q0 -44 -18 -76t-47 -52.5t-67 -30t-77 -9.5q-45 0 -90 10.5t-77 27.5l14.5 61.5t16.5 59.5q31 -17 75.5 -27t82.5 -10q26 0 36.5 11t10.5 31q0 18 -17 27t-43 17l-55.5 16.5t-55.5 25.5t-43 45t-17 73t18.5 77.5t49 54t70.5 32t83 10.5q26 0 62.5 -4t67.5 -12
q-2 -28 -6.5 -59t-11.5 -61q-14 4 -32 7.5t-37.5 6.5t-39 4.5t-35.5 1.5q-48 0 -48 -42q0 -18 17 -27.5t42.5 -17l55.5 -17t55.5 -27.5t42.5 -48t17 -79z" />
    <glyph glyph-name="t" unicode="t" horiz-adv-x="411" 
d="M389 15q-10 -5 -25.5 -9.5t-31.5 -8t-31 -5.5t-26 -2q-93 0 -136.5 45.5t-43.5 141.5v227h-59v118h59v108q30 7 66.5 13.5t68.5 8.5v-130h135q0 -29 -1.5 -58t-5.5 -60h-128v-235q0 -36 16 -45.5t50 -9.5q19 0 41 5t34 11q6 -26 10.5 -56t7.5 -59z" />
    <glyph glyph-name="u" unicode="u" horiz-adv-x="590" 
d="M375 0v45h-7q-34 -31 -67 -43t-68 -12q-31 0 -59 8.5t-49.5 28t-34 51t-12.5 76.5v364q30 4 66 6t69 2v-354q0 -32 17 -48t63 -16q45 0 82 19v391q30 4 66 6t69 2v-526h-135z" />
    <glyph glyph-name="v" unicode="v" horiz-adv-x="510" 
d="M495 517q-34 -135 -75.5 -259.5t-93.5 -257.5h-146q-48 121 -90 250.5t-75 266.5q29 4 66.5 6t69.5 2l93 -314q4 -12 7 -28.5t5 -35.5h7q2 21 5.5 36.5t7.5 29.5l91 312q29 0 64.5 -1.5t63.5 -6.5z" />
    <glyph glyph-name="w" unicode="w" horiz-adv-x="803" 
d="M756 516q-19 -127 -46 -253t-67 -263h-136l-93 309q-4 11 -7 27.5t-5 32.5h-7q-2 -17 -5.5 -33t-7.5 -28l-91 -308h-136q-37 125 -63 252.5t-45 264.5q30 4 66 6t66 2l50 -301q2 -12 4.5 -32t3.5 -34h7q2 14 5.5 33.5t7.5 33.5l85 297h131l83 -295q3 -11 7.5 -31l8.5 -37
h7q1 17 2.5 34t4.5 34l50 298q26 0 59 -2t61 -7z" />
    <glyph glyph-name="x" unicode="x" horiz-adv-x="537" 
d="M522 5q-37 -5 -78.5 -7t-79.5 -2l-82 152q-5 10 -9 20.5t-8 26.5h-7q-5 -16 -9 -26t-9 -21l-81 -152q-36 0 -74 2.5t-70 6.5l160 280l-153 232q40 5 80 6.5t78 1.5l78 -140q6 -11 11 -23.5t8 -26.5h7q3 14 8 28.5t10 23.5l74 138q38 0 73.5 -1.5t70.5 -6.5l-157 -251
l159 -261v0z" />
    <glyph glyph-name="y" unicode="y" horiz-adv-x="525" 
d="M349 29q-23 -71 -50 -118t-57 -75t-63.5 -40t-69.5 -12q-19 0 -48.5 3.5t-52.5 15.5q3 32 9 64.5t14 58.5q15 -6 39.5 -9t46.5 -3q26 0 41.5 10t28.5 39l15 34q-22 48 -46 109.5t-47.5 129.5t-44 140t-34.5 141q29 4 66.5 6t65.5 2l88 -313q4 -12 8.5 -30.5t6.5 -30.5h7
q2 13 6.5 31t8.5 30l92 313q28 0 64.5 -1.5t66.5 -6.5z" />
    <glyph glyph-name="z" unicode="z" horiz-adv-x="497" 
d="M47 0l-12 112l246 292h-214q-4 30 -6.5 60t-2.5 58h373l12 -112l-246 -292h237q6 -26 9 -59t4 -59h-400z" />
    <glyph glyph-name="braceleft" unicode="{" horiz-adv-x="346" 
d="M306 -65q0 -25 -2.5 -58t-7.5 -57q-132 0 -188 30t-56 95q0 33 16 65t34.5 61.5l34.5 54t16 40.5q0 15 -4.5 25t-16.5 16.5t-34 9t-58 2.5v124q35 0 57 2.5t34.5 8.5t17 16t4.5 25q0 17 -16 41l-34.5 53t-34.5 61t-16 65q0 63 59.5 94t186.5 31q4 -23 6 -57.5t2 -57.5
q-37 0 -60.5 -1t-36.5 -4.5t-17.5 -10.5t-4.5 -20q0 -14 15 -37.5l33 -51t33 -56t15 -52.5q0 -19 -4.5 -35t-18 -29.5t-37.5 -24t-62 -18.5v-8q37 -8 61 -18.5t37.5 -24t18.5 -29.5t5 -36q0 -22 -15 -51t-33 -57l-33 -52.5t-15 -38.5q0 -12 3.5 -18.5t15.5 -10.5t36 -5
t64 -1z" />
    <glyph glyph-name="bar" unicode="|" horiz-adv-x="260" 
d="M80 -206v938h100v-938h-100z" />
    <glyph glyph-name="braceright" unicode="}" horiz-adv-x="346" 
d="M40 626q0 25 2.5 58t7.5 57q132 0 188 -30t56 -95q0 -33 -16 -65t-34.5 -61.5l-34.5 -53.5t-16 -41q0 -15 4.5 -25t16.5 -16.5t34 -9t58 -2.5v-124q-35 0 -57 -2.5t-34.5 -8.5t-17 -16t-4.5 -25q0 -16 16 -40.5l34.5 -53.5t34.5 -61t16 -65q0 -63 -59.5 -94t-186.5 -31
q-4 23 -6 57.5t-2 57.5q38 0 61 1t36 4.5t17.5 10.5t4.5 20q0 14 -15 37.5l-33 51t-33 56t-15 52.5q0 19 4.5 35t18 29.5t37.5 24t62 18.5v8q-37 8 -61 18.5t-37.5 24t-18.5 30t-5 35.5q0 23 15 51.5t33 56.5l33 52.5t15 38.5q0 12 -3.5 18.5t-15.5 10.5t-35.5 5t-64.5 1z
" />
    <glyph glyph-name="asciitilde" unicode="~" horiz-adv-x="497" 
d="M472 374q-8 -56 -19.5 -92t-27.5 -56.5t-36 -28t-44 -7.5q-23 0 -49 12.5t-50.5 27l-45.5 27t-33 12.5q-8 0 -13.5 -3t-9 -11.5t-6 -24t-5.5 -41.5q-10 0 -23.5 1.5t-28.5 4t-29.5 6.5t-26.5 8q8 55 19 90.5t26.5 56.5t35.5 29t45 8q23 0 48.5 -12.5t50 -27l46 -27
t34.5 -12.5q9 0 14 3t8.5 11.5t6 24.5t5.5 41q10 0 25 -1.5t30.5 -4.5t29.5 -6.5t23 -7.5z" />
    <glyph glyph-name="Adieresis" unicode="&#xc4;" horiz-adv-x="596" 
d="M460 764q0 -26 -17.5 -43.5t-50.5 -17.5q-32 0 -48.5 17.5t-16.5 43.5q0 25 16.5 42.5t48.5 17.5q33 0 50.5 -17t17.5 -43zM273 764q0 -26 -18 -43.5t-50 -17.5q-33 0 -49 17.5t-16 43.5q0 25 16 42.5t49 17.5q32 0 50 -17t18 -43zM581 7q-35 -8 -71.5 -10t-74.5 -2
l-46 166h-193l-46 -166q-33 0 -68 2.5t-67 9.5q45 164 95 329t108 338h164l104 -337.5zM305 466q-3 13 -5 26.5t-3 30.5h-10q-1 -33 -7 -57l-50 -182h125z" />
    <glyph glyph-name="Aring" unicode="&#xc5;" horiz-adv-x="596" 
d="M581 7q-35 -8 -71.5 -10t-74.5 -2l-46 166h-193l-46 -166q-33 0 -68 2.5t-67 9.5q21 80 44 158.5l47.5 159.5l52 166.5l58.5 179.5q-24 12 -35 32.5t-11 47.5q0 44 32 69.5t98 25.5q69 0 98.5 -24t29.5 -71q0 -53 -47 -79l107.5 -345zM305 466q-3 11 -5 26.5t-3 30.5h-10
q-2 -34 -7 -57l-50 -182h125zM335 751q0 17 -7.5 26t-26.5 9q-36 0 -36 -35q0 -17 7 -26t27 -9q36 0 36 35z" />
    <glyph glyph-name="Ccedilla" unicode="&#xc7;" horiz-adv-x="579" 
d="M539 35q-38 -23 -90.5 -34t-97.5 -11q-148 0 -224.5 88t-76.5 260q0 90 22.5 155.5t62 108t92.5 62.5t114 20q24 0 50 -2.5t51 -6.5t47 -10t36 -13q-2 -29 -7.5 -64.5t-12.5 -67.5q-35 17 -76 25.5t-80 8.5q-29 0 -54.5 -9.5t-44.5 -34t-30 -66t-11 -105.5q0 -61 9 -103
t27 -67.5t45.5 -37t64.5 -11.5q21 0 44 3.5t44.5 10t40.5 15t34 18.5q8 -30 13.5 -63.5t7.5 -68.5zM441 -115q0 -49 -33.5 -75t-105.5 -26q-13 0 -34.5 1.5t-37.5 3.5q-2 18 -3 35t-1 32q14 -2 33 -3.5t30 -1.5q29 0 42 7.5t13 25.5q0 35 -50 35h-18t-26 -1q2 11 6 27t9 27
h61q60 0 87.5 -22.5t27.5 -64.5z" />
    <glyph glyph-name="Eacute" unicode="&#xc9;" horiz-adv-x="542" 
d="M393 815q-5 -15 -11 -28t-15.5 -26t-22.5 -26t-32 -29q-32 0 -64 2t-62 6l51 101h156v0zM497 130q0 -30 -3 -63.5t-8 -66.5h-400v674h394q0 -29 -2.5 -65t-7.5 -65h-236v-136h172v-128h-172v-150h263v0z" />
    <glyph glyph-name="Ntilde" unicode="&#xd1;" horiz-adv-x="698" 
d="M525 817q-10 -65 -33.5 -88t-58.5 -23q-16 0 -33 4.5t-33 10.5t-29.5 10.5t-22.5 4.5q-14 0 -23 -7t-11 -26q-14 0 -41.5 3.5t-48.5 11.5q14 64 37 87.5t61 23.5q16 0 32 -4.5t31 -10.5t28 -10.5t23 -4.5q14 0 21 5t11 28q8 0 20 -1.5t25 -3.5t25.5 -4.5t19.5 -5.5z
M612 5q-14 -2 -32.5 -4t-38 -3.5t-38 -2t-32.5 -0.5l-216 393q-7 13 -16.5 36t-14.5 42l-10 -1q2 -23 3.5 -43.5t1.5 -37.5v-384h-133v667q17 2 37.5 4t41 3.5t40.5 2t35 0.5l202 -368q8 -14 17 -36t15 -42l10 1q-2 17 -3.5 42t-1.5 42v358h133v-669z" />
    <glyph glyph-name="Odieresis" unicode="&#xd6;" horiz-adv-x="679" 
d="M498 764q0 -26 -17.5 -43.5t-50.5 -17.5q-32 0 -48.5 17.5t-16.5 43.5q0 25 16.5 42.5t48.5 17.5q33 0 50.5 -17t17.5 -43zM311 764q0 -26 -18 -43.5t-50 -17.5q-33 0 -49 17.5t-16 43.5q0 25 16 42.5t49 17.5q32 0 50 -17t18 -43zM629 337q0 -92 -21.5 -157.5
t-59.5 -107.5t-91.5 -62t-116.5 -20q-65 0 -118.5 19t-91.5 60t-59 106t-21 158q0 88 21 154t59.5 109.5t92 65.5t117.5 22q65 0 118 -19.5t91 -61.5t59 -108t21 -158zM471 337q0 65 -8.5 107.5t-25.5 67.5t-41.5 35.5t-56.5 10.5q-33 0 -57 -10.5t-40.5 -35.5t-24.5 -67.5
t-8 -107.5q0 -62 7.5 -104.5t23.5 -68.5t41 -37t59 -11q35 0 59.5 11t40.5 36.5t23.5 68t7.5 105.5z" />
    <glyph glyph-name="Udieresis" unicode="&#xdc;" horiz-adv-x="687" 
d="M507 764q0 -26 -17.5 -43.5t-50.5 -17.5q-32 0 -48.5 17.5t-16.5 43.5q0 25 16.5 42.5t48.5 17.5q33 0 50.5 -17t17.5 -43zM320 764q0 -26 -18 -43.5t-50 -17.5q-33 0 -49 17.5t-16 43.5q0 25 16 42.5t49 17.5q32 0 50 -17t18 -43zM604 279q0 -139 -62 -214t-199 -75
q-60 0 -108.5 14.5t-82 48.5t-51.5 89t-18 137v395h148v-416q0 -39 5.5 -64.5t19 -40.5t35 -21t54.5 -6q63 0 91 28.5t28 103.5v416h140v-395v0z" />
    <glyph glyph-name="aacute" unicode="&#xe1;" horiz-adv-x="542" 
d="M394 731q-13 -42 -37 -84t-53 -75q-28 0 -57 2t-53 6l52 151h148v0zM542 80q0 -26 -8 -43t-21.5 -27.5t-32 -15t-38.5 -4.5q-34 0 -58.5 11t-38.5 43h-6q-61 -54 -137 -54q-34 0 -63 9t-50 27.5t-32.5 47t-11.5 67.5q0 43 13 72.5t38 48t61.5 27.5t83.5 11l82 3v89
q-19 11 -44.5 15.5t-52.5 4.5q-32 0 -63.5 -6t-54.5 -16q-6 25 -11.5 57t-7.5 64q35 10 72 15.5t76 5.5q29 0 59 -3.5t58 -11t53.5 -19t44.5 -27.5v-311q0 -20 6.5 -27.5t24.5 -7.5h59v-45v0zM323 214l-82 -3q-33 -2 -47 -14t-14 -47q0 -30 13 -43t42 -13q22 0 46.5 5.5
t41.5 18.5v96z" />
    <glyph glyph-name="copyright" unicode="&#xa9;" horiz-adv-x="725" 
d="M658 338q0 -72 -22 -130t-61.5 -99.5t-93.5 -64t-119 -22.5q-64 0 -118 22t-93.5 63.5t-61.5 100t-22 130.5q0 70 22 127.5t61 99t93.5 64t118.5 22.5q62 0 116 -22t94 -62.5t63 -98.5t23 -130zM610 335q0 61 -18.5 111t-51.5 86t-78.5 55.5t-99.5 19.5q-58 0 -104 -20
t-78 -56t-49 -86t-17 -110q0 -58 18 -107.5t50.5 -85.5t78 -56.5t101.5 -20.5t101.5 19.5t78 54.5t50.5 85t18 111zM485 163q-20 -13 -49.5 -19t-55.5 -6q-82 0 -129 50t-47 146q0 51 14 87.5t37.5 60t54.5 35t65 11.5q13 0 28 -1.5t29 -3.5t26 -5.5t20 -7.5q-1 -17 -4 -40
t-8 -40q-19 9 -41.5 13.5t-45.5 4.5q-16 0 -30.5 -5t-25 -17.5t-16.5 -34.5t-6 -56q0 -65 20 -90.5t62 -25.5q24 0 49 7t42 18q5 -16 8 -38.5t3 -42.5z" />
    <glyph glyph-name="trademark" unicode="&#x2122;" horiz-adv-x="806" 
d="M288 674q0 -12 -1.5 -37t-4.5 -46h-82v-266h-94v266h-85v83h267v0zM759 328q-19 -3 -44.5 -4t-43.5 -1l-12 182q-1 5 -1.5 18.5t-0.5 18.5h-5q-2 -12 -4.5 -20l-4.5 -15l-62 -182h-94l-65 182l-4.5 16t-4.5 19h-5q0 -5 -0.5 -17t-1.5 -20l-18 -182q-18 0 -40.5 1.5
t-36.5 3.5q6 90 15 173t23 173h105l75 -212q4 -11 7 -33h6q2 10 4 18l4 16l67 211h107q12 -88 21 -178t14 -168z" />
    <glyph glyph-name="acute" unicode="&#xb4;" 
d="M359 731q-13 -42 -37 -84t-53 -75q-28 0 -57 2t-53 6l52 151h148v0z" />
    <glyph glyph-name="dieresis" unicode="&#xa8;" 
d="M225 648q0 -31 -18 -52t-54 -21q-35 0 -53 21.5t-18 51.5t17.5 52.5t54.5 22.5q36 0 53.5 -22t17.5 -53zM418 648q0 -31 -18 -52t-54 -21q-35 0 -53 21.5t-18 51.5t17.5 52.5t54.5 22.5q36 0 53.5 -22t17.5 -53z" />
    <glyph glyph-name="notequal" unicode="&#x2260;" horiz-adv-x="493" 
d="M178 128l-70 -102h-50l69 102h-69v94h133l67 95h-200v94h264l61 90h52l-62 -90h62v-94h-126l-67 -95h193v-94h-257z" />
    <glyph glyph-name="AE" unicode="&#xc6;" horiz-adv-x="834" 
d="M789 130q0 -30 -3 -63.5t-7 -66.5h-395v177h-177l-82 -184q-31 0 -73 4t-77 10l84 180l80.5 165l82.5 159l89 163h462q0 -26 -3 -63.5t-8 -66.5h-235v-136h172v-128h-172v-150h262v0zM384 548h-10l-113 -248h123v248z" />
    <glyph glyph-name="Oslash" unicode="&#xd8;" horiz-adv-x="679" 
d="M629 337q0 -92 -21.5 -157.5t-59.5 -107.5t-91.5 -62t-116.5 -20q-85 0 -147 31l-43 -82h-44l54 102q-52 39 -81 110t-29 182q0 88 21 154t59.5 109.5t92 65.5t117.5 22q41 0 77 -7.5t68 -24.5l42 80h46l-54 -102q52 -40 81 -111.5t29 -181.5zM471 337q0 107 -25 158
l-188 -353q15 -14 35.5 -20t46.5 -6q35 0 59.5 11t40.5 36.5t23.5 68t7.5 105.5zM209 337q0 -55 6 -94t18 -65l187 353q-30 27 -81 27q-33 0 -57 -10.5t-40.5 -35.5t-24.5 -67.5t-8 -107.5z" />
    <glyph glyph-name="infinity" unicode="&#x221e;" horiz-adv-x="893" 
d="M843 257q0 -49 -13.5 -90t-39 -71t-62 -47t-81.5 -17q-59 0 -113.5 31t-88.5 85q-14 -23 -32.5 -44t-42.5 -37t-54 -25.5t-67 -9.5q-42 0 -78 15t-63 44t-42.5 72.5t-15.5 101.5q0 49 13.5 90t39 71t63 46.5t85.5 16.5q58 0 108 -28t89 -88q35 58 83.5 87t117.5 29
q44 0 80 -16.5t61.5 -46.5t39 -73t13.5 -96zM718 264q0 50 -20 79t-68 29t-78 -30t-53 -81q23 -54 57 -82.5t81 -28.5q46 0 63.5 33t17.5 81zM396 259q-22 51 -55.5 82t-78.5 31q-25 0 -42 -8.5t-27 -24t-14 -36t-4 -44.5q0 -21 3.5 -40.5t13 -35t27.5 -24.5t48 -9
q25 0 45 9.5t35.5 25.5t27.5 35.5t21 38.5z" />
    <glyph glyph-name="plusminus" unicode="&#xb1;" horiz-adv-x="463" 
d="M278 286v-125h-94v125h-124v92h124v122h94v-122h125v-92h-125zM60 45v97h343v-97h-343z" />
    <glyph glyph-name="lessequal" unicode="&#x2264;" horiz-adv-x="462" 
d="M252 164l-188 166l188 170h138v-12l-191 -152l192 -159v-13h-139zM60 45v96h342v-96h-342z" />
    <glyph glyph-name="greaterequal" unicode="&#x2265;" horiz-adv-x="462" 
d="M209 164h-138v13l191 156l-191 155v12h138l189 -167zM60 45v96h342v-96h-342z" />
    <glyph glyph-name="yen" unicode="&#xa5;" horiz-adv-x="501" 
d="M495 667l-66.5 -184t-72.5 -176h100q0 -49 -10 -93h-122v-214h-145v214h-120v93h89q-40 89 -73.5 177l-68.5 183q17 3 37 5.5t41 4t40 2.5t32 1l81 -241q5 -15 10.5 -36.5l9.5 -38.5h7l9 40t10 37l74 239q30 0 67.5 -3.5t70.5 -9.5z" />
    <glyph glyph-name="mu" unicode="&#xb5;" horiz-adv-x="592" 
d="M377 0v45h-7q-29 -28 -56 -41.5t-59 -13.5q-11 0 -22 2t-18 6v-204h-135v724q30 4 66 6t69 2v-354q0 -35 18 -49.5t62 -14.5q45 0 82 19v391q30 4 66 6t69 2v-526h-135z" />
    <glyph glyph-name="mu" unicode="&#x3bc;" horiz-adv-x="592" 
d="M377 0v45h-7q-29 -28 -56 -41.5t-59 -13.5q-11 0 -22 2t-18 6v-204h-135v724q30 4 66 6t69 2v-354q0 -35 18 -49.5t62 -14.5q45 0 82 19v391q30 4 66 6t69 2v-526h-135z" />
    <glyph glyph-name="partialdiff" unicode="&#x2202;" horiz-adv-x="562" 
d="M515 378q0 -199 -57.5 -293.5t-176.5 -94.5q-52 0 -95 12t-74 41.5t-48 77.5t-17 120q0 71 15.5 122.5t44 84.5t69 48.5t89.5 15.5q25 0 52 -3.5t50 -13.5q0 72 -34 99.5t-103 27.5q-34 0 -72.5 -7t-62.5 -17q0 29 2 64t6 61q32 12 72.5 16.5t70.5 4.5q57 0 106 -14.5
t85 -55t57 -112t21 -184.5zM375 296v42t-1 40q-19 9 -43.5 13.5t-50.5 4.5q-21 0 -37.5 -7t-28 -24t-17.5 -45t-6 -71q0 -77 19 -109t71 -32q50 0 72 42t22 146z" />
    <glyph glyph-name="summation" unicode="&#x2211;" horiz-adv-x="532" 
d="M484 129q0 -28 -3 -60.5t-8 -68.5h-435v119l220 233l-201 204v118h410q0 -33 -3 -65.5t-7 -64.5h-215l143 -151v-98l-163 -166h262z" />
    <glyph glyph-name="product" unicode="&#x220f;" horiz-adv-x="696" 
d="M462 0v533h-228v-533h-148v674h524v-674h-148z" />
    <glyph glyph-name="pi" unicode="&#x3c0;" horiz-adv-x="644" 
d="M631 10q-21 -11 -50.5 -15.5t-51.5 -4.5q-42 0 -70 12t-45 34t-24 53.5t-7 69.5v233h-133v-392h-129v392h-85v130h587q0 -29 -3 -64t-7 -66h-101v-223q0 -31 11 -43t34 -12q19 0 33.5 4t26.5 10q6 -26 10 -59.5t4 -58.5z" />
    <glyph glyph-name="integral" unicode="&#x222b;" horiz-adv-x="328" 
d="M333 739q0 -29 -1.5 -59t-5.5 -60q-8 2 -26.5 3t-28.5 1q-29 0 -39 -13.5t-10 -41.5v-599q0 -44 -14 -78.5t-38 -58.5t-56.5 -36.5t-69.5 -12.5q-17 0 -38.5 1.5t-30.5 3.5q0 29 2 59t6 60q7 -2 26 -3t29 -1q29 0 38.5 13.5t9.5 41.5v599q0 44 14 78.5t38 58.5t57 36.5
t70 12.5q8 0 18 -0.5l20 -1t18 -1.5t12 -2z" />
    <glyph glyph-name="ordfeminine" unicode="&#xaa;" horiz-adv-x="380" 
d="M357 392q0 -32 -17 -44.5t-44 -12.5q-19 0 -34 8t-24 26h-4q-37 -34 -93 -34q-47 0 -75 23t-28 71q0 29 8.5 48.5t25.5 31.5t41.5 17.5t55.5 7.5l52 3v38q-11 5 -26.5 7.5t-32.5 2.5q-19 0 -42.5 -3.5t-37.5 -10.5q-3 9 -5.5 21l-5 24.5t-4 24.5t-1.5 20q23 7 51.5 10
t52.5 3q36 0 76.5 -9t66.5 -27v-194q0 -13 4.5 -17.5t16.5 -4.5h23v-30v0zM221 475l-50 -2q-21 -1 -29 -9t-8 -25q0 -18 7.5 -25.5t29.5 -7.5q13 0 27 3.5t23 8.5v57z" />
    <glyph glyph-name="ordmasculine" unicode="&#xba;" horiz-adv-x="380" 
d="M355 504q0 -40 -12.5 -71.5t-34.5 -53.5t-52.5 -33t-67.5 -11q-76 0 -119.5 41.5t-43.5 127.5q0 80 45 125t120 45q37 0 67.5 -9.5t52 -30t33.5 -53t12 -77.5zM249 504q0 52 -16.5 69.5t-43.5 17.5q-26 0 -42 -19t-16 -68t15 -67.5t42 -18.5q29 0 45 18t16 68z" />
    <glyph glyph-name="Omega" unicode="&#x3a9;" horiz-adv-x="700" 
d="M383 0l-5 106q57 32 84 101.5t27 174.5q0 95 -35 133.5t-105 38.5q-69 0 -103.5 -38.5t-34.5 -134.5q0 -48 6.5 -91t20 -79t34.5 -63t50 -42l-4 -106h-261v129h125v9q-59 41 -88 107t-29 148q0 66 18 119.5t54 92t89.5 59t123.5 20.5q71 0 124 -20.5t89 -58.5t54 -91.5
t18 -119.5q0 -87 -28.5 -149t-88.5 -107v-9h125v-129h-260z" />
    <glyph glyph-name="ae" unicode="&#xe6;" horiz-adv-x="800" 
d="M750 300q0 -19 -1 -34t-3 -37l-286 -10v-6q0 -50 25 -73t87 -23q35 0 74 8.5t68 23.5q4 -11 8 -27l8 -33.5t7.5 -35t5.5 -31.5q-18 -8 -40.5 -14t-46 -10t-46 -6t-39.5 -2q-59 0 -107 16.5t-86 62.5h-3q-41 -40 -80.5 -59.5t-92.5 -19.5q-72 0 -114.5 38t-42.5 112
q0 85 49.5 120.5t146.5 39.5l92 3q0 8 0.5 20.5t2 25t3.5 24.5t5 19q-21 10 -54 15t-61 5q-33 0 -64.5 -5.5t-56.5 -16.5q-3 12 -6.5 28.5t-6.5 33.5t-4.5 33t-1.5 26q38 11 74 16t76 5q47 0 96.5 -10t83.5 -34q23 23 56 33.5t68 10.5q96 0 151.5 -56t55.5 -176zM614 338
q0 46 -17.5 69.5t-55.5 23.5q-79 0 -79 -124l151 5q1 4 1 13v13zM235 94q29 0 58.5 10.5t52.5 32.5q-7 17 -11 37t-4 40l-90 -3q-34 -2 -47.5 -15t-13.5 -46q0 -28 12 -42t43 -14z" />
    <glyph glyph-name="oslash" unicode="&#xf8;" horiz-adv-x="572" 
d="M525 261q0 -66 -18.5 -116.5t-51 -85t-76.5 -52t-95 -17.5q-59 0 -107 20l-46 -85h-44l56 104q-45 32 -70.5 89t-25.5 143q0 63 18 113.5t49.5 85.5t76 53.5t96.5 18.5q61 0 113 -23l43 80h44l-54 -100q43 -32 67.5 -87.5t24.5 -140.5zM193 261q0 -72 15 -110l133 248
q-20 19 -55 19q-46 0 -69.5 -36.5t-23.5 -120.5zM381 261q0 65 -15 102l-132 -246q19 -13 50 -13q48 0 72.5 35.5t24.5 121.5z" />
    <glyph glyph-name="questiondown" unicode="&#xbf;" horiz-adv-x="404" 
d="M25 41q0 68 45 118t130 83v88q29 5 59.5 8t57.5 5q8 -42 12.5 -85t4.5 -83q-83 -20 -128.5 -52.5t-45.5 -72.5q0 -43 21.5 -59t78.5 -16q9 0 22 0.5t26.5 1.5t26.5 2.5l22 2.5q5 -29 7.5 -60t2.5 -62q-24 -5 -57 -7t-65 -2q-46 0 -86 11.5t-70 35.5t-47 59.5t-17 83.5z
M182 470q0 39 21.5 57t53.5 18t54 -18t22 -57q0 -38 -22.5 -57t-53.5 -19q-32 0 -53.5 19t-21.5 57z" />
    <glyph glyph-name="exclamdown" unicode="&#xa1;" horiz-adv-x="252" 
d="M60 -139q0 119 6 235.5t14 233.5q46 7 101 9q8 -118 14.5 -237.5t6.5 -240.5h-142v0zM56 470q0 38 21 56.5t53 18.5t54 -18.5t22 -56.5q0 -39 -22.5 -57.5t-53.5 -18.5q-32 0 -53 19t-21 57z" />
    <glyph glyph-name="logicalnot" unicode="&#xac;" horiz-adv-x="498" 
d="M457 143q-25 -5 -53 -7.5t-53 -2.5v124h-316v108h422v-222v0z" />
    <glyph glyph-name="radical" unicode="&#x221a;" horiz-adv-x="523" 
d="M529 674q0 -28 -2 -58.5t-7 -57.5h-81l-85 -558h-142q-57 128 -105 257t-92 271l30 4.5t35 4t36 2.5t33 1l106 -312q10 -24 16 -56h8q0 17 1 31.5t3 26.5l61 444h185v0z" />
    <glyph glyph-name="florin" unicode="&#x192;" 
d="M425 679q0 -29 -2 -59t-6 -60q-7 2 -26 3t-29 1q-36 0 -51 -17.5t-15 -49.5v-104h146q0 -29 -2 -58t-6 -58h-138v-409h-136v409h-127v116h127v93q0 47 14.5 83.5t41 62t62.5 39t78 13.5q17 0 38.5 -1.5t30.5 -3.5z" />
    <glyph glyph-name="approxequal" unicode="&#x2248;" horiz-adv-x="496" 
d="M438 321q-19 -17 -41 -26.5t-47 -9.5t-49.5 6.5t-48 15t-47.5 15t-49 6.5q-29 0 -53 -10.5t-45 -30.5v92q21 20 45 30.5t53 10.5q25 0 48.5 -6.5t47.5 -14.5t48 -14.5t49 -6.5q26 0 47.5 9.5t41.5 26.5v-93v0zM438 133q-19 -17 -41 -26t-47 -9t-49.5 6.5t-48 15t-47.5 15
t-49 6.5q-29 0 -53 -11t-45 -30v92q21 20 45 30.5t53 10.5q25 0 48.5 -6.5t47.5 -14.5t48 -14.5t49 -6.5q49 0 89 35v-93v0z" />
    <glyph glyph-name="Delta" unicode="&#x394;" horiz-adv-x="595" 
d="M13 0q45 166 97 334.5l108 339.5h164l104.5 -339.5l95.5 -334.5h-569zM304 471q-3 11 -5 25.5t-2 26.5h-10q0 -12 -1.5 -26.5t-4.5 -25.5l-97 -347h212z" />
    <glyph glyph-name="guillemotleft" unicode="&#xab;" horiz-adv-x="506" 
d="M163 43l-139 220l139 220l111 -14l-122 -207l122 -206zM372 43l-139 220l139 220l111 -14l-122 -207l122 -206z" />
    <glyph glyph-name="guillemotright" unicode="&#xbb;" horiz-adv-x="506" 
d="M343 43l-110 13l121 207l-121 206l110 14l140 -221zM134 43l-110 13l121 207l-121 206l110 14l140 -221z" />
    <glyph glyph-name="ellipsis" unicode="&#x2026;" horiz-adv-x="762" 
d="M195 62q0 -39 -21.5 -57t-52.5 -18q-33 0 -54.5 18t-21.5 57q0 38 22 57t54 19q31 0 52.5 -19t21.5 -57zM456 62q0 -39 -21 -57t-53 -18q-33 0 -54.5 18t-21.5 57q0 38 22 57t54 19t53 -19t21 -57zM717 62q0 -39 -21 -57t-53 -18q-33 0 -54.5 18t-21.5 57q0 38 22 57
t54 19t53 -19t21 -57z" />
    <glyph glyph-name="nonbreakingspace" unicode="&#xa0;" horiz-adv-x="204" 
 />
    <glyph glyph-name="Agrave" unicode="&#xc0;" horiz-adv-x="596" 
d="M581 7q-35 -8 -71.5 -10t-74.5 -2l-46 166h-193l-46 -166q-33 0 -68 2.5t-67 9.5q45 164 95 329t108 338h164l104 -337.5zM305 466q-3 13 -5 26.5t-3 30.5h-10q-1 -33 -7 -57l-50 -182h125zM370 714q-30 -4 -62 -6t-64 -2q-19 16 -32 29t-22.5 26t-15.5 26t-11 28h156
l51 -101v0z" />
    <glyph glyph-name="Atilde" unicode="&#xc3;" horiz-adv-x="596" 
d="M581 7q-35 -8 -71.5 -10t-74.5 -2l-46 166h-193l-46 -166q-33 0 -68 2.5t-67 9.5q45 164 95 329t108 338h164l104 -337.5zM305 466q-3 13 -5 26.5t-3 30.5h-10q-1 -33 -7 -57l-50 -182h125zM467 817q-10 -65 -33.5 -88t-58.5 -23q-16 0 -33 4.5t-33 10.5t-29.5 10.5
t-22.5 4.5q-14 0 -23 -7t-11 -26q-14 0 -41.5 3.5t-48.5 11.5q14 64 37 87.5t61 23.5q16 0 32 -4.5t31 -10.5t28 -10.5t23 -4.5q14 0 21 5t11 28q8 0 20 -1.5t25 -3.5t25.5 -4.5t19.5 -5.5z" />
    <glyph glyph-name="Otilde" unicode="&#xd5;" horiz-adv-x="679" 
d="M629 337q0 -92 -21.5 -157.5t-59.5 -107.5t-91.5 -62t-116.5 -20q-65 0 -118.5 19t-91.5 60t-59 106t-21 158q0 88 21 154t59.5 109.5t92 65.5t117.5 22q65 0 118 -19.5t91 -61.5t59 -108t21 -158zM471 337q0 65 -8.5 107.5t-25.5 67.5t-41.5 35.5t-56.5 10.5
q-33 0 -57 -10.5t-40.5 -35.5t-24.5 -67.5t-8 -107.5q0 -62 7.5 -104.5t23.5 -68.5t41 -37t59 -11q35 0 59.5 11t40.5 36.5t23.5 68t7.5 105.5zM509 817q-10 -65 -33.5 -88t-58.5 -23q-16 0 -33 4.5t-33 10.5t-29.5 10.5t-22.5 4.5q-14 0 -23 -7t-11 -26q-14 0 -41.5 3.5
t-48.5 11.5q14 64 37 87.5t61 23.5q16 0 32 -4.5t31 -10.5t28 -10.5t23 -4.5q14 0 21 5t11 28q8 0 20 -1.5t25 -3.5t25.5 -4.5t19.5 -5.5z" />
    <glyph glyph-name="OE" unicode="&#x152;" horiz-adv-x="901" 
d="M856 130q0 -30 -3 -63.5t-8 -66.5h-361v51h-5q-30 -35 -70.5 -48t-81.5 -13q-137 0 -207 86t-70 257q0 83 18.5 148t54 110t87 69t118.5 24q45 0 84.5 -13.5t66.5 -43.5h5v47h356q0 -29 -3 -65t-8 -65h-235v-136h172v-128h-172v-150h262v0zM453 337q0 117 -29 169t-92 52
q-33 0 -56.5 -11t-38 -36.5t-21.5 -68t-7 -105.5q0 -61 6.5 -103.5t21 -68.5t38 -37.5t57.5 -11.5q68 0 94.5 54.5t26.5 166.5z" />
    <glyph glyph-name="oe" unicode="&#x153;" horiz-adv-x="850" 
d="M800 300q0 -19 -1 -40.5t-3 -37.5h-285v-7q0 -51 23 -74.5t88 -23.5q16 0 34.5 2t37.5 6t37 10t33 14q5 -13 9.5 -30t8 -34l7 -33.5t4.5 -29.5q-17 -8 -39 -14t-45.5 -10t-46.5 -6t-41 -2q-65 0 -102 20t-66 57q-35 -42 -77 -59.5t-92 -17.5q-53 0 -96.5 16t-75 49.5
t-48.5 84.5t-17 121q0 63 18 113.5t49.5 85.5t76 53.5t96.5 18.5q49 0 91.5 -15.5t71.5 -50.5q24 32 59.5 49t83.5 17q57 0 96 -17.5t64 -49t36 -73.5t11 -92zM663 310q1 5 1 15v13q0 93 -73 93q-39 0 -59 -29t-20 -92h151v0zM381 261q0 81 -23 119t-72 38q-46 0 -69.5 -36
t-23.5 -121q0 -84 21 -120.5t70 -36.5q48 0 72.5 36.5t24.5 120.5z" />
    <glyph glyph-name="endash" unicode="&#x2013;" 
d="M56 216v97h398q0 -26 -3.5 -51.5t-8.5 -45.5h-386z" />
    <glyph glyph-name="emdash" unicode="&#x2014;" horiz-adv-x="1000" 
d="M71 216v97h869q0 -26 -3 -52t-8 -45h-858z" />
    <glyph glyph-name="quotedblleft" unicode="&#x201c;" horiz-adv-x="467" 
d="M209 657q-43 -15 -61 -41t-18 -55h43q8 -29 11.5 -62.5t3.5 -62.5h-155v68q0 81 32 139t104 85q12 -15 22.5 -33t17.5 -38zM427 657q-43 -15 -61 -41t-18 -55h43q9 -29 12 -62.5t3 -62.5h-154v68q0 81 31.5 139t103.5 85q27 -32 40 -71z" />
    <glyph glyph-name="quotedblright" unicode="&#x201d;" horiz-adv-x="467" 
d="M215 646q0 -81 -32 -139t-104 -85q-12 15 -22 32.5t-17 37.5q43 16 60.5 41.5t17.5 55.5h-42q-9 29 -12.5 62t-3.5 62h155v-67v0zM434 646q0 -81 -32 -139t-104 -85q-12 15 -22.5 32.5t-17.5 37.5q43 16 61 41.5t18 55.5h-43q-9 29 -12 62t-3 62h155v-67v0z" />
    <glyph glyph-name="quoteleft" unicode="&#x2018;" horiz-adv-x="249" 
d="M209 657q-43 -15 -61 -41t-18 -55h43q8 -29 11.5 -62.5t3.5 -62.5h-155v68q0 81 32 139t104 85q12 -15 22.5 -33t17.5 -38z" />
    <glyph glyph-name="quoteright" unicode="&#x2019;" horiz-adv-x="249" 
d="M215 646q0 -81 -32 -139t-104 -85q-12 15 -22 32.5t-17 37.5q43 16 60.5 41.5t17.5 55.5h-42q-9 29 -12.5 62t-3.5 62h155v-67v0z" />
    <glyph glyph-name="divide" unicode="&#xf7;" horiz-adv-x="410" 
d="M280 456q0 -39 -21 -57t-53 -18t-54 18t-22 57t22 57.5t54 18.5t53 -19t21 -57zM280 92q0 -38 -21 -56.5t-53 -18.5t-54 18.5t-22 56.5q0 40 22 58t54 18t53 -18.5t21 -57.5zM354 232v84h-298v-84h298z" />
    <glyph glyph-name="lozenge" unicode="&#x25ca;" horiz-adv-x="458" 
d="M432 214q-32 -58 -68.5 -114t-77.5 -110h-115q-41 55 -76.5 110t-68.5 114v101q33 60 68.5 116.5t76.5 113.5h115q41 -53 77.5 -110t68.5 -120v-101v0zM228 430l-96 -161l99 -163l96 160z" />
    <glyph glyph-name="ydieresis" unicode="&#xff;" horiz-adv-x="525" 
d="M349 29q-23 -71 -50 -118t-57 -75t-63.5 -40t-69.5 -12q-19 0 -48.5 3.5t-52.5 15.5q3 32 9 64.5t14 58.5q15 -6 39.5 -9t46.5 -3q26 0 41.5 10t28.5 39l15 34q-22 48 -46 109.5t-47.5 129.5t-44 140t-34.5 141q29 4 66.5 6t65.5 2l88 -313q4 -12 8.5 -30.5t6.5 -30.5h7
q2 13 6.5 31t8.5 30l92 313q28 0 64.5 -1.5t66.5 -6.5zM246 648q0 -31 -18 -52t-54 -21q-35 0 -53 21.5t-18 51.5t17.5 52.5t54.5 22.5q36 0 53.5 -22t17.5 -53zM439 648q0 -31 -18 -52t-54 -21q-35 0 -53 21.5t-18 51.5t17.5 52.5t54.5 22.5q36 0 53.5 -22t17.5 -53z" />
    <glyph glyph-name="Ydieresis" unicode="&#x178;" horiz-adv-x="552" 
d="M542 667q-42 -112 -89.5 -216t-101.5 -210v-241h-148v241q-57 107 -103 212l-90 214q17 3 38 5.5t42 4t41 2.5t33 1l98 -236q12 -27 18 -58h10l8.5 29.5t10.5 30.5l93 234q30 0 68.5 -3.5t71.5 -9.5zM441 764q0 -26 -17.5 -43.5t-50.5 -17.5q-32 0 -48.5 17.5t-16.5 43.5
q0 25 16.5 42.5t48.5 17.5q33 0 50.5 -17t17.5 -43zM254 764q0 -26 -18 -43.5t-50 -17.5q-33 0 -49 17.5t-16 43.5q0 25 16 42.5t49 17.5q32 0 50 -17t18 -43z" />
    <glyph glyph-name="fraction" unicode="&#x2215;" horiz-adv-x="161" 
d="M-14 -13q-24 5 -43.5 11t-42.5 17l269 669q20 0 46.5 -3.5t45.5 -9.5z" />
    <glyph glyph-name="currency" unicode="&#xa4;" 
d="M230 220q9 -58 34 -79t73 -21q33 0 65.5 7.5t58.5 21.5q7 -30 12 -63t7 -68q-35 -16 -73 -22t-74 -6q-112 0 -172.5 58t-79.5 172h-52v83h44q-1 9 -1 17v18v13t1 14h-44v83h52q10 62 32 107t53.5 73.5t71.5 42t86 13.5q18 0 37.5 -1t39 -3t36.5 -5t30 -7q-2 -29 -7 -64
t-12 -68q-54 18 -117 18q-20 0 -36.5 -4t-29 -16t-22 -32.5t-14.5 -53.5h207q0 -34 -11 -83h-202q-1 -8 -1 -14v-12v-18t1 -18h190q0 -18 -3 -38.5t-8 -44.5h-172z" />
    <glyph glyph-name="guilsinglleft" unicode="&#x2039;" horiz-adv-x="297" 
d="M163 43l-139 220l139 220l111 -14l-122 -207l122 -206z" />
    <glyph glyph-name="guilsinglright" unicode="&#x203a;" horiz-adv-x="297" 
d="M134 43l-110 13l121 207l-121 206l110 14l140 -221z" />
    <glyph glyph-name="fi" unicode="&#xfb01;" horiz-adv-x="630" 
d="M415 0v404h-181v-404h-135v404h-59v118h59v36q0 44 14 78.5t38 58.5t57 36.5t70 12.5q8 0 18 -0.5l20 -1t18 -1.5t12 -2q0 -25 -1.5 -57t-5.5 -62q-9 2 -26 3t-29 1q-29 0 -39.5 -13.5t-10.5 -41.5v-47h316v-522h-135zM558 657q0 -31 -19 -54t-57 -23t-56.5 23.5
t-18.5 53.5t18.5 54.5t57.5 24.5q38 0 56.5 -24t18.5 -55z" />
    <glyph glyph-name="fl" unicode="&#xfb02;" horiz-adv-x="632" 
d="M417 0v620q-21 3 -51.5 6t-61.5 3q-39 0 -54.5 -12t-15.5 -40v-55h103q0 -29 -2 -59t-6 -59h-95v-404h-135v404h-59v118h59v45q0 44 15.5 77t43.5 55t66 33.5t84 11.5q23 0 53 -1.5t63 -4t66.5 -6.5t61.5 -9v-723h-135z" />
    <glyph glyph-name="daggerdbl" unicode="&#x2021;" horiz-adv-x="522" 
d="M329 13v-141q-32 -6 -66.5 -8.5t-69.5 -2.5v152h-156v130h156v120h-156v131h156v151h136v-151h156v-131h-156v-120h156v-130h-156z" />
    <glyph glyph-name="periodcentered" unicode="&#xb7;" horiz-adv-x="240" 
d="M195 295q0 -38 -21.5 -56.5t-52.5 -18.5q-33 0 -54.5 18.5t-21.5 56.5q0 40 22 58t54 18q31 0 52.5 -18.5t21.5 -57.5z" />
    <glyph glyph-name="quotesinglbase" unicode="&#x201a;" horiz-adv-x="249" 
d="M215 99q0 -81 -32 -139t-104 -85q-12 15 -22 32.5t-17 37.5q43 16 60.5 41.5t17.5 55.5h-42q-9 29 -12.5 62t-3.5 62h155v-67v0z" />
    <glyph glyph-name="quotedblbase" unicode="&#x201e;" horiz-adv-x="467" 
d="M215 99q0 -81 -32 -139t-104 -85q-12 15 -22 32.5t-17 37.5q43 16 60.5 41.5t17.5 55.5h-42q-9 29 -12.5 62t-3.5 62h155v-67v0zM434 99q0 -81 -32 -139t-104 -85q-12 15 -22.5 32.5t-17.5 37.5q43 16 61 41.5t18 55.5h-43q-9 29 -12 62t-3 62h155v-67v0z" />
    <glyph glyph-name="perthousand" unicode="&#x2030;" horiz-adv-x="1178" 
d="M352 494q0 -94 -43.5 -142t-117.5 -48q-35 0 -65 10.5t-51.5 33.5t-33.5 59t-12 87q0 50 12 85.5t34 59t51.5 34.5t64.5 11q73 0 117 -45t44 -145zM320 -12q-23 4 -43 11t-43 16l264 669q22 0 47 -4t46 -9zM245 494q0 51 -10.5 78t-43.5 27q-32 0 -43.5 -25.5
t-11.5 -79.5q0 -56 11.5 -80.5t43.5 -24.5t43 25.5t11 79.5zM788 180q0 -94 -43.5 -142t-117.5 -48q-35 0 -65 10.5t-51.5 33.5t-33.5 59t-12 87q0 50 12 85.5t34 59t51.5 34.5t64.5 11q73 0 117 -45t44 -145zM681 180q0 51 -10.5 78t-43.5 27q-32 0 -43.5 -25.5
t-11.5 -79.5q0 -56 11.5 -80.5t43.5 -24.5t43 25.5t11 79.5zM1149 180q0 -94 -43.5 -142t-117.5 -48q-35 0 -65 10.5t-51.5 33.5t-33.5 59t-12 87q0 50 12 85.5t34 59t51.5 34.5t64.5 11q73 0 117 -45t44 -145zM1042 180q0 51 -10.5 78t-43.5 27q-32 0 -43.5 -25.5
t-11.5 -79.5q0 -56 11.5 -80.5t43.5 -24.5t43 25.5t11 79.5z" />
    <glyph glyph-name="Acircumflex" unicode="&#xc2;" horiz-adv-x="596" 
d="M581 7q-35 -8 -71.5 -10t-74.5 -2l-46 166h-193l-46 -166q-33 0 -68 2.5t-67 9.5q45 164 95 329t108 338h164l104 -337.5zM305 466q-3 13 -5 26.5t-3 30.5h-10q-1 -33 -7 -57l-50 -182h125zM458 712q-24 -3 -56.5 -4.5t-60.5 -1.5l-41 65l-41 -65q-26 0 -58 1.5t-60 3.5
l27.5 55t29.5 49h205q17 -26 29 -50z" />
    <glyph glyph-name="Ecircumflex" unicode="&#xca;" horiz-adv-x="542" 
d="M497 130q0 -30 -3 -63.5t-8 -66.5h-400v674h394q0 -29 -2.5 -65t-7.5 -65h-236v-136h172v-128h-172v-150h263v0zM439 712q-24 -3 -56.5 -4.5t-60.5 -1.5l-41 65l-41 -65q-26 0 -58 1.5t-60 3.5l27.5 55t29.5 49h205q17 -26 29 -50z" />
    <glyph glyph-name="Aacute" unicode="&#xc1;" horiz-adv-x="596" 
d="M581 7q-35 -8 -71.5 -10t-74.5 -2l-46 166h-193l-46 -166q-33 0 -68 2.5t-67 9.5q45 164 95 329t108 338h164l104 -337.5zM305 466q-3 13 -5 26.5t-3 30.5h-10q-1 -33 -7 -57l-50 -182h125zM435 815q-5 -15 -11 -28t-15.5 -26t-22.5 -26t-32 -29q-32 0 -64 2t-62 6
l51 101h156v0z" />
    <glyph glyph-name="Edieresis" unicode="&#xcb;" horiz-adv-x="542" 
d="M497 130q0 -30 -3 -63.5t-8 -66.5h-400v674h394q0 -29 -2.5 -65t-7.5 -65h-236v-136h172v-128h-172v-150h263v0zM442 764q0 -26 -17.5 -43.5t-50.5 -17.5q-32 0 -48.5 17.5t-16.5 43.5q0 25 16.5 42.5t48.5 17.5q33 0 50.5 -17t17.5 -43zM255 764q0 -26 -18 -43.5
t-50 -17.5q-33 0 -49 17.5t-16 43.5q0 25 16 42.5t49 17.5q32 0 50 -17t18 -43z" />
    <glyph glyph-name="Egrave" unicode="&#xc8;" horiz-adv-x="542" 
d="M497 130q0 -30 -3 -63.5t-8 -66.5h-400v674h394q0 -29 -2.5 -65t-7.5 -65h-236v-136h172v-128h-172v-150h263v0zM355 714q-30 -4 -62 -6t-64 -2q-19 16 -32 29t-22.5 26t-15.5 26t-11 28h156l51 -101v0z" />
    <glyph glyph-name="Iacute" unicode="&#xcd;" horiz-adv-x="320" 
d="M299 815q-5 -15 -11 -28t-15.5 -26t-22.5 -26t-32 -29q-32 0 -64 2t-62 6l51 101h156v0zM86 0v674h148v-674h-148z" />
    <glyph glyph-name="Icircumflex" unicode="&#xce;" horiz-adv-x="320" 
d="M313 711q-23 -4 -54.5 -5.5t-58.5 -1.5l-40 66l-40 -66q-26 0 -56.5 1.5t-57.5 4.5q25 58 55 104h199q16 -26 28 -50t25 -53zM86 0v674h148v-674h-148z" />
    <glyph glyph-name="Idieresis" unicode="&#xcf;" horiz-adv-x="320" 
d="M315 764q0 -26 -17 -43.5t-49 -17.5q-31 0 -47 17.5t-16 43.5q0 25 16 42.5t47 17.5q32 0 49 -17t17 -43zM134 764q0 -26 -17 -43.5t-49 -17.5t-47.5 17.5t-15.5 43.5q0 25 15.5 42.5t47.5 17.5t49 -17t17 -43zM86 0v674h148v-674h-148z" />
    <glyph glyph-name="Igrave" unicode="&#xcc;" horiz-adv-x="320" 
d="M227 714q-30 -4 -62 -6t-64 -2q-19 16 -32 29t-22.5 26t-15.5 26t-11 28h156l51 -101v0zM86 0v674h148v-674h-148z" />
    <glyph glyph-name="Oacute" unicode="&#xd3;" horiz-adv-x="679" 
d="M629 337q0 -92 -21.5 -157.5t-59.5 -107.5t-91.5 -62t-116.5 -20q-65 0 -118.5 19t-91.5 60t-59 106t-21 158q0 88 21 154t59.5 109.5t92 65.5t117.5 22q65 0 118 -19.5t91 -61.5t59 -108t21 -158zM471 337q0 65 -8.5 107.5t-25.5 67.5t-41.5 35.5t-56.5 10.5
q-33 0 -57 -10.5t-40.5 -35.5t-24.5 -67.5t-8 -107.5q0 -62 7.5 -104.5t23.5 -68.5t41 -37t59 -11q35 0 59.5 11t40.5 36.5t23.5 68t7.5 105.5zM472 815q-5 -15 -11 -28t-15.5 -26t-22.5 -26t-32 -29q-32 0 -64 2t-62 6l51 101h156v0z" />
    <glyph glyph-name="Ocircumflex" unicode="&#xd4;" horiz-adv-x="679" 
d="M629 337q0 -92 -21.5 -157.5t-59.5 -107.5t-91.5 -62t-116.5 -20q-65 0 -118.5 19t-91.5 60t-59 106t-21 158q0 88 21 154t59.5 109.5t92 65.5t117.5 22q65 0 118 -19.5t91 -61.5t59 -108t21 -158zM471 337q0 65 -8.5 107.5t-25.5 67.5t-41.5 35.5t-56.5 10.5
q-33 0 -57 -10.5t-40.5 -35.5t-24.5 -67.5t-8 -107.5q0 -62 7.5 -104.5t23.5 -68.5t41 -37t59 -11q35 0 59.5 11t40.5 36.5t23.5 68t7.5 105.5zM498 712q-24 -3 -56.5 -4.5t-60.5 -1.5l-41 65l-41 -65q-26 0 -58 1.5t-60 3.5l27.5 55t29.5 49h205q17 -26 29 -50z" />
    <glyph glyph-name="Ograve" unicode="&#xd2;" horiz-adv-x="679" 
d="M629 337q0 -92 -21.5 -157.5t-59.5 -107.5t-91.5 -62t-116.5 -20q-65 0 -118.5 19t-91.5 60t-59 106t-21 158q0 88 21 154t59.5 109.5t92 65.5t117.5 22q65 0 118 -19.5t91 -61.5t59 -108t21 -158zM471 337q0 65 -8.5 107.5t-25.5 67.5t-41.5 35.5t-56.5 10.5
q-33 0 -57 -10.5t-40.5 -35.5t-24.5 -67.5t-8 -107.5q0 -62 7.5 -104.5t23.5 -68.5t41 -37t59 -11q35 0 59.5 11t40.5 36.5t23.5 68t7.5 105.5zM411 714q-30 -4 -62 -6t-64 -2q-19 16 -32 29t-22.5 26t-15.5 26t-11 28h156l51 -101v0z" />
    <glyph glyph-name="Uacute" unicode="&#xda;" horiz-adv-x="687" 
d="M604 279q0 -139 -62 -214t-199 -75q-60 0 -108.5 14.5t-82 48.5t-51.5 89t-18 137v395h148v-416q0 -39 5.5 -64.5t19 -40.5t35 -21t54.5 -6q63 0 91 28.5t28 103.5v416h140v-395v0zM473 815q-5 -15 -11 -28t-15.5 -26t-22.5 -26t-32 -29q-32 0 -64 2t-62 6l51 101h156v0z
" />
    <glyph glyph-name="Ucircumflex" unicode="&#xdb;" horiz-adv-x="687" 
d="M604 279q0 -139 -62 -214t-199 -75q-60 0 -108.5 14.5t-82 48.5t-51.5 89t-18 137v395h148v-416q0 -39 5.5 -64.5t19 -40.5t35 -21t54.5 -6q63 0 91 28.5t28 103.5v416h140v-395v0zM507 712q-24 -3 -56.5 -4.5t-60.5 -1.5l-41 65l-41 -65q-26 0 -58 1.5t-60 3.5l27.5 55
t29.5 49h205q17 -26 29 -50z" />
    <glyph glyph-name="Ugrave" unicode="&#xd9;" horiz-adv-x="687" 
d="M604 279q0 -139 -62 -214t-199 -75q-60 0 -108.5 14.5t-82 48.5t-51.5 89t-18 137v395h148v-416q0 -39 5.5 -64.5t19 -40.5t35 -21t54.5 -6q63 0 91 28.5t28 103.5v416h140v-395v0zM427 714q-30 -4 -62 -6t-64 -2q-19 16 -32 29t-22.5 26t-15.5 26t-11 28h156l51 -101v0z
" />
    <glyph glyph-name="dotlessi" unicode="&#x131;" horiz-adv-x="295" 
d="M80 0v522h135v-522h-135z" />
    <glyph glyph-name="circumflex" unicode="&#x2c6;" 
d="M429 580q-29 -4 -59.5 -6t-62.5 -2l-58 94l-56 -94q-29 0 -59.5 2t-60.5 5q18 40 39 78.5t44 73.5h188q25 -36 46 -74t39 -77z" />
    <glyph glyph-name="tilde" unicode="&#x2dc;" 
d="M440 719q-12 -48 -24 -76.5t-25.5 -43.5t-29.5 -19.5t-36 -4.5q-29 0 -55 13l-49 26q-8 5 -16.5 8t-15.5 3q-14 0 -19.5 -10t-13.5 -45q-20 0 -47 5.5t-50 14.5q11 48 23.5 76t26.5 43t31 19.5t38 4.5q13 0 26.5 -4t24.5 -9l53 -28q7 -4 14.5 -6.5t15.5 -2.5q13 0 18 10
t13 46q16 0 45 -5.5t52 -14.5z" />
    <glyph glyph-name="macron" unicode="&#xaf;" 
d="M127 598v111h252q0 -26 -2.5 -54.5t-7.5 -56.5h-242z" />
    <glyph glyph-name="macron" unicode="&#x2c9;" 
d="M127 598v111h252q0 -26 -2.5 -54.5t-7.5 -56.5h-242z" />
    <glyph glyph-name="breve" unicode="&#x2d8;" 
d="M440 720q-11 -46 -30.5 -75.5t-45 -46t-55.5 -22.5t-61 -6q-33 0 -62.5 6t-54 22.5t-42.5 45.5t-29 76q23 8 52.5 15t58.5 11q5 -39 24.5 -55t54.5 -16t55 14.5t27 56.5q59 -9 108 -26z" />
    <glyph glyph-name="dotaccent" unicode="&#x2d9;" 
d="M326 647q0 -31 -19 -54t-57 -23t-56.5 23.5t-18.5 53.5t18.5 54.5t57.5 24.5q38 0 56.5 -24t18.5 -55z" />
    <glyph glyph-name="ring" unicode="&#x2da;" 
d="M379 669q0 -44 -32.5 -71.5t-95.5 -27.5q-69 0 -99.5 27t-30.5 72q0 44 32 72.5t98 28.5q69 0 98.5 -27t29.5 -74zM285 669q0 18 -7.5 28t-26.5 10q-36 0 -36 -38q0 -19 7 -28.5t27 -9.5q36 0 36 38z" />
    <glyph glyph-name="cedilla" unicode="&#xb8;" 
d="M383 -115q0 -49 -33.5 -75t-105.5 -26q-13 0 -34.5 1.5t-37.5 3.5q-2 18 -3 35t-1 32q14 -2 33 -3.5t30 -1.5q29 0 42 7.5t13 25.5q0 35 -50 35h-18t-26 -1q2 11 6 27t9 27h61q60 0 87.5 -22.5t27.5 -64.5z" />
    <glyph glyph-name="hungarumlaut" unicode="&#x2dd;" 
d="M275 731q-13 -42 -37 -84t-53 -75q-28 0 -54.5 2t-50.5 6l52 151h143v0zM444 731q-13 -42 -37 -84t-53 -75q-28 0 -54.5 2t-50.5 6l52 151h143v0z" />
    <glyph glyph-name="ogonek" unicode="&#x2db;" 
d="M380 21q-46 -21 -74 -37.5t-43.5 -31t-20.5 -27.5t-5 -27q0 -28 14.5 -37.5t37.5 -9.5q13 0 25 1.5t24 3.5q0 -11 -2 -32t-4 -35q-20 -3 -41 -4t-34 -1q-50 0 -83.5 21t-33.5 73q0 23 7.5 42.5t28.5 37.5t57.5 37t94.5 41l52 -15v0z" />
    <glyph glyph-name="caron" unicode="&#x2c7;" 
d="M72 726q29 4 59.5 6t62.5 2l58 -94l56 94q29 0 59.5 -2t60.5 -5q-18 -40 -39 -78.5t-44 -73.5h-188q-25 36 -46 74t-39 77z" />
    <glyph glyph-name="lslash" unicode="&#x142;" horiz-adv-x="295" 
d="M80 0v295l-35 -11v124l35 11v316q29 4 66 6.5t69 2.5v-281l37 12q0 -67 -9 -127l-28 -9v-339h-135z" />
    <glyph glyph-name="Scaron" unicode="&#x160;" horiz-adv-x="539" 
d="M455 812l-27.5 -55t-29.5 -49h-205q-17 26 -29 50l-26 53q24 3 56.5 4.5t60.5 1.5l41 -65l41 65q26 0 58 -1.5t60 -3.5zM486 199q0 -53 -18.5 -92t-51.5 -65t-79 -39t-100 -13q-43 0 -92.5 6.5t-91.5 24.5q5 35 13 67.5t16 59.5q37 -16 84.5 -25t88.5 -9q42 0 60.5 18.5
t18.5 52.5q0 28 -20.5 46.5t-51.5 34.5t-67 32.5t-67 40t-51.5 58t-20.5 85.5q0 50 19.5 87.5t54.5 63t82.5 38.5t102.5 13q32 0 69 -3.5t74 -13.5q-2 -29 -6 -62t-11 -64q-17 4 -37.5 7.5t-41 6t-40.5 4t-36 1.5q-40 0 -58.5 -18t-18.5 -51q0 -26 20.5 -44t51.5 -34
l66.5 -33t66.5 -41t51.5 -57.5t20.5 -82.5z" />
    <glyph glyph-name="scaron" unicode="&#x161;" horiz-adv-x="461" 
d="M77 726q29 4 59.5 6t62.5 2l58 -94l56 94q29 0 59.5 -2t60.5 -5q-18 -40 -39 -78.5t-44 -73.5h-188q-25 36 -46 74t-39 77zM421 158q0 -44 -18 -76t-47 -52.5t-67 -30t-77 -9.5q-45 0 -90 10.5t-77 27.5l14.5 61.5t16.5 59.5q31 -17 75.5 -27t82.5 -10q26 0 36.5 11
t10.5 31q0 18 -17 27t-43 17l-55.5 16.5t-55.5 25.5t-43 45t-17 73t18.5 77.5t49 54t70.5 32t83 10.5q26 0 62.5 -4t67.5 -12q-2 -28 -6.5 -59t-11.5 -61q-14 4 -32 7.5t-37.5 6.5t-39 4.5t-35.5 1.5q-48 0 -48 -42q0 -18 17 -27.5t42.5 -17l55.5 -17t55.5 -27.5t42.5 -48
t17 -79z" />
    <glyph glyph-name="Yacute" unicode="&#xdd;" horiz-adv-x="552" 
d="M542 667q-42 -112 -89.5 -216t-101.5 -210v-241h-148v241q-57 107 -103 212l-90 214q17 3 38 5.5t42 4t41 2.5t33 1l98 -236q12 -27 18 -58h10l8.5 29.5t10.5 30.5l93 234q30 0 68.5 -3.5t71.5 -9.5zM411 815q-5 -15 -11 -28t-15.5 -26t-22.5 -26t-32 -29q-32 0 -64 2
t-62 6l51 101h156v0z" />
    <glyph glyph-name="yacute" unicode="&#xfd;" horiz-adv-x="525" 
d="M349 29q-23 -71 -50 -118t-57 -75t-63.5 -40t-69.5 -12q-19 0 -48.5 3.5t-52.5 15.5q3 32 9 64.5t14 58.5q15 -6 39.5 -9t46.5 -3q26 0 41.5 10t28.5 39l15 34q-22 48 -46 109.5t-47.5 129.5t-44 140t-34.5 141q29 4 66.5 6t65.5 2l88 -313q4 -12 8.5 -30.5t6.5 -30.5h7
q2 13 6.5 31t8.5 30l92 313q28 0 64.5 -1.5t66.5 -6.5zM405 731q-13 -42 -37 -84t-53 -75q-28 0 -57 2t-53 6l52 151h148v0z" />
    <glyph glyph-name="Thorn" unicode="&#xde;" horiz-adv-x="585" 
d="M535 353q0 -66 -19.5 -112t-52.5 -75.5t-75 -43t-87 -13.5h-69v-109h-146v674h146v-97q18 1 36.5 1.5t38.5 0.5q51 0 93 -14.5t72 -43t46.5 -70.5t16.5 -98zM389 354q0 50 -24.5 79t-66.5 29q-17 0 -32.5 -0.5t-33.5 -2.5v-229h56q101 0 101 124z" />
    <glyph glyph-name="thorn" unicode="&#xfe;" horiz-adv-x="581" 
d="M390 264q0 47 -6 76.5t-17 46t-27.5 22t-37.5 5.5q-20 0 -45 -4.5t-42 -14.5v-270q16 -10 35.5 -15t39.5 -5q58 0 79 37.5t21 121.5zM534 276q0 -143 -60.5 -214.5t-168.5 -71.5q-21 0 -45 3.5t-45 9.5v-209h-135v941q29 4 66 6.5t69 2.5v-267h7q29 31 61 43t66 12
q89 0 137 -64t48 -192z" />
    <glyph glyph-name="Zcaron" unicode="&#x17d;" horiz-adv-x="574" 
d="M521 130q0 -32 -2.5 -66.5t-7.5 -63.5h-452l-8 110l289 434h-265q-4 35 -6 66.5t-2 63.5h441l8 -110l-289 -434h294v0zM453 812l-27.5 -55t-29.5 -49h-205q-17 26 -29 50l-26 53q24 3 56.5 4.5t60.5 1.5l41 -65l41 65q26 0 58 -1.5t60 -3.5z" />
    <glyph glyph-name="zcaron" unicode="&#x17e;" horiz-adv-x="497" 
d="M47 0l-12 112l246 292h-214q-4 30 -6.5 60t-2.5 58h373l12 -112l-246 -292h237q6 -26 9 -59t4 -59h-400zM65 726q29 4 59.5 6t62.5 2l58 -94l56 94q29 0 59.5 -2t60.5 -5q-18 -40 -39 -78.5t-44 -73.5h-188q-25 36 -46 74t-39 77z" />
    <glyph glyph-name="DLE" unicode="&#xe000;" horiz-adv-x="563" 
d="M442 26l-49 55q-24 -14 -53 -24t-58 -10q-61 0 -112 31l-47 -52l-74 75l48 52q-16 26 -24.5 57.5t-8.5 66.5t9.5 67.5t24.5 58.5l-50 53l74 75l47 -51q48 32 113 32q63 0 113 -32l46 52l73 -75l-48 -52q15 -26 24.5 -57t9.5 -66q0 -73 -34 -128l49 -53zM388 281
q0 59 -29 90t-77 31q-45 0 -76 -31t-31 -90q0 -60 28 -91.5t76 -31.5t78.5 31.5t30.5 91.5z" />
    <glyph glyph-name="Euro" unicode="&#x20ac;" 
d="M230 220q9 -58 34 -79t73 -21q33 0 65.5 7.5t58.5 21.5q7 -30 12 -63t7 -68q-35 -16 -73 -22t-74 -6q-112 0 -172.5 58t-79.5 172h-52v83h44q-1 9 -1 17v18v13t1 14h-44v83h52q10 62 32 107t53.5 73.5t71.5 42t86 13.5q18 0 37.5 -1t39 -3t36.5 -5t30 -7q-2 -29 -7 -64
t-12 -68q-54 18 -117 18q-20 0 -36.5 -4t-29 -16t-22 -32.5t-14.5 -53.5h207q0 -34 -11 -83h-202q-1 -8 -1 -14v-12v-18t1 -18h190q0 -18 -3 -38.5t-8 -44.5h-172z" />
    <glyph glyph-name="onehalf" unicode="&#xbd;" horiz-adv-x="880" 
d="M335 383q0 -20 -1.5 -48t-5.5 -48h-284v96h112v195l-101 -14q-4 17 -6.5 42t-2.5 45l119 23h92v-291h78v0zM843 96q0 -21 -1 -47t-4 -49h-279l-5 81q45 30 77 54t51.5 43.5t28.5 36.5t9 34q0 28 -15.5 38t-46.5 10q-20 0 -45 -4.5t-39 -11.5q-3 9 -5.5 22l-5 26.5
t-3.5 26t-1 20.5q11 4 25.5 7.5t31 5.5t33 3.5t29.5 1.5q66 0 109.5 -32t43.5 -96q0 -51 -31.5 -90t-91.5 -80h135v0zM347 -13q-24 5 -43.5 11t-42.5 17l269 669q20 0 46.5 -3.5t45.5 -9.5z" />
    <glyph glyph-name="onequarter" unicode="&#xbc;" horiz-adv-x="870" 
d="M335 383q0 -20 -1.5 -48t-5.5 -48h-284v96h112v195l-101 -14q-4 17 -6.5 42t-2.5 45l119 23h92v-291h78v0zM855 168q0 -18 -2 -46.5t-6 -46.5h-39v-75h-96v75h-183v93q32 66 70 124t70 102q9 0 22 -1.5l26.5 -3t25.5 -4t20 -4.5l-135 -218h87v76h93v-71h47v0zM347 -13
q-24 5 -43.5 11t-42.5 17l269 669q20 0 46.5 -3.5t45.5 -9.5z" />
    <glyph glyph-name="onesuperior" unicode="&#xb9;" horiz-adv-x="360" 
d="M335 383q0 -20 -1.5 -48t-5.5 -48h-284v96h112v195l-101 -14q-4 17 -6.5 42t-2.5 45l119 23h92v-291h78v0z" />
    <glyph glyph-name="threequarters" unicode="&#xbe;" horiz-adv-x="870" 
d="M315 401q0 -62 -50 -91.5t-128 -29.5q-26 0 -55.5 4t-50.5 12q1 25 5.5 50.5t10.5 42.5q17 -6 41 -10t47 -4q34 0 52 5.5t18 27.5q0 23 -17.5 28t-51.5 5h-61v89h65q35 0 46.5 5t11.5 22t-15.5 23t-50.5 6q-20 0 -40 -2.5t-37 -7.5q-5 15 -8.5 42t-3.5 50q26 8 55 10.5
t55 2.5q32 0 60 -5.5t48.5 -17t32.5 -30.5t12 -46q0 -66 -68 -88v-3q36 -8 56.5 -30.5t20.5 -59.5zM855 168q0 -18 -2 -46.5t-6 -46.5h-39v-75h-96v75h-183v93q32 66 70 124t70 102q9 0 22 -1.5l26.5 -3t25.5 -4t20 -4.5l-135 -218h87v76h93v-71h47v0zM347 -13
q-24 5 -43.5 11t-42.5 17l269 669q20 0 46.5 -3.5t45.5 -9.5z" />
    <glyph glyph-name="threesuperior" unicode="&#xb3;" horiz-adv-x="360" 
d="M315 401q0 -62 -50 -91.5t-128 -29.5q-26 0 -55.5 4t-50.5 12q1 25 5.5 50.5t10.5 42.5q17 -6 41 -10t47 -4q34 0 52 5.5t18 27.5q0 23 -17.5 28t-51.5 5h-61v89h65q35 0 46.5 5t11.5 22t-15.5 23t-50.5 6q-20 0 -40 -2.5t-37 -7.5q-5 15 -8.5 42t-3.5 50q26 8 55 10.5
t55 2.5q32 0 60 -5.5t48.5 -17t32.5 -30.5t12 -46q0 -66 -68 -88v-3q36 -8 56.5 -30.5t20.5 -59.5z" />
    <glyph glyph-name="twosuperior" unicode="&#xb2;" horiz-adv-x="360" 
d="M323 383q0 -21 -1 -47t-4 -49h-279l-5 81q45 30 77 54t51.5 43.5t28.5 36.5t9 34q0 28 -15.5 38t-46.5 10q-20 0 -45 -4.5t-39 -11.5q-3 9 -5.5 22l-5 26.5t-3.5 26t-1 20.5q11 4 25.5 7.5t31 5.5t33 3.5t29.5 1.5q66 0 109.5 -32t43.5 -96q0 -51 -31.5 -90t-91.5 -80
h135v0z" />
    <glyph glyph-name="brokenbar" unicode="&#xa6;" horiz-adv-x="261" 
d="M81 401v273h99v-273h-99zM81 0v277h99v-277h-99z" />
    <glyph glyph-name="minus" unicode="&#x2212;" 
d="M74 210v98h352v-98h-352z" />
    <glyph glyph-name="multiply" unicode="&#xd7;" horiz-adv-x="491" 
d="M386 24l-141 144l-141 -144l-67 67l144 143l-143 142l66 67l141 -145l141 145l68 -67l-143 -142l143 -143z" />
    <glyph glyph-name="Lslash" unicode="&#x141;" horiz-adv-x="506" 
d="M476 132q0 -34 -3 -67t-7 -65h-380v267l-50 -17v124l50 17v283h148v-230l63 22q0 -32 -3 -65t-11 -64l-49 -18v-187h242v0z" />
    <glyph glyph-name="exclam" unicode="!" horiz-adv-x="252" 
d="M196 674q0 -120 -6 -236t-14 -233q-46 -7 -101 -9q-8 118 -14.5 237.5t-6.5 240.5h142v0zM200 65q0 -38 -21 -56.5t-53 -18.5t-54 18.5t-22 56.5q0 39 22.5 57.5t53.5 18.5q32 0 53 -19t21 -57z" />
    <glyph glyph-name="quotedbl" unicode="&#x22;" horiz-adv-x="420" 
d="M162 447q-20 -8 -43 -11t-46 -3l-23 280h137zM345 447q-20 -8 -43 -11t-46 -3l-23 280h137z" />
    <glyph glyph-name="numbersign" unicode="#" 
d="M477 539q0 -32 -5.5 -64.5t-13.5 -63.5h-77l-25 -153h84q0 -31 -5 -62.5t-13 -63.5h-88l-22 -132h-83l22 132h-81l-21 -132h-83l22 132h-65q0 32 5.5 64.5t15.5 61.5h66l25 153h-75q1 32 5 64t14 64h78l23 135h83l-23 -135h81l22 135h83l-23 -135h74v0zM218 411l-26 -153
h81l26 153h-81z" />
    <glyph glyph-name="dollar" unicode="$" 
d="M452 233q0 -34 -12.5 -63t-35 -51.5t-53.5 -37.5t-67 -22l2 -59h-121l2 56q-32 3 -64.5 8.5t-55.5 14.5l4.5 30t5.5 34t7 32.5t8 25.5q16 -6 39.5 -11t49 -8t49.5 -5t42 -2q36 0 51.5 9t15.5 34q0 22 -20.5 34t-51.5 21.5l-66.5 20t-66.5 29t-51.5 49t-20.5 80.5
q0 31 12.5 58t34 48t51.5 36t66 22l-2 58h121l-2 -52q25 -2 51 -4.5t47 -7.5q0 -11 -1.5 -27t-3.5 -33t-4.5 -33.5t-5.5 -28.5q-15 3 -37.5 6t-46 5t-45 3t-35.5 1q-37 0 -52 -8t-15 -34q0 -19 20.5 -30t51.5 -20l66.5 -20t66.5 -30t51.5 -49t20.5 -79z" />
    <glyph glyph-name="percent" unicode="%" horiz-adv-x="817" 
d="M352 494q0 -94 -43.5 -142t-117.5 -48q-35 0 -65 10.5t-51.5 33.5t-33.5 59t-12 87q0 50 12 85.5t34 59t51.5 34.5t64.5 11q73 0 117 -45t44 -145zM320 -12q-23 4 -43 11t-43 16l264 669q22 0 47 -4t46 -9zM245 494q0 51 -10.5 78t-43.5 27q-32 0 -43.5 -25.5
t-11.5 -79.5q0 -56 11.5 -80.5t43.5 -24.5t43 25.5t11 79.5zM788 180q0 -94 -43.5 -142t-117.5 -48q-35 0 -65 10.5t-51.5 33.5t-33.5 59t-12 87q0 50 12 85.5t34 59t51.5 34.5t64.5 11q73 0 117 -45t44 -145zM681 180q0 51 -10.5 78t-43.5 27q-32 0 -43.5 -25.5
t-11.5 -79.5q0 -56 11.5 -80.5t43.5 -24.5t43 25.5t11 79.5z" />
    <glyph glyph-name="ampersand" unicode="&#x26;" horiz-adv-x="637" 
d="M632 6q-15 -3 -34 -5.5t-38.5 -4.5t-38.5 -3t-35 -1l-51 65q-51 -38 -96 -52.5t-88 -14.5q-52 0 -93 14t-69 39.5t-42.5 61t-14.5 78.5q0 36 7 64.5t24.5 53.5t46.5 47.5t72 45.5q-41 70 -41 117q0 83 49 128t129 45t123 -37t43 -105q0 -24 -5.5 -47t-20 -46t-38.5 -45.5
t-62 -44.5l15.5 -20l26.5 -34l30.5 -39.5l27.5 -35.5l61 65.5l73 84.5q7 -46 10.5 -86t3.5 -72l-40.5 -45t-37.5 -38l103 -133v0zM366 147l-32.5 41l-40.5 51.5l-35 45t-17 21.5q-23 -13 -38 -25.5t-23.5 -25t-11.5 -25.5t-3 -29q0 -51 24.5 -71t71.5 -20q22 0 46.5 6.5
t58.5 30.5zM374 537q0 49 -54 49q-29 0 -42 -17.5t-13 -45.5q0 -17 6 -33.5t26 -45.5q26 14 41 26t23 23t10.5 21.5t2.5 22.5z" />
    <glyph glyph-name="quotesingle" unicode="'" horiz-adv-x="237" 
d="M162 447q-20 -8 -43 -11t-46 -3l-23 280h137z" />
    <glyph glyph-name="agrave" unicode="&#xe0;" horiz-adv-x="542" 
d="M333 580q-24 -4 -53 -6t-57 -2q-29 33 -53 75t-37 84h148l52 -151v0zM542 80q0 -26 -8 -43t-21.5 -27.5t-32 -15t-38.5 -4.5q-34 0 -58.5 11t-38.5 43h-6q-61 -54 -137 -54q-34 0 -63 9t-50 27.5t-32.5 47t-11.5 67.5q0 43 13 72.5t38 48t61.5 27.5t83.5 11l82 3v89
q-19 11 -44.5 15.5t-52.5 4.5q-32 0 -63.5 -6t-54.5 -16q-6 25 -11.5 57t-7.5 64q35 10 72 15.5t76 5.5q29 0 59 -3.5t58 -11t53.5 -19t44.5 -27.5v-311q0 -20 6.5 -27.5t24.5 -7.5h59v-45v0zM323 214l-82 -3q-33 -2 -47 -14t-14 -47q0 -30 13 -43t42 -13q22 0 46.5 5.5
t41.5 18.5v96z" />
    <glyph glyph-name="acircumflex" unicode="&#xe2;" horiz-adv-x="542" 
d="M446 580q-29 -4 -59.5 -6t-62.5 -2l-58 94l-56 -94q-29 0 -59.5 2t-60.5 5q18 40 39 78.5t44 73.5h188q25 -36 46 -74t39 -77zM542 80q0 -26 -8 -43t-21.5 -27.5t-32 -15t-38.5 -4.5q-34 0 -58.5 11t-38.5 43h-6q-61 -54 -137 -54q-34 0 -63 9t-50 27.5t-32.5 47
t-11.5 67.5q0 43 13 72.5t38 48t61.5 27.5t83.5 11l82 3v89q-19 11 -44.5 15.5t-52.5 4.5q-32 0 -63.5 -6t-54.5 -16q-6 25 -11.5 57t-7.5 64q35 10 72 15.5t76 5.5q29 0 59 -3.5t58 -11t53.5 -19t44.5 -27.5v-311q0 -20 6.5 -27.5t24.5 -7.5h59v-45v0zM323 214l-82 -3
q-33 -2 -47 -14t-14 -47q0 -30 13 -43t42 -13q22 0 46.5 5.5t41.5 18.5v96z" />
    <glyph glyph-name="adieresis" unicode="&#xe4;" horiz-adv-x="542" 
d="M246 648q0 -31 -18 -52t-54 -21q-35 0 -53 21.5t-18 51.5t17.5 52.5t54.5 22.5q36 0 53.5 -22t17.5 -53zM439 648q0 -31 -18 -52t-54 -21q-35 0 -53 21.5t-18 51.5t17.5 52.5t54.5 22.5q36 0 53.5 -22t17.5 -53zM542 80q0 -26 -8 -43t-21.5 -27.5t-32 -15t-38.5 -4.5
q-34 0 -58.5 11t-38.5 43h-6q-61 -54 -137 -54q-34 0 -63 9t-50 27.5t-32.5 47t-11.5 67.5q0 43 13 72.5t38 48t61.5 27.5t83.5 11l82 3v89q-19 11 -44.5 15.5t-52.5 4.5q-32 0 -63.5 -6t-54.5 -16q-6 25 -11.5 57t-7.5 64q35 10 72 15.5t76 5.5q29 0 59 -3.5t58 -11
t53.5 -19t44.5 -27.5v-311q0 -20 6.5 -27.5t24.5 -7.5h59v-45v0zM323 214l-82 -3q-33 -2 -47 -14t-14 -47q0 -30 13 -43t42 -13q22 0 46.5 5.5t41.5 18.5v96z" />
    <glyph glyph-name="atilde" unicode="&#xe3;" horiz-adv-x="542" 
d="M467 719q-12 -48 -24 -76.5t-25.5 -43.5t-29.5 -19.5t-36 -4.5q-29 0 -55 13l-49 26q-8 5 -16.5 8t-15.5 3q-14 0 -19.5 -10t-13.5 -45q-20 0 -47 5.5t-50 14.5q11 48 23.5 76t26.5 43t31 19.5t38 4.5q13 0 26.5 -4t24.5 -9l53 -28q7 -4 14.5 -6.5t15.5 -2.5q13 0 18 10
t13 46q16 0 45 -5.5t52 -14.5zM542 80q0 -26 -8 -43t-21.5 -27.5t-32 -15t-38.5 -4.5q-34 0 -58.5 11t-38.5 43h-6q-61 -54 -137 -54q-34 0 -63 9t-50 27.5t-32.5 47t-11.5 67.5q0 43 13 72.5t38 48t61.5 27.5t83.5 11l82 3v89q-19 11 -44.5 15.5t-52.5 4.5q-32 0 -63.5 -6
t-54.5 -16q-6 25 -11.5 57t-7.5 64q35 10 72 15.5t76 5.5q29 0 59 -3.5t58 -11t53.5 -19t44.5 -27.5v-311q0 -20 6.5 -27.5t24.5 -7.5h59v-45v0zM323 214l-82 -3q-33 -2 -47 -14t-14 -47q0 -30 13 -43t42 -13q22 0 46.5 5.5t41.5 18.5v96z" />
    <glyph glyph-name="aring" unicode="&#xe5;" horiz-adv-x="542" 
d="M391 669q0 -44 -32.5 -71.5t-95.5 -27.5q-69 0 -99.5 27t-30.5 72q0 44 32 72.5t98 28.5q69 0 98.5 -27t29.5 -74zM297 669q0 18 -7.5 28t-26.5 10q-36 0 -36 -38q0 -19 7 -28.5t27 -9.5q36 0 36 38zM542 80q0 -26 -8 -43t-21.5 -27.5t-32 -15t-38.5 -4.5q-34 0 -58.5 11
t-38.5 43h-6q-61 -54 -137 -54q-34 0 -63 9t-50 27.5t-32.5 47t-11.5 67.5q0 43 13 72.5t38 48t61.5 27.5t83.5 11l82 3v89q-19 11 -44.5 15.5t-52.5 4.5q-32 0 -63.5 -6t-54.5 -16q-6 25 -11.5 57t-7.5 64q35 10 72 15.5t76 5.5q29 0 59 -3.5t58 -11t53.5 -19t44.5 -27.5
v-311q0 -20 6.5 -27.5t24.5 -7.5h59v-45v0zM323 214l-82 -3q-33 -2 -47 -14t-14 -47q0 -30 13 -43t42 -13q22 0 46.5 5.5t41.5 18.5v96z" />
    <glyph glyph-name="ccedilla" unicode="&#xe7;" horiz-adv-x="466" 
d="M429 17q-11 -6 -27.5 -11t-35 -8.5t-37 -5.5t-33.5 -2q-118 0 -183.5 64.5t-65.5 197.5q0 74 19 127t51.5 87t75 50t88.5 16q38 0 76 -4.5t66 -14.5q-5 -29 -12.5 -63t-16.5 -66q-23 10 -50.5 14.5t-52.5 4.5q-51 0 -75 -30.5t-24 -108.5q0 -44 6 -72t19.5 -44.5
t34 -22.5t50.5 -6q26 0 53.5 6.5t47.5 17.5q8 -30 15 -62t11 -64zM379 -115q0 -49 -33.5 -75t-105.5 -26q-13 0 -34.5 1.5t-37.5 3.5q-2 18 -3 35t-1 32q14 -2 33 -3.5t30 -1.5q29 0 42 7.5t13 25.5q0 35 -50 35h-18t-26 -1q2 11 6 27t9 27h61q60 0 87.5 -22.5t27.5 -64.5z
" />
    <glyph glyph-name="eacute" unicode="&#xe9;" horiz-adv-x="534" 
d="M484 300q0 -17 -1 -38.5t-3 -39.5h-285v-10q0 -25 5 -43t17.5 -29.5t34.5 -17t55 -5.5q17 0 37 2.5t39 7t36 10t29 12.5q9 -26 16.5 -60.5t12.5 -66.5q-17 -8 -39.5 -14t-46 -10t-46 -6t-40.5 -2q-125 0 -191.5 66.5t-66.5 197.5q0 69 17 121t47.5 87t73 52.5t92.5 17.5
q55 0 94 -16.5t64 -47t37 -73.5t12 -95zM347 310q1 5 1 14v14q0 47 -17.5 70t-55.5 23t-58.5 -29t-20.5 -92h151v0zM409 731q-13 -42 -37 -84t-53 -75q-28 0 -57 2t-53 6l52 151h148v0z" />
    <glyph glyph-name="egrave" unicode="&#xe8;" horiz-adv-x="534" 
d="M484 300q0 -17 -1 -38.5t-3 -39.5h-285v-10q0 -25 5 -43t17.5 -29.5t34.5 -17t55 -5.5q17 0 37 2.5t39 7t36 10t29 12.5q9 -26 16.5 -60.5t12.5 -66.5q-17 -8 -39.5 -14t-46 -10t-46 -6t-40.5 -2q-125 0 -191.5 66.5t-66.5 197.5q0 69 17 121t47.5 87t73 52.5t92.5 17.5
q55 0 94 -16.5t64 -47t37 -73.5t12 -95zM347 310q1 5 1 14v14q0 47 -17.5 70t-55.5 23t-58.5 -29t-20.5 -92h151v0zM349 580q-24 -4 -53 -6t-57 -2q-29 33 -53 75t-37 84h148l52 -151v0z" />
    <glyph glyph-name="ecircumflex" unicode="&#xea;" horiz-adv-x="534" 
d="M484 300q0 -17 -1 -38.5t-3 -39.5h-285v-10q0 -25 5 -43t17.5 -29.5t34.5 -17t55 -5.5q17 0 37 2.5t39 7t36 10t29 12.5q9 -26 16.5 -60.5t12.5 -66.5q-17 -8 -39.5 -14t-46 -10t-46 -6t-40.5 -2q-125 0 -191.5 66.5t-66.5 197.5q0 69 17 121t47.5 87t73 52.5t92.5 17.5
q55 0 94 -16.5t64 -47t37 -73.5t12 -95zM347 310q1 5 1 14v14q0 47 -17.5 70t-55.5 23t-58.5 -29t-20.5 -92h151v0zM453 580q-29 -4 -59.5 -6t-62.5 -2l-58 94l-56 -94q-29 0 -59.5 2t-60.5 5q18 40 39 78.5t44 73.5h188q25 -36 46 -74t39 -77z" />
    <glyph glyph-name="edieresis" unicode="&#xeb;" horiz-adv-x="534" 
d="M484 300q0 -17 -1 -38.5t-3 -39.5h-285v-10q0 -25 5 -43t17.5 -29.5t34.5 -17t55 -5.5q17 0 37 2.5t39 7t36 10t29 12.5q9 -26 16.5 -60.5t12.5 -66.5q-17 -8 -39.5 -14t-46 -10t-46 -6t-40.5 -2q-125 0 -191.5 66.5t-66.5 197.5q0 69 17 121t47.5 87t73 52.5t92.5 17.5
q55 0 94 -16.5t64 -47t37 -73.5t12 -95zM347 310q1 5 1 14v14q0 47 -17.5 70t-55.5 23t-58.5 -29t-20.5 -92h151v0zM256 648q0 -31 -18 -52t-54 -21q-35 0 -53 21.5t-18 51.5t17.5 52.5t54.5 22.5q36 0 53.5 -22t17.5 -53zM449 648q0 -31 -18 -52t-54 -21q-35 0 -53 21.5
t-18 51.5t17.5 52.5t54.5 22.5q36 0 53.5 -22t17.5 -53z" />
    <glyph glyph-name="iacute" unicode="&#xed;" horiz-adv-x="295" 
d="M280 731q-13 -42 -37 -84t-53 -75q-28 0 -57 2t-53 6l52 151h148v0zM80 0v522h135v-522h-135z" />
    <glyph glyph-name="igrave" unicode="&#xec;" horiz-adv-x="295" 
d="M80 0v522h135v-522h-135zM213 580q-24 -4 -53 -6t-57 -2q-29 33 -53 75t-37 84h148l52 -151v0z" />
    <glyph glyph-name="icircumflex" unicode="&#xee;" horiz-adv-x="295" 
d="M80 0v522h135v-522h-135zM326 580q-29 -4 -59.5 -6t-62.5 -2l-58 94l-56 -94q-29 0 -59.5 2t-60.5 5q18 40 39 78.5t44 73.5h188q25 -36 46 -74t39 -77z" />
    <glyph glyph-name="idieresis" unicode="&#xef;" horiz-adv-x="295" 
d="M80 0v522h135v-522h-135zM122 648q0 -31 -18 -52t-54 -21q-35 0 -53 21.5t-18 51.5t17.5 52.5t54.5 22.5q36 0 53.5 -22t17.5 -53zM315 648q0 -31 -18 -52t-54 -21q-35 0 -53 21.5t-18 51.5t17.5 52.5t54.5 22.5q36 0 53.5 -22t17.5 -53z" />
    <glyph glyph-name="ntilde" unicode="&#xf1;" horiz-adv-x="588" 
d="M377 0v354q0 31 -14 45.5t-57 14.5q-49 0 -91 -27v-387h-135v517q29 4 66 6t69 2v-52h7q20 19 37.5 30.5t34 18t33 8.5t32.5 2q31 0 58.5 -8.5t48.5 -28t33.5 -50.5t12.5 -76v-369h-135zM492 719q-12 -48 -24 -76.5t-25.5 -43.5t-29.5 -19.5t-36 -4.5q-29 0 -55 13
l-49 26q-8 5 -16.5 8t-15.5 3q-14 0 -19.5 -10t-13.5 -45q-20 0 -47 5.5t-50 14.5q11 48 23.5 76t26.5 43t31 19.5t38 4.5q13 0 26.5 -4t24.5 -9l53 -28q7 -4 14.5 -6.5t15.5 -2.5q13 0 18 10t13 46q16 0 45 -5.5t52 -14.5z" />
    <glyph glyph-name="oacute" unicode="&#xf3;" horiz-adv-x="572" 
d="M525 261q0 -66 -18.5 -116.5t-51 -85t-76.5 -52t-95 -17.5q-52 0 -96 16t-75 49.5t-48.5 84.5t-17.5 121q0 63 18 113.5t49.5 85.5t76 53.5t96.5 18.5q51 0 94.5 -15t75.5 -48t50 -84.5t18 -123.5zM381 261q0 84 -23.5 120.5t-71.5 36.5q-46 0 -69.5 -36.5t-23.5 -120.5
q0 -85 21 -121t70 -36q48 0 72.5 35.5t24.5 121.5zM418 731q-13 -42 -37 -84t-53 -75q-28 0 -57 2t-53 6l52 151h148v0z" />
    <glyph glyph-name="ograve" unicode="&#xf2;" horiz-adv-x="572" 
d="M525 261q0 -66 -18.5 -116.5t-51 -85t-76.5 -52t-95 -17.5q-52 0 -96 16t-75 49.5t-48.5 84.5t-17.5 121q0 63 18 113.5t49.5 85.5t76 53.5t96.5 18.5q51 0 94.5 -15t75.5 -48t50 -84.5t18 -123.5zM381 261q0 84 -23.5 120.5t-71.5 36.5q-46 0 -69.5 -36.5t-23.5 -120.5
q0 -85 21 -121t70 -36q48 0 72.5 35.5t24.5 121.5zM352 580q-24 -4 -53 -6t-57 -2q-29 33 -53 75t-37 84h148l52 -151v0z" />
    <glyph glyph-name="ocircumflex" unicode="&#xf4;" horiz-adv-x="572" 
d="M525 261q0 -66 -18.5 -116.5t-51 -85t-76.5 -52t-95 -17.5q-52 0 -96 16t-75 49.5t-48.5 84.5t-17.5 121q0 63 18 113.5t49.5 85.5t76 53.5t96.5 18.5q51 0 94.5 -15t75.5 -48t50 -84.5t18 -123.5zM381 261q0 84 -23.5 120.5t-71.5 36.5q-46 0 -69.5 -36.5t-23.5 -120.5
q0 -85 21 -121t70 -36q48 0 72.5 35.5t24.5 121.5zM463 580q-29 -4 -59.5 -6t-62.5 -2l-58 94l-56 -94q-29 0 -59.5 2t-60.5 5q18 40 39 78.5t44 73.5h188q25 -36 46 -74t39 -77z" />
    <glyph glyph-name="odieresis" unicode="&#xf6;" horiz-adv-x="572" 
d="M525 261q0 -66 -18.5 -116.5t-51 -85t-76.5 -52t-95 -17.5q-52 0 -96 16t-75 49.5t-48.5 84.5t-17.5 121q0 63 18 113.5t49.5 85.5t76 53.5t96.5 18.5q51 0 94.5 -15t75.5 -48t50 -84.5t18 -123.5zM381 261q0 84 -23.5 120.5t-71.5 36.5q-46 0 -69.5 -36.5t-23.5 -120.5
q0 -85 21 -121t70 -36q48 0 72.5 35.5t24.5 121.5zM262 648q0 -31 -18 -52t-54 -21q-35 0 -53 21.5t-18 51.5t17.5 52.5t54.5 22.5q36 0 53.5 -22t17.5 -53zM455 648q0 -31 -18 -52t-54 -21q-35 0 -53 21.5t-18 51.5t17.5 52.5t54.5 22.5q36 0 53.5 -22t17.5 -53z" />
    <glyph glyph-name="otilde" unicode="&#xf5;" horiz-adv-x="572" 
d="M525 261q0 -66 -18.5 -116.5t-51 -85t-76.5 -52t-95 -17.5q-52 0 -96 16t-75 49.5t-48.5 84.5t-17.5 121q0 63 18 113.5t49.5 85.5t76 53.5t96.5 18.5q51 0 94.5 -15t75.5 -48t50 -84.5t18 -123.5zM381 261q0 84 -23.5 120.5t-71.5 36.5q-46 0 -69.5 -36.5t-23.5 -120.5
q0 -85 21 -121t70 -36q48 0 72.5 35.5t24.5 121.5zM475 719q-12 -48 -24 -76.5t-25.5 -43.5t-29.5 -19.5t-36 -4.5q-29 0 -55 13l-49 26q-8 5 -16.5 8t-15.5 3q-14 0 -19.5 -10t-13.5 -45q-20 0 -47 5.5t-50 14.5q11 48 23.5 76t26.5 43t31 19.5t38 4.5q13 0 26.5 -4
t24.5 -9l53 -28q7 -4 14.5 -6.5t15.5 -2.5q13 0 18 10t13 46q16 0 45 -5.5t52 -14.5z" />
    <glyph glyph-name="uacute" unicode="&#xfa;" horiz-adv-x="590" 
d="M375 0v45h-7q-34 -31 -67 -43t-68 -12q-31 0 -59 8.5t-49.5 28t-34 51t-12.5 76.5v364q30 4 66 6t69 2v-354q0 -32 17 -48t63 -16q45 0 82 19v391q30 4 66 6t69 2v-526h-135zM429 731q-13 -42 -37 -84t-53 -75q-28 0 -57 2t-53 6l52 151h148v0z" />
    <glyph glyph-name="ugrave" unicode="&#xf9;" horiz-adv-x="590" 
d="M375 0v45h-7q-34 -31 -67 -43t-68 -12q-31 0 -59 8.5t-49.5 28t-34 51t-12.5 76.5v364q30 4 66 6t69 2v-354q0 -32 17 -48t63 -16q45 0 82 19v391q30 4 66 6t69 2v-526h-135zM361 580q-24 -4 -53 -6t-57 -2q-29 33 -53 75t-37 84h148l52 -151v0z" />
    <glyph glyph-name="ucircumflex" unicode="&#xfb;" horiz-adv-x="590" 
d="M375 0v45h-7q-34 -31 -67 -43t-68 -12q-31 0 -59 8.5t-49.5 28t-34 51t-12.5 76.5v364q30 4 66 6t69 2v-354q0 -32 17 -48t63 -16q45 0 82 19v391q30 4 66 6t69 2v-526h-135zM473 580q-29 -4 -59.5 -6t-62.5 -2l-58 94l-56 -94q-29 0 -59.5 2t-60.5 5q18 40 39 78.5
t44 73.5h188q25 -36 46 -74t39 -77z" />
    <glyph glyph-name="udieresis" unicode="&#xfc;" horiz-adv-x="590" 
d="M375 0v45h-7q-34 -31 -67 -43t-68 -12q-31 0 -59 8.5t-49.5 28t-34 51t-12.5 76.5v364q30 4 66 6t69 2v-354q0 -32 17 -48t63 -16q45 0 82 19v391q30 4 66 6t69 2v-526h-135zM269 648q0 -31 -18 -52t-54 -21q-35 0 -53 21.5t-18 51.5t17.5 52.5t54.5 22.5q36 0 53.5 -22
t17.5 -53zM462 648q0 -31 -18 -52t-54 -21q-35 0 -53 21.5t-18 51.5t17.5 52.5t54.5 22.5q36 0 53.5 -22t17.5 -53z" />
    <glyph glyph-name="dagger" unicode="&#x2020;" horiz-adv-x="522" 
d="M329 245v-373q-32 -6 -66.5 -8.5t-69.5 -2.5v384h-156v130h156v170h136v-170h156v-130h-156z" />
    <glyph glyph-name="degree" unicode="&#xb0;" horiz-adv-x="324" 
d="M289 557q0 -57 -34.5 -93.5t-92.5 -36.5q-62 0 -94.5 35t-32.5 93q0 57 35 93t92 36q59 0 93 -34.5t34 -92.5zM219 557q0 29 -15.5 47t-41.5 18t-41 -18t-15 -47q0 -28 14 -47t42 -19t42.5 18.5t14.5 47.5z" />
    <glyph glyph-name="cent" unicode="&#xa2;" 
d="M456 96q-17 -9 -44.5 -15.5t-53.5 -9.5l3 -71h-115l3 73q-90 16 -140.5 78t-50.5 176q0 63 15.5 110.5t41.5 80.5t60.5 53t73.5 27l-3 76h115l-3 -73q24 -2 49 -6t42 -11q-3 -30 -10 -63.5t-15 -65.5q-24 10 -56 14.5t-56 4.5q-51 0 -80.5 -28.5t-29.5 -106.5
q0 -44 7.5 -71.5t22.5 -43t37.5 -21t52.5 -5.5q26 0 58 6.5t52 16.5q8 -31 13.5 -62t10.5 -63z" />
    <glyph glyph-name="sterling" unicode="&#xa3;" 
d="M492 125q0 -30 -3.5 -61.5t-9.5 -63.5h-397v113q83 16 83 116q0 21 -6.5 41t-16.5 40h-94v93h51q-6 18 -10 37.5t-4 42.5q0 43 16 79.5t46 63.5t74 42.5t100 15.5q34 0 68 -3t65 -11q0 -29 -3.5 -62t-10.5 -65q-10 3 -26.5 6.5t-35 5.5t-37 3.5t-33.5 1.5q-47 0 -64 -18
t-17 -65q0 -20 5.5 -38t13.5 -36h191q0 -24 -3 -47t-8 -46h-136q8 -18 12.5 -37.5t4.5 -40.5q0 -35 -17.5 -62.5t-40.5 -44.5h243v0z" />
    <glyph glyph-name="section" unicode="&#xa7;" horiz-adv-x="501" 
d="M471 299q0 -48 -28.5 -87.5t-73.5 -62.5q-26 13 -47.5 29t-42.5 39q29 11 45.5 26.5t16.5 35.5q0 23 -18.5 39.5t-46.5 30.5t-60.5 28t-60.5 34t-46.5 48t-18.5 69q0 35 15.5 63.5t42.5 49t64.5 32t81.5 11.5q23 0 57 -3t62 -10q-1 -12 -2.5 -27t-3.5 -31.5t-4.5 -32.5
t-5.5 -28q-13 3 -30 6.5t-35 5.5t-35.5 3.5t-32.5 1.5q-23 0 -33.5 -7t-10.5 -27q0 -15 18.5 -26.5t46.5 -24l60.5 -27t60.5 -35.5t46.5 -50.5t18.5 -72.5zM30 246q0 49 28.5 88.5t73.5 61.5q26 -13 47 -29t43 -38q-29 -11 -46 -26.5t-17 -36.5q0 -23 18.5 -39.5t46.5 -30.5
t61 -28t61 -34t46.5 -48t18.5 -69q0 -35 -15.5 -63.5t-43 -49t-64.5 -32t-81 -11.5q-24 0 -57.5 3t-61.5 11l2.5 26.5t3.5 31.5t4.5 32t5.5 28l29.5 -6.5t34.5 -5.5t36 -3.5t33 -1.5q23 0 33.5 7.5t10.5 27.5q0 15 -18.5 26.5t-46.5 23.5l-60.5 26.5t-60.5 35.5t-46.5 51
t-18.5 72z" />
    <glyph glyph-name="bullet" unicode="&#x2022;" horiz-adv-x="353" 
d="M291 274q0 -54 -33 -85.5t-82 -31.5q-50 0 -82 31.5t-32 85.5t32 87t82 33q49 0 82 -33t33 -87z" />
    <glyph glyph-name="paragraph" unicode="&#xb6;" 
d="M448 126q0 -50 -9.5 -88.5t-28.5 -69.5t-48.5 -56.5t-69.5 -50.5l-39 52q36 25 60 47.5t38 46.5t20 52t6 64v479q-6 2 -14.5 4t-18 3.5t-17.5 2.5t-13 1v-490q0 -27 -4.5 -49t-15 -41.5t-28.5 -37.5t-45 -36l-37 53q33 20 46 41.5t13 59.5v98h-25q-40 0 -75.5 11
t-61.5 37t-41.5 68.5t-15.5 104.5q0 65 19.5 112.5t53 78.5t77.5 46t93 15q43 0 91 -7t90 -21v-530v0z" />
    <glyph glyph-name="germandbls" unicode="&#xdf;" horiz-adv-x="574" 
d="M548 139q0 -39 -14.5 -67t-39 -46t-56.5 -27t-67 -9q-32 0 -65.5 6t-64.5 20q7 38 14 67.5t19 59.5q26 -16 48.5 -22t38.5 -6q41 0 41 35q0 20 -23 41l-51 46t-51 55.5t-23 69.5q0 35 17.5 63t38 52.5l38 46t17.5 42.5q0 32 -15.5 46t-51.5 14q-47 0 -65 -24t-18 -68
v-534h-135v535q0 49 16.5 87.5t46.5 65.5t71 41.5t90 14.5q99 0 154 -42t55 -115q0 -36 -18 -63.5t-39 -52l-39 -47.5t-18 -50q0 -15 11 -30t27.5 -31.5l36 -34.5t36 -39t27.5 -45.5t11 -54.5z" />
    <glyph glyph-name="registered" unicode="&#xae;" horiz-adv-x="725" 
d="M658 338q0 -72 -22 -130t-61.5 -99.5t-93.5 -64t-119 -22.5q-64 0 -118 22t-93.5 63.5t-61.5 100t-22 130.5q0 70 22 127.5t61 99t93.5 64t118.5 22.5q62 0 116 -22t94 -62.5t63 -98.5t23 -130zM610 335q0 61 -18.5 111t-51.5 86t-78.5 55.5t-99.5 19.5q-58 0 -104 -20
t-78 -56t-49 -86t-17 -110q0 -58 18 -107.5t50.5 -85.5t78 -56.5t101.5 -20.5t101.5 19.5t78 54.5t50.5 85t18 111zM513 149q-21 -4 -45.5 -5.5t-44.5 -1.5l-24 57q-14 30 -27 52t-24 33h-34v-139h-84v374q37 4 70.5 5.5t62.5 1.5q26 0 49 -6.5t40 -20t27 -35t10 -51.5
q0 -37 -20.5 -63t-47.5 -36q17 -15 30.5 -36t25.5 -45l36 -84v0zM403 406q0 50 -50 50h-20t-19 -2v-103h32q24 0 40.5 12t16.5 43z" />
    <glyph glyph-name="Eth" unicode="&#xd0;" horiz-adv-x="675" 
d="M625 351q0 -86 -22.5 -153t-63 -113t-96.5 -70t-124 -24q-28 0 -59.5 1t-63 2.5t-60.5 4.5t-50 6v281h-50v121h50v260q21 3 51.5 5.5t63 4.5t64 3t53.5 1q62 0 117.5 -18.5t97.5 -58.5t67 -102.5t25 -150.5zM466 339q0 59 -12 99.5t-32 65.5t-47.5 35.5t-59.5 10.5
q-17 0 -40.5 -0.5t-40.5 -2.5v-140h84q0 -31 -2.5 -61t-6.5 -60h-75v-161q15 -2 39 -2.5t41 -0.5q77 0 114.5 49.5t37.5 167.5z" />
    <glyph glyph-name="eth" unicode="&#xf0;" horiz-adv-x="562" 
d="M515 378q0 -199 -57.5 -293.5t-176.5 -94.5q-52 0 -95 12t-74 41.5t-48 77.5t-17 120q0 71 15.5 122.5t44 84.5t69 48.5t89.5 15.5q25 0 52 -3.5t50 -13.5q0 65 -27.5 93t-82.5 33l-36 -80q-21 1 -40.5 4t-37.5 10l28 62q-46 -8 -76 -19q0 29 2 64t6 61q27 10 61 14.5
t63 6.5l32 71q18 0 41 -4.5t37 -12.5l-27 -59q45 -7 82.5 -28.5t64.5 -63t42.5 -107.5t15.5 -162zM375 296v42t-1 40q-19 9 -43.5 13.5t-50.5 4.5q-21 0 -37.5 -7t-28 -24t-17.5 -45t-6 -71q0 -77 19 -109t71 -32q50 0 72 42t22 146z" />
    </font>
</defs>
</svg>
