<?xml version="1.0" standalone="no"?>
<!DOCTYPE svg PUBLIC "-//W3C//DTD SVG 1.1//EN" "http://www.w3.org/Graphics/SVG/1.1/DTD/svg11.dtd" >
<svg>
<metadata>
Created by FontForge 20090914 at Wed Jul 25 23:21:09 2012
 By www-data
Copyright (C) 2005 Emigre Inc.; Designed by Xavier Dupre
</metadata>
<defs>
<font id="VistaSansBook" horiz-adv-x="500" >
  <font-face 
    font-family="VistaSansBook"
    font-weight="500"
    font-stretch="normal"
    units-per-em="1000"
    panose-1="2 0 6 3 5 0 0 2 0 4"
    ascent="800"
    descent="-200"
    x-height="522"
    cap-height="674"
    bbox="-82 -217 1122 846"
    underline-thickness="20"
    underline-position="-123"
    unicode-range="U+0020-U+FB02"
  />
<missing-glyph 
 />
    <glyph glyph-name=".notdef" 
 />
    <glyph glyph-name=".null" horiz-adv-x="0" 
 />
    <glyph glyph-name="nonmarkingreturn" 
 />
    <glyph glyph-name="space" unicode=" " horiz-adv-x="204" 
 />
    <glyph glyph-name="parenleft" unicode="(" horiz-adv-x="264" 
d="M236 -164q-13 -5 -30 -8t-31 -3q-61 102 -91 220t-30 239q0 122 29.5 238t91.5 219q14 0 30.5 -3t30.5 -8q-25 -45 -45 -98t-33.5 -109.5t-21 -115.5t-7.5 -118t7.5 -120t21 -119.5t33.5 -113t45 -100.5z" />
    <glyph glyph-name="parenright" unicode=")" horiz-adv-x="264" 
d="M211 282q0 -122 -30 -238t-92 -219q-14 0 -30.5 3t-30.5 8q25 45 45 98t33.5 109.5t21 116t7.5 117.5q0 59 -7.5 120t-21 119.5t-33.5 113t-45 100.5q14 5 30.5 8t30.5 3q62 -102 92 -220t30 -239z" />
    <glyph glyph-name="asterisk" unicode="*" horiz-adv-x="427" 
d="M248 473l103 -117q-13 -14 -29 -28.5t-31 -25.5l-84 142l-79 -133q-17 8 -35.5 18.5t-34.5 22.5l111 122l-152 35q2 20 6.5 40t11.5 39l150 -67l-14 155q40 8 81 8l-18 -165l143 62q10 -17 18.5 -36.5t14.5 -37.5z" />
    <glyph glyph-name="plus" unicode="+" horiz-adv-x="496" 
d="M454 243h-174v-198h-63v198h-175v60h175v197h63v-197h174v-60z" />
    <glyph glyph-name="comma" unicode="," horiz-adv-x="214" 
d="M153 59q0 -59 -31.5 -116t-85.5 -116l-59 26q32 37 52 65t32 53t16.5 50.5t4.5 56.5v35h67q2 -10 3 -27t1 -27z" />
    <glyph glyph-name="hyphen" unicode="-" horiz-adv-x="250" 
d="M34 266v68h182v-68h-182z" />
    <glyph glyph-name="hyphen" unicode="&#xad;" horiz-adv-x="250" 
d="M34 266v68h182v-68h-182z" />
    <glyph glyph-name="period" unicode="." horiz-adv-x="214" 
d="M153 36q0 -23 -13 -35t-33 -12t-33 12t-13 35t13.5 36.5t33.5 13.5t32.5 -13.5t12.5 -36.5z" />
    <glyph glyph-name="slash" unicode="/" horiz-adv-x="370" 
d="M45 -114q-36 7 -61 21l309 777q13 0 31.5 -4t32.5 -9z" />
    <glyph glyph-name="zero" unicode="0" 
d="M457 273q0 -132 -53.5 -207.5t-152.5 -75.5q-94 0 -151 68.5t-57 214.5q0 70 15.5 122.5t43 88t66 53.5t83.5 18q98 0 152 -69t54 -213zM379 273q0 51 -6 90.5t-21 67.5t-39.5 42.5t-61.5 14.5q-69 0 -99.5 -55.5t-30.5 -159.5q0 -108 30 -162.5t100 -54.5q69 0 98.5 57
t29.5 160z" />
    <glyph glyph-name="one" unicode="1" 
d="M75 0v72h186v399l-171 -26q-5 15 -7.5 34t-2.5 33l182 33h74v-473h137q0 -16 -1 -35.5t-5 -36.5h-392z" />
    <glyph glyph-name="two" unicode="2" 
d="M451 72q0 -17 -1.5 -35.5t-5.5 -36.5h-370l-5 66q76 51 126.5 93.5t81 79.5t43 70t12.5 65q0 56 -29.5 82.5t-80.5 26.5q-18 0 -36.5 -2t-36.5 -6t-33 -8.5t-26 -10.5q-5 17 -9 36t-5 36q35 14 72.5 20.5t73.5 6.5q89 0 140.5 -43.5t51.5 -134.5q0 -72 -56 -148
t-179 -157h272z" />
    <glyph glyph-name="three" unicode="3" 
d="M426 64q0 -53 -18.5 -91.5t-50 -63t-72.5 -36.5t-87 -12q-37 0 -79 7.5t-73 21.5q2 20 5.5 39.5t8.5 33.5q32 -16 66.5 -22.5t76.5 -6.5q67 0 104 31.5t37 98.5t-35 95t-94 28h-104v71h94q35 0 58.5 9.5t37 26t19 39t5.5 48.5q0 49 -30.5 75t-87.5 26q-36 0 -69 -6.5
t-62 -17.5q-5 16 -8 36t-5 37q38 14 76 19t76 5q39 0 74 -9.5t61 -30t41 -52t15 -76.5q0 -59 -26 -98t-72 -58v-5q57 -17 87.5 -58.5t30.5 -103.5z" />
    <glyph glyph-name="four" unicode="4" 
d="M460 103q0 -17 -2.5 -35t-5.5 -35h-76v-162h-75v162h-254v72l52.5 112.5l61 122.5l62 117l55.5 98q14 -1 33.5 -5.5t32.5 -9.5l-226 -439h185v199h73v-197h84v0z" />
    <glyph glyph-name="five" unicode="5" 
d="M439 65q0 -48 -16 -86t-45 -64t-69.5 -40t-90.5 -14q-30 0 -70 6.5t-73 18.5q2 18 6 37t9 36q25 -11 60.5 -17t67.5 -6q75 0 108.5 31t33.5 101q0 127 -186 127q-28 0 -49.5 -0.5t-41.5 -2.5q2 43 5 90t7 93.5t9 90l9 79.5h316q0 -15 -1.5 -34.5t-5.5 -36.5h-249
l-18 -208q57 0 108.5 -9.5t90.5 -32.5t62 -61.5t23 -97.5z" />
    <glyph glyph-name="six" unicode="6" 
d="M447 222q0 -56 -14 -99.5t-39.5 -73t-61 -44.5t-78.5 -15q-49 0 -87 17t-63 54.5t-38 96.5t-13 143q0 194 64 288.5t184 94.5q28 0 60.5 -3.5t54.5 -10.5q-1 -15 -3.5 -35.5t-7.5 -37.5q-18 6 -47.5 10t-56.5 4q-81 0 -123.5 -59.5t-48.5 -195.5h4q25 38 59.5 54.5
t76.5 16.5q38 0 70.5 -11.5t56.5 -36.5t37.5 -64t13.5 -93zM370 221q0 40 -8.5 67t-24 43.5t-36.5 23.5t-45 7q-61 0 -91.5 -35t-30.5 -113q0 -74 29.5 -114.5t86.5 -40.5q59 0 89.5 37.5t30.5 124.5z" />
    <glyph glyph-name="seven" unicode="7" 
d="M447 477l-69 -143.5l-81 -160.5l-84.5 -162l-80.5 -147q-19 2 -36.5 5t-34.5 10l309 595h-305q-4 17 -5.5 35.5t-1.5 35.5h389v-68v0z" />
    <glyph glyph-name="eight" unicode="8" 
d="M444 181q0 -94 -54.5 -142.5t-146.5 -48.5q-39 0 -73 9t-59.5 30.5t-40.5 56.5t-15 87t28.5 98.5t88.5 77.5q-103 58 -103 158q0 44 13.5 77t37.5 55t57.5 33.5t73.5 11.5q81 0 129.5 -41t48.5 -126q0 -47 -27.5 -89.5t-81.5 -69.5q64 -31 94 -73t30 -104zM353 514
q0 48 -27.5 76.5t-78.5 28.5t-77.5 -30t-26.5 -72q0 -47 24.5 -83.5t86.5 -52.5q47 17 73 54t26 79zM366 181q0 54 -28 89.5t-98 55.5q-53 -17 -81 -58t-28 -90q0 -57 26.5 -90.5t89.5 -33.5q67 0 93 35t26 92z" />
    <glyph glyph-name="nine" unicode="9" 
d="M53 323q0 56 14 99.5t39.5 73t61 44.5t78.5 15q50 0 87.5 -17t62.5 -54.5t38 -96.5t13 -143q0 -194 -64 -288.5t-184 -94.5q-28 0 -60.5 3.5t-54.5 10.5q1 15 3.5 35.5t7.5 37.5q18 -6 47.5 -10t56.5 -4q81 0 123.5 59.5t48.5 195.5h-4q-25 -38 -59.5 -54.5t-76.5 -16.5
q-38 0 -70.5 11.5t-56.5 36.5t-37.5 64t-13.5 93zM130 324q0 -40 8.5 -67t24 -43.5t36.5 -23.5t45 -7q61 0 91.5 35t30.5 113q0 74 -29.5 114.5t-86.5 40.5q-58 0 -89 -37.5t-31 -124.5z" />
    <glyph glyph-name="colon" unicode=":" horiz-adv-x="214" 
d="M153 36q0 -23 -13 -35t-33 -12q-21 0 -33.5 12t-12.5 35t13 36.5t33 13.5t33 -13.5t13 -36.5zM153 436q0 -23 -13 -35.5t-33 -12.5q-21 0 -33.5 12.5t-12.5 35.5t13 36t33 13t33 -13t13 -36z" />
    <glyph glyph-name="semicolon" unicode=";" horiz-adv-x="214" 
d="M151 436q0 -23 -13 -35.5t-33 -12.5t-32.5 12.5t-12.5 35.5t13 36t33 13t32.5 -13t12.5 -36zM153 59q0 -59 -31.5 -116t-85.5 -116l-59 26q32 37 52 65t32 53t16.5 50.5t4.5 56.5v35h67q2 -10 3 -27t1 -27z" />
    <glyph glyph-name="less" unicode="&#x3c;" horiz-adv-x="393" 
d="M251 45l-205 229l205 226h79v-8l-201 -214l201 -227v-6h-79z" />
    <glyph glyph-name="equal" unicode="=" horiz-adv-x="490" 
d="M65 342v59h360v-59h-360zM65 152v59h360v-59h-360z" />
    <glyph glyph-name="greater" unicode="&#x3e;" horiz-adv-x="393" 
d="M125 45h-79v8l201 214l-201 227v6h79l205 -229z" />
    <glyph glyph-name="question" unicode="?" horiz-adv-x="368" 
d="M347 507q0 -68 -46 -122t-153 -92v-104q-32 -8 -64 -8q-5 33 -9 76t-4 78q95 28 146.5 68t51.5 100q0 57 -31.5 83.5t-96.5 26.5q-27 0 -56.5 -3t-51.5 -9q-3 16 -5 35t-2 37q29 5 59 8t62 3q41 0 77.5 -10.5t63.5 -32t43 -55t16 -79.5zM161 36q0 -23 -13.5 -35
t-33.5 -12t-33 12t-13 35t13.5 36.5t33.5 13.5t33 -13.5t13 -36.5z" />
    <glyph glyph-name="at" unicode="@" horiz-adv-x="844" 
d="M780 349q0 -60 -11 -108t-32 -82.5t-50.5 -53t-65.5 -18.5t-63 10t-41 42h-2q-31 -29 -65 -40.5t-67 -11.5q-58 0 -94 30.5t-36 88.5q0 66 38.5 95.5t107.5 32.5l110 4v110q-15 8 -42 13.5t-53 5.5q-29 0 -58.5 -5t-46.5 -13q-4 11 -6.5 28.5t-2.5 31.5q29 8 56 12t61 4
q42 0 84 -9.5t71 -29.5v-295q0 -26 13.5 -39t36.5 -13q18 0 35.5 9.5t31.5 33t22.5 64t8.5 103.5q0 72 -21 124.5t-59 87t-91 51t-118 16.5q-144 0 -226 -83t-82 -247q0 -153 68 -232t214 -79q15 0 34 2t38 5.5t36.5 8t29.5 9.5q5 -14 7.5 -30.5t2.5 -28.5
q-14 -5 -33.5 -9.5t-40 -7.5t-40.5 -4.5t-36 -1.5q-80 0 -143 23t-106.5 69t-66.5 115t-23 161q0 102 29.5 175.5t80 120t117.5 68.5t143 22q75 0 138.5 -20.5t109.5 -62t72 -104.5t26 -148zM509 288l-108 -5q-47 -2 -64 -18.5t-17 -54.5q0 -68 76 -68q29 0 59.5 10.5
t53.5 30.5v105z" />
    <glyph glyph-name="A" unicode="A" horiz-adv-x="568" 
d="M554 6q-18 -5 -39.5 -7.5t-41.5 -3.5l-72 215h-242l-70 -215q-18 1 -38 3.5t-37 7.5q50 162 107 330l120 338h87l117 -335zM292 549q-3 11 -5 21t-3 24h-6q-1 -14 -2.5 -24t-4.5 -21l-89 -270h198z" />
    <glyph glyph-name="B" unicode="B" horiz-adv-x="584" 
d="M527 190q0 -54 -18.5 -91.5t-51 -61.5t-75.5 -35t-91 -11q-35 0 -85 3.5t-103 10.5v662q43 6 91 10t89 4q50 0 90.5 -10t69 -31t44 -54t15.5 -80q0 -56 -28.5 -94t-68.5 -56v-6q57 -18 89.5 -57.5t32.5 -102.5zM420 501q0 55 -33.5 84.5t-97.5 29.5q-23 0 -48 -1.5
t-57 -4.5v-232h116q56 0 88 33t32 91zM440 194q0 57 -35 88.5t-98 31.5h-123v-248q32 -4 60 -5.5t48 -1.5q73 0 110.5 34.5t37.5 100.5z" />
    <glyph glyph-name="C" unicode="C" horiz-adv-x="571" 
d="M531 34q-38 -23 -86 -33.5t-93 -10.5q-144 0 -216 88t-72 260q0 90 21 155.5t59 108t91 62.5t117 20q44 0 90 -8.5t75 -24.5q-2 -18 -7 -38t-11 -38q-31 17 -68.5 25.5t-77.5 8.5q-48 0 -85.5 -14t-62.5 -46t-38 -84.5t-13 -129.5q0 -140 47.5 -205t150.5 -65
q42 0 83.5 11t76.5 34q6 -18 11 -37t8 -39z" />
    <glyph glyph-name="D" unicode="D" horiz-adv-x="685" 
d="M621 351q0 -90 -22 -157.5t-61 -112.5t-93 -67.5t-118 -22.5q-23 0 -51 1t-57.5 2.5t-59 4t-56.5 6.5v662q21 3 50.5 5.5t60 4.5t60.5 3t52 1q63 0 117 -18.5t93.5 -58.5t62 -102.5t22.5 -150.5zM530 341q0 81 -18 132.5t-47 81.5t-66.5 41t-75.5 11q-29 0 -65.5 -1
t-70.5 -5v-529q14 -1 31.5 -2.5t35.5 -2.5t35.5 -1.5t32.5 -0.5q103 0 155.5 68t52.5 208z" />
    <glyph glyph-name="E" unicode="E" horiz-adv-x="548" 
d="M491 74q0 -17 -2 -36.5t-5 -37.5h-381v674h371q0 -17 -1.5 -36.5t-4.5 -37.5h-281v-210h214v-74h-214v-242h304v0z" />
    <glyph glyph-name="F" unicode="F" horiz-adv-x="525" 
d="M480 674q0 -18 -2 -37t-5 -37h-286v-225h234v-74h-234v-301h-84v674h377v0z" />
    <glyph glyph-name="G" unicode="G" horiz-adv-x="647" 
d="M559 34q-18 -9 -40.5 -17t-48 -14t-52.5 -9.5t-53 -3.5q-154 0 -227.5 88t-73.5 260q0 91 22 156.5t62 107.5t96.5 62t126.5 20q45 0 91.5 -7.5t81.5 -24.5q-2 -17 -7.5 -38.5t-10.5 -38.5q-29 15 -71.5 24.5t-80.5 9.5q-52 0 -92.5 -12.5t-69 -44t-43.5 -84.5t-15 -134
q0 -78 14.5 -130t42 -83t67.5 -43.5t91 -12.5q22 0 52.5 4.5t53.5 15.5v182h-135q-4 16 -5.5 36t-1.5 37h226v-306v0z" />
    <glyph glyph-name="H" unicode="H" horiz-adv-x="685" 
d="M498 0v319h-311v-319h-84v674h84v-280h311v280h84v-674h-84z" />
    <glyph glyph-name="I" unicode="I" horiz-adv-x="290" 
d="M103 0v674h84v-674h-84z" />
    <glyph glyph-name="J" unicode="J" horiz-adv-x="303" 
d="M199 49q0 -43 -9.5 -79.5t-30.5 -63.5t-55 -43.5t-82 -19.5q-5 18 -8 39t-3 41q56 2 80 29t24 88v634h84v-625v0z" />
    <glyph glyph-name="K" unicode="K" horiz-adv-x="617" 
d="M328 388l64.5 -90l61 -90.5l62 -96l65.5 -106.5q-18 -5 -41.5 -7.5t-43.5 -2.5l-221 334l-89 -102v-227h-83v674h83v-335h4l290 340q17 0 44 -3t44 -8z" />
    <glyph glyph-name="L" unicode="L" horiz-adv-x="498" 
d="M468 75q0 -35 -8 -75h-357v674h84v-599h281v0z" />
    <glyph glyph-name="M" unicode="M" horiz-adv-x="845" 
d="M761 4q-18 -4 -39.5 -5.5t-39.5 -1.5l-42 506q-1 11 -1 28v33h-6q-2 -17 -5 -33.5t-7 -27.5l-162 -503h-77l-161 503q-4 11 -6.5 27.5t-4.5 33.5h-6q0 -16 -0.5 -34t-1.5 -27l-47 -506q-17 0 -37.5 1.5t-34.5 5.5q13 168 29.5 333.5t36.5 336.5h94l163 -506q5 -14 9 -34
t6 -40h7q2 20 5 40t8 35l163 505h96q19 -170 34.5 -337t26.5 -333z" />
    <glyph glyph-name="N" unicode="N" horiz-adv-x="687" 
d="M584 3q-16 -3 -37 -5.5t-38 -2.5l-295 495q-3 6 -8 15t-9.5 19l-9 20.5t-7.5 18.5l-6 -1l4 -39.5t2 -35.5v-487h-77v667q20 5 44.5 7t42.5 2l283 -476q10 -16 19 -35.5t15 -36.5l6 1q-2 15 -3.5 37.5t-1.5 37.5v470h76v-671z" />
    <glyph glyph-name="O" unicode="O" horiz-adv-x="676" 
d="M612 337q0 -88 -19.5 -153.5t-55 -108.5t-86 -64t-112.5 -21q-131 0 -203 84t-72 259q0 174 72.5 262.5t202.5 88.5q131 0 202 -85t71 -262zM522 337q0 77 -12 129t-35 84.5t-57.5 46.5t-79.5 14t-79.5 -14t-58 -46t-35 -84.5t-11.5 -129.5q0 -145 43.5 -209.5
t141.5 -64.5q48 0 82.5 15t57 48t33 85t10.5 126z" />
    <glyph glyph-name="P" unicode="P" horiz-adv-x="568" 
d="M511 472q0 -57 -19 -98t-51 -67.5t-73 -39t-86 -12.5h-96v-255h-83v667q27 3 50.5 6t45 4.5t43 2.5t45.5 1q46 0 86.5 -11.5t71 -37t48.5 -65t18 -95.5zM426 472q0 39 -11 66t-30.5 43.5t-45 24t-54.5 7.5q-37 0 -99 -6v-282h84q70 0 113 34t43 113z" />
    <glyph glyph-name="Q" unicode="Q" horiz-adv-x="676" 
d="M612 337q0 -164 -64.5 -248t-175.5 -93q2 -59 29.5 -86.5t84.5 -27.5q20 0 46.5 4.5t41.5 10.5q9 -33 9 -73q-26 -8 -53 -11.5t-50 -3.5q-40 0 -73 10t-57.5 32t-38 57.5t-14.5 86.5q-115 12 -174 95.5t-59 242.5q0 173 72.5 262t202.5 89q131 0 202 -85t71 -262z
M522 337q0 77 -12 129t-35 84.5t-57.5 46.5t-79.5 14t-79.5 -14t-58 -46t-35 -84.5t-11.5 -129.5q0 -144 43.5 -209t141.5 -65q48 0 82.5 15t57 48t33 85t10.5 126z" />
    <glyph glyph-name="R" unicode="R" horiz-adv-x="592" 
d="M558 7q-20 -6 -44 -8.5t-45 -3.5l-58 113q-29 58 -59.5 103.5t-58.5 71.5h-108v-283h-82v667q54 7 98.5 10.5t86.5 3.5q44 0 83.5 -10t69 -32.5t47 -59t17.5 -90.5q0 -70 -38.5 -117.5t-101.5 -64.5q27 -22 57.5 -62t59.5 -94l76 -144v0zM420 486q0 69 -36 97.5t-99 28.5
q-23 0 -51 -2t-49 -4v-256h89q72 0 109 33.5t37 102.5z" />
    <glyph glyph-name="S" unicode="S" horiz-adv-x="519" 
d="M464 178q0 -42 -15 -76.5t-43 -59.5t-68.5 -38.5t-92.5 -13.5q-42 0 -90.5 7t-88.5 24q2 18 8 39t11 36q42 -18 83.5 -25.5t84.5 -7.5q63 0 95 27.5t32 80.5q0 38 -23.5 64t-58 46.5t-75.5 39t-75.5 42.5t-58 56.5t-23.5 80.5q0 45 16.5 79t46.5 57.5t71.5 35.5t90.5 12
q32 0 71.5 -3.5t69.5 -11.5q0 -14 -4 -36.5t-9 -39.5q-31 8 -68.5 13t-69.5 5q-38 0 -63 -7.5t-40 -21t-21 -32.5t-6 -42q0 -34 23 -57t58 -42t75.5 -38t75.5 -44.5t58 -61t23 -87.5z" />
    <glyph glyph-name="T" unicode="T" horiz-adv-x="491" 
d="M469 674q0 -38 -9 -74h-175v-600h-84v600h-178v74h446v0z" />
    <glyph glyph-name="U" unicode="U" horiz-adv-x="676" 
d="M574 266q0 -65 -12 -116t-39.5 -86.5t-73 -54.5t-112.5 -19q-56 0 -100 12.5t-74 44t-45.5 84.5t-15.5 135v408h84v-424q0 -50 7 -85t24.5 -57t47 -32t74.5 -10q80 0 118 42.5t38 141.5v424h79v-408v0z" />
    <glyph glyph-name="V" unicode="V" horiz-adv-x="581" 
d="M550 669q-48 -171 -102.5 -339.5t-114.5 -329.5h-87q-58 161 -112.5 330t-102.5 339q18 4 41.5 5.5t39.5 1.5l165 -535q4 -13 7 -27t5 -28h6q5 31 12 55l167 535q17 0 38.5 -1.5t37.5 -5.5z" />
    <glyph glyph-name="W" unicode="W" horiz-adv-x="904" 
d="M848 669q-16 -81 -34.5 -165.5l-38.5 -170l-41.5 -169.5l-42.5 -164h-88l-138 494q-8 28 -11 71h-7q-2 -20 -5.5 -39t-7.5 -33l-139 -493h-87l-41.5 162l-40 169.5l-37.5 171t-33 166.5q17 5 39.5 6t39.5 1l110 -510q3 -15 5 -32l4 -34h6q2 17 5.5 34t7.5 31l144 509h76
l137 -509q5 -15 8 -32t5 -33h6q2 16 4.5 33.5t5.5 31.5l116 512q16 0 37 -1.5t36 -6.5z" />
    <glyph glyph-name="X" unicode="X" horiz-adv-x="589" 
d="M561 5q-20 -5 -45 -7.5t-46 -2.5l-153 260q-7 11 -11.5 21l-9.5 21h-5l-9 -20.5t-11 -21.5l-155 -260q-19 0 -45 2.5t-43 7.5l212 342l-201 322q22 4 48.5 5.5t46.5 1.5l146 -241q6 -11 10 -20.5t7 -17.5h6q3 9 7 18.5t12 20.5l140 240q19 0 44.5 -1.5t44.5 -5.5
l-196 -319l206 -345v0z" />
    <glyph glyph-name="Y" unicode="Y" horiz-adv-x="550" 
d="M526 669l-52 -108.5l-50 -101.5l-51.5 -99.5l-56.5 -102.5v-257h-84v257q-60 103 -111 206t-97 206q18 4 43.5 5.5t43.5 1.5l143 -294q5 -11 10 -23.5t10 -26.5h6l9.5 26.5t10.5 25.5l144 292q19 0 41 -1.5t41 -5.5z" />
    <glyph glyph-name="Z" unicode="Z" horiz-adv-x="550" 
d="M505 74q0 -17 -2 -37.5t-5 -36.5h-446l-7 67l357 533h-337q-3 18 -4.5 37.5t-1.5 36.5h434l6 -67l-356 -533h362v0z" />
    <glyph glyph-name="bracketleft" unicode="[" horiz-adv-x="349" 
d="M108 -175v910h189q0 -16 -1.5 -34.5t-5.5 -35.5h-107v-770h107q4 -17 5.5 -36t1.5 -34h-189z" />
    <glyph glyph-name="backslash" unicode="\" horiz-adv-x="370" 
d="M386 -93q-14 -8 -28.5 -12.5t-32.5 -8.5l-313 785q14 5 32.5 9t32.5 4z" />
    <glyph glyph-name="bracketright" unicode="]" horiz-adv-x="349" 
d="M240 735v-910h-189q0 16 1.5 34.5t6.5 35.5h106v770h-106q-5 17 -6.5 36t-1.5 34h189z" />
    <glyph glyph-name="asciicircum" unicode="^" horiz-adv-x="492" 
d="M424 364q-14 -4 -33 -5.5t-36 -1.5l-108 265l-110 -265q-15 0 -35 1.5t-34 4.5q13 36 30 79l35.5 86l36.5 81.5t32 64.5h91q13 -25 30 -63.5l35 -81.5l35.5 -86.5z" />
    <glyph glyph-name="underscore" unicode="_" 
d="M0 -139v61h516q0 -31 -8 -61h-508z" />
    <glyph glyph-name="grave" unicode="`" 
d="M329 579q-12 -4 -28 -5.5t-30 -1.5q-32 37 -58.5 79t-40.5 80h79l78 -152v0z" />
    <glyph glyph-name="a" unicode="a" horiz-adv-x="531" 
d="M510 44q0 -29 -17 -41.5t-44 -12.5q-32 0 -56.5 11t-37.5 43h-3q-38 -30 -74 -42t-75 -12q-67 0 -109 34t-42 106q0 83 46.5 117.5t139.5 39.5l110 5v147q-18 11 -49.5 17t-62.5 6q-33 0 -67 -6t-56 -16q-4 14 -6.5 34.5t-3.5 37.5q34 10 65.5 15t69.5 5q25 0 51 -3
t50.5 -9t46 -15t37.5 -21v-384q0 -18 6 -26t23 -8h58v-22zM348 235l-113 -4q-59 -2 -81 -24t-22 -71q0 -43 20 -62t65 -19q34 0 69.5 12t61.5 31v137z" />
    <glyph glyph-name="b" unicode="b" horiz-adv-x="575" 
d="M512 278q0 -147 -61.5 -217.5t-171.5 -70.5q-51 0 -94.5 12.5t-83.5 41.5v693q15 3 38 5t40 2v-267h4q36 31 69 43t75 12q40 0 74 -13.5t58.5 -43.5t38.5 -78.5t14 -118.5zM429 269q0 57 -8 94.5t-24 59t-38.5 30.5t-51.5 9q-68 0 -128 -46v-331q20 -14 46 -20t52 -6
q36 0 64.5 10t48 34t29.5 64.5t10 101.5z" />
    <glyph glyph-name="c" unicode="c" horiz-adv-x="475" 
d="M429 21q-13 -8 -31 -14t-36.5 -9.5t-36.5 -5.5t-32 -2q-230 0 -230 262q0 75 17.5 128.5t47 87t69 49t84.5 15.5q30 0 68.5 -5.5t66.5 -16.5q-2 -17 -6.5 -37t-9.5 -37q-28 12 -57 17t-58 5q-32 0 -57.5 -9.5t-43.5 -31.5t-28 -58t-10 -89q0 -61 9 -100.5t27.5 -63
t46.5 -33t65 -9.5q30 0 62 7.5t55 21.5q6 -16 11 -35t7 -37z" />
    <glyph glyph-name="d" unicode="d" horiz-adv-x="575" 
d="M397 440q-21 11 -50 17t-53 6q-35 0 -62.5 -9.5t-46.5 -33.5t-29 -64t-10 -101q0 -58 8 -95.5t23.5 -59.5t38.5 -31t53 -9q32 0 63.5 9t64.5 31v340zM397 0v44h-4q-35 -30 -70 -42t-77 -12q-41 0 -74.5 14.5t-57.5 45t-37.5 79t-13.5 116.5q0 77 16.5 131.5t46.5 89
t72.5 50.5t94.5 16q25 0 53 -5t51 -14v224q15 3 37.5 5t39.5 2v-744h-77z" />
    <glyph glyph-name="e" unicode="e" horiz-adv-x="521" 
d="M462 325q0 -17 -0.5 -36.5t-2.5 -37.5h-312v-8q0 -45 7.5 -78.5t25 -56t47 -34t73.5 -11.5q35 0 71.5 9.5t59.5 23.5q7 -15 12.5 -34.5t8.5 -36.5q-29 -17 -73 -26t-82 -9q-115 0 -174.5 65t-59.5 199q0 74 16 126.5t44.5 86t66.5 49.5t83 16q92 0 140.5 -53.5
t48.5 -153.5zM271 470q-56 0 -88.5 -38t-34.5 -126h235q1 7 1 17v16q0 70 -29.5 100.5t-83.5 30.5z" />
    <glyph glyph-name="f" unicode="f" horiz-adv-x="353" 
d="M321 740q0 -17 -1.5 -35.5t-4.5 -35.5q-8 2 -21.5 2.5t-24.5 0.5q-36 0 -51 -18.5t-15 -59.5v-72h116q0 -34 -6 -67h-110v-455h-78v455h-64v67h64v65q0 38 12.5 67.5t33.5 49.5t48 30t55 10q11 0 23.5 -1t23.5 -3z" />
    <glyph glyph-name="g" unicode="g" horiz-adv-x="539" 
d="M493 -37q0 -81 -56 -130t-169 -49q-58 0 -97.5 11.5t-63 32t-33.5 48t-10 60.5q0 32 11.5 58.5t39.5 55.5q-21 33 -28 69q7 25 22.5 58t33.5 55q-29 20 -45 53t-16 74q0 77 47 125t131 48q20 0 41 -3t38 -7h150q0 -14 -1.5 -28.5t-5.5 -28.5l-73 -5l-1 -3q32 -36 32 -95
q0 -42 -13.5 -73.5t-37 -52t-55 -30.5t-67.5 -10q-20 0 -40 3t-33 8q-19 -23 -26.5 -43t-7.5 -31q0 -18 7.5 -25.5t22.5 -7.5h162q65 0 103 -30.5t38 -106.5zM419 -44q0 44 -16.5 58t-52.5 14h-188q-16 -16 -21.5 -37.5t-5.5 -37.5q0 -58 30.5 -81t104.5 -23q71 0 110 25
t39 82zM366 365q0 60 -28 85t-77 25q-103 0 -103 -110q0 -57 26.5 -83t76.5 -26t77.5 24.5t27.5 84.5z" />
    <glyph glyph-name="h" unicode="h" horiz-adv-x="584" 
d="M411 0v373q0 41 -21 64.5t-71 23.5q-40 0 -73.5 -11t-66.5 -34v-416h-78v737q15 3 38 5t40 2v-271h4q38 32 75.5 45.5t82.5 13.5q31 0 57.5 -8t46.5 -26.5t31.5 -48.5t11.5 -74v-375h-77z" />
    <glyph glyph-name="i" unicode="i" horiz-adv-x="279" 
d="M187 669q0 -21 -12 -35t-36 -14q-23 0 -34.5 14.5t-11.5 34.5t12 35t35 15t35 -15t12 -35zM101 0v522h78v-522h-78z" />
    <glyph glyph-name="j" unicode="j" horiz-adv-x="281" 
d="M181 -33q0 -78 -39.5 -127t-120.5 -56q-5 15 -9.5 35.5t-5.5 36.5q54 3 75.5 30t21.5 78v558h78v-555v0zM189 669q0 -21 -12 -35t-36 -14q-23 0 -34.5 14.5t-11.5 34.5t12 35t35 15t35 -15t12 -35z" />
    <glyph glyph-name="k" unicode="k" horiz-adv-x="512" 
d="M486 4q-14 -4 -37.5 -6t-43.5 -2l-155 259l-71 -81v-174h-78v737q15 3 38 5t40 2v-464h4l217 249q20 -2 43 -5.5t39 -8.5l-181 -202l48 -75.5l43.5 -71.5l44 -75.5z" />
    <glyph glyph-name="l" unicode="l" horiz-adv-x="280" 
d="M101 0v737q15 3 38 5t40 2v-744h-78z" />
    <glyph glyph-name="m" unicode="m" horiz-adv-x="852" 
d="M678 0v373q0 40 -20 64t-68 24q-39 0 -66.5 -12t-56.5 -35v-414h-78v373q0 40 -20.5 64t-68.5 24q-33 0 -62.5 -11.5t-58.5 -33.5v-416h-78v518q15 3 38 4.5t40 1.5v-51h4q35 32 66.5 45.5t72.5 13.5q40 0 73 -16t51 -55q42 38 79.5 54.5t82.5 16.5q30 0 57 -8t47.5 -26
t32 -48t11.5 -75v-375h-78z" />
    <glyph glyph-name="n" unicode="n" horiz-adv-x="584" 
d="M411 0v373q0 40 -20.5 64t-71.5 24q-42 0 -75 -11t-65 -34v-416h-78v518q15 3 38 4.5t40 1.5v-51h4q38 33 76.5 46t81.5 13q30 0 56.5 -7.5t46.5 -26t32 -48.5t12 -75v-375h-77z" />
    <glyph glyph-name="o" unicode="o" horiz-adv-x="568" 
d="M505 261q0 -69 -17 -120t-47 -84.5t-71 -50t-89 -16.5q-49 0 -89.5 15.5t-69 48t-44 84t-15.5 123.5q0 65 16.5 115.5t45.5 85t70 52.5t90 18q47 0 87.5 -14.5t70 -46.5t46 -84t16.5 -126zM422 261q0 57 -9.5 96t-27.5 63t-43 34t-57 10q-30 0 -55 -9t-43.5 -32.5
t-29 -62.5t-10.5 -99q0 -58 9 -97t26.5 -62.5t42.5 -33.5t57 -10t58 10t44 33t28 62.5t10 97.5z" />
    <glyph glyph-name="p" unicode="p" horiz-adv-x="575" 
d="M512 277q0 -151 -61 -219t-168 -68q-52 0 -104 19v-215h-78v724q15 3 38 4.5t40 1.5v-47h4q37 32 72 43.5t74 11.5q41 0 74.5 -14.5t57.5 -45t37.5 -79t13.5 -116.5zM429 268q0 59 -8.5 96.5t-24.5 59.5t-38.5 30t-51.5 8q-34 0 -66 -10.5t-61 -30.5v-339
q24 -12 51 -17.5t51 -5.5q38 0 66 11t46 36t27 65t9 97z" />
    <glyph glyph-name="q" unicode="q" horiz-adv-x="575" 
d="M397 -206v250h-4q-35 -29 -71 -41.5t-76 -12.5t-74 14.5t-58 45t-37.5 79t-13.5 116.5q0 150 62 218.5t170 68.5q45 0 92 -10t87 -32v-696h-77zM397 442q-19 9 -47.5 15t-54.5 6q-36 0 -64 -10.5t-46.5 -34.5t-28.5 -64t-10 -99q0 -58 8.5 -96t24 -60t38.5 -30.5t52 -8.5
q64 0 128 40v342z" />
    <glyph glyph-name="r" unicode="r" horiz-adv-x="380" 
d="M352 527q0 -19 -2.5 -40.5t-5.5 -40.5q-18 5 -45 5t-55.5 -9.5t-64.5 -47.5v-394h-78v518q15 3 38 4.5t40 1.5v-66h4q22 26 40 40.5t33.5 22t29 9.5t25.5 2q8 0 20 -1t21 -4z" />
    <glyph glyph-name="s" unicode="s" horiz-adv-x="449" 
d="M392 142q0 -39 -15 -68t-41 -47.5t-60 -27.5t-72 -9t-78 7.5t-71 24.5l9.5 35.5t11.5 34.5q31 -16 69 -23.5t75 -7.5q49 0 69.5 19.5t20.5 55.5q0 28 -18 46t-45.5 31.5t-59 26t-59 29.5t-45.5 42.5t-18 64.5q0 38 15 67.5t40.5 49t60 29.5t73.5 10q24 0 57.5 -3.5
t62.5 -11.5q0 -16 -3.5 -36t-8.5 -37q-27 10 -62 14.5t-67 4.5q-43 0 -66 -18.5t-23 -59.5q0 -24 18.5 -39.5t46 -28t59.5 -25.5t59.5 -32t46 -47t18.5 -71z" />
    <glyph glyph-name="t" unicode="t" horiz-adv-x="384" 
d="M356 9q-20 -9 -46 -14t-47 -5q-78 0 -110.5 40t-32.5 124v301h-64v67h64v114q14 5 37 8.5t40 4.5v-127h131q0 -16 -1.5 -33.5t-3.5 -33.5h-126v-307q0 -50 16 -67.5t55 -17.5q18 0 39.5 4t36.5 12q5 -15 8 -34t4 -36z" />
    <glyph glyph-name="u" unicode="u" horiz-adv-x="582" 
d="M403 0v45h-4q-38 -28 -75.5 -41.5t-81.5 -13.5q-29 0 -55.5 7.5t-46.5 26t-31.5 48.5t-11.5 75v372q16 2 38 4t39 2v-375q0 -41 20.5 -65t71.5 -24q41 0 74 11t63 30v417q15 2 38 4t40 2v-525h-78z" />
    <glyph glyph-name="v" unicode="v" horiz-adv-x="498" 
d="M469 518q-39 -134 -84 -261.5t-96 -256.5h-82q-24 60 -47.5 125l-46.5 131l-44.5 132.5t-39.5 129.5q15 3 37 4.5t39 1.5l130 -385q5 -14 8.5 -29t5.5 -32h4q3 18 6.5 33t8.5 30l127 383q18 0 38 -1.5t36 -4.5z" />
    <glyph glyph-name="w" unicode="w" horiz-adv-x="788" 
d="M735 518q-25 -134 -56.5 -261.5t-72.5 -256.5h-78l-120 369q-10 29 -14 65h-5q-4 -35 -14 -66l-118 -368h-78q-38 122 -70 254.5t-56 263.5q15 3 36 4.5t38 1.5l84 -370q8 -33 11 -70h4q3 17 7 36t9 36l116 366h74l118 -367q5 -15 9 -33t7 -38h5q2 20 4.5 36.5t7.5 35.5
l82 368q17 0 36 -1.5t34 -4.5z" />
    <glyph glyph-name="x" unicode="x" horiz-adv-x="503" 
d="M474 4q-18 -4 -44 -6t-45 -2l-118 191q-6 10 -9.5 18t-7.5 19h-4q-4 -11 -8 -19.5t-10 -18.5l-115 -190q-19 0 -43 2t-41 6l172 272l-161 242q19 4 43.5 5.5t44.5 1.5l107 -174q10 -16 18 -38h4q4 11 8.5 21t9.5 18l106 173q19 0 42 -1.5t42 -5.5l-164 -251l173 -263v0z
" />
    <glyph glyph-name="y" unicode="y" horiz-adv-x="510" 
d="M305 9q-41 -119 -90.5 -172t-118.5 -53q-18 0 -42 3.5t-47 15.5q2 19 6.5 38.5t10.5 33.5q15 -8 36 -12t41 -4q31 0 52.5 17t37.5 54l30 70q-24 56 -48.5 120l-48 131.5l-45 135t-38.5 131.5q16 3 37.5 5t38.5 2l125 -384q5 -14 9.5 -30t6.5 -32h4q6 32 17 63l126 383
q15 0 37.5 -1.5t38.5 -5.5z" />
    <glyph glyph-name="z" unicode="z" horiz-adv-x="469" 
d="M46 0l-8 63l286 392h-261q-2 17 -3.5 35t-1.5 32h349l8 -63l-286 -392h285q5 -17 7.5 -34t2.5 -33h-378z" />
    <glyph glyph-name="braceleft" unicode="{" horiz-adv-x="328" 
d="M281 -109q0 -17 -2 -37t-5 -34q-115 0 -166.5 32t-51.5 94q0 33 18 65t39 62l39 57.5t18 51.5q0 15 -5 27t-19 19.5t-37.5 11.5t-61.5 4v74q38 0 61.5 4t37.5 11.5t19 19.5t5 27q0 24 -18 51.5l-39 57.5t-39 61.5t-18 64.5q0 60 59 92.5t160 32.5q2 -14 4 -33.5t2 -36.5
q-75 0 -110.5 -14t-35.5 -49q0 -21 17.5 -48l38 -56.5t38 -60t17.5 -58.5q0 -37 -20.5 -61.5t-79.5 -38.5v-5q29 -6 48.5 -15.5t31 -22t16 -28.5t4.5 -35q0 -28 -17.5 -58.5t-38 -60.5l-38 -57.5t-17.5 -48.5q0 -34 34 -48t112 -14z" />
    <glyph glyph-name="bar" unicode="|" horiz-adv-x="260" 
d="M98 -206v938h64v-938h-64z" />
    <glyph glyph-name="braceright" unicode="}" horiz-adv-x="328" 
d="M281 243q-37 0 -61 -4t-38 -11.5t-19 -19.5t-5 -27q0 -24 18 -51.5l39 -57.5t39 -61.5t18 -64.5q0 -60 -59 -92.5t-160 -32.5q-3 14 -4.5 33.5t-1.5 36.5q75 0 110.5 14t35.5 49q0 21 -17.5 48l-38 56.5t-38 60t-17.5 58.5q0 38 20.5 62.5t78.5 37.5v5q-58 11 -78.5 37
t-20.5 64q0 28 17.5 58.5t38 60.5l38 57.5t17.5 48.5q0 34 -34.5 48t-111.5 14q0 17 2 37t5 34q115 0 166.5 -32t51.5 -94q0 -33 -18 -65t-39 -62l-39 -57.5t-18 -51.5q0 -15 5 -27t19 -19.5t38 -11.5t61 -4v-74v0z" />
    <glyph glyph-name="asciitilde" unicode="~" horiz-adv-x="494" 
d="M465 342q-9 -45 -20 -74t-25 -46t-31 -24t-37 -7q-26 0 -55 15t-56.5 33l-51.5 33t-42 15q-23 0 -34 -21.5t-19 -75.5q-13 0 -32.5 4t-32.5 9q8 46 19.5 75.5t25.5 47t31 24t36 6.5q26 0 54.5 -15t56 -33l52.5 -33t43 -15q21 0 33 21t20 75q13 0 33.5 -4t31.5 -10z" />
    <glyph glyph-name="Adieresis" unicode="&#xc4;" horiz-adv-x="568" 
d="M240 756q0 -19 -12 -30.5t-33 -11.5q-20 0 -32 12t-12 30q0 19 12 31t33 12q20 0 32 -12t12 -31zM417 756q0 -19 -12 -30.5t-33 -11.5q-20 0 -31.5 12t-11.5 30q0 19 11.5 31t32.5 12q20 0 32 -12t12 -31zM554 6q-18 -5 -39.5 -7.5t-41.5 -3.5l-72 215h-242l-70 -215
q-18 1 -38 3.5t-37 7.5q50 162 107 330l120 338h87l117 -335zM292 549q-3 11 -5 21t-3 24h-6q-1 -14 -2.5 -24t-4.5 -21l-89 -270h198z" />
    <glyph glyph-name="Aring" unicode="&#xc5;" horiz-adv-x="568" 
d="M554 6q-18 -5 -39.5 -7.5t-41.5 -3.5l-72 215h-242l-70 -215q-18 1 -38 3.5t-37 7.5q48 159 104 322.5l119 336.5q-32 8 -48.5 31t-16.5 56q0 42 29.5 68t84.5 26q54 0 82.5 -24.5t28.5 -69.5q0 -32 -17.5 -54.5t-48.5 -32.5l116 -333.5zM292 549q-6 20 -8 45h-6
q-1 -13 -2.5 -24.5t-4.5 -20.5l-89 -270h198zM339 753q0 25 -14 38t-39 13q-23 0 -39 -12.5t-16 -38.5q0 -52 53 -52q24 0 39.5 12.5t15.5 39.5z" />
    <glyph glyph-name="Ccedilla" unicode="&#xc7;" horiz-adv-x="571" 
d="M531 34q-38 -23 -86 -33.5t-93 -10.5q-144 0 -216 88t-72 260q0 90 21 155.5t59 108t91 62.5t117 20q44 0 90 -8.5t75 -24.5q-2 -18 -7 -38t-11 -38q-31 17 -68.5 25.5t-77.5 8.5q-48 0 -85.5 -14t-62.5 -46t-38 -84.5t-13 -129.5q0 -140 47.5 -205t150.5 -65
q42 0 83.5 11t76.5 34q6 -18 11 -37t8 -39zM425 -120q0 -46 -31.5 -71.5t-96.5 -25.5q-13 0 -30.5 2t-31.5 5q-3 14 -4 28t-1 26q15 -5 32.5 -6.5t29.5 -1.5q29 0 48.5 9t19.5 37q0 25 -16 35t-45 10q-9 0 -22 -1t-22 -3q1 10 4.5 24t7.5 22h53q53 0 79 -23.5t26 -65.5z" />
    <glyph glyph-name="Eacute" unicode="&#xc9;" horiz-adv-x="548" 
d="M367 815q-15 -30 -35 -55t-53 -54q-5 0 -14 1t-19 2t-19 2t-13 2l71 102h82v0zM491 74q0 -17 -2 -36.5t-5 -37.5h-381v674h371q0 -17 -1.5 -36.5t-4.5 -37.5h-281v-210h214v-74h-214v-242h304v0z" />
    <glyph glyph-name="Ntilde" unicode="&#xd1;" horiz-adv-x="687" 
d="M191 714q6 30 14.5 49t20 29.5t25 14.5t29.5 4t34 -7t36 -16t34.5 -16t28.5 -7q8 0 14.5 1.5t12 7t9 16.5t6.5 29q11 -1 27 -4t27 -7q-5 -31 -13.5 -50.5t-20 -30t-25 -14t-29.5 -3.5t-34.5 7t-37 16t-35 16t-28.5 7q-18 0 -27.5 -10.5t-13.5 -42.5q-11 0 -26.5 3
t-27.5 8zM584 3q-16 -3 -37 -5.5t-38 -2.5l-295 495q-3 6 -8 15t-9.5 19l-9 20.5t-7.5 18.5l-6 -1l4 -39.5t2 -35.5v-487h-77v667q20 5 44.5 7t42.5 2l283 -476q10 -16 19 -35.5t15 -36.5l6 1q-2 15 -3.5 37.5t-1.5 37.5v470h76v-671z" />
    <glyph glyph-name="Odieresis" unicode="&#xd6;" horiz-adv-x="676" 
d="M293 756q0 -19 -12 -30.5t-33 -11.5q-20 0 -32 12t-12 30q0 19 12 31t33 12q20 0 32 -12t12 -31zM470 756q0 -19 -12 -30.5t-33 -11.5q-20 0 -31.5 12t-11.5 30q0 19 11.5 31t32.5 12q20 0 32 -12t12 -31zM612 337q0 -88 -19.5 -153.5t-55 -108.5t-86 -64t-112.5 -21
q-131 0 -203 84t-72 259q0 174 72.5 262.5t202.5 88.5q131 0 202 -85t71 -262zM522 337q0 77 -12 129t-35 84.5t-57.5 46.5t-79.5 14t-79.5 -14t-58 -46t-35 -84.5t-11.5 -129.5q0 -145 43.5 -209.5t141.5 -64.5q48 0 82.5 15t57 48t33 85t10.5 126z" />
    <glyph glyph-name="Udieresis" unicode="&#xdc;" horiz-adv-x="676" 
d="M302 756q0 -19 -12 -30.5t-33 -11.5q-20 0 -32 12t-12 30q0 19 12 31t33 12q20 0 32 -12t12 -31zM479 756q0 -19 -12 -30.5t-33 -11.5q-20 0 -31.5 12t-11.5 30q0 19 11.5 31t32.5 12q20 0 32 -12t12 -31zM574 266q0 -65 -12 -116t-39.5 -86.5t-73 -54.5t-112.5 -19
q-56 0 -100 12.5t-74 44t-45.5 84.5t-15.5 135v408h84v-424q0 -50 7 -85t24.5 -57t47 -32t74.5 -10q80 0 118 42.5t38 141.5v424h79v-408v0z" />
    <glyph glyph-name="aacute" unicode="&#xe1;" horiz-adv-x="531" 
d="M510 44q0 -29 -17 -41.5t-44 -12.5q-32 0 -56.5 11t-37.5 43h-3q-38 -30 -74 -42t-75 -12q-67 0 -109 34t-42 106q0 83 46.5 117.5t139.5 39.5l110 5v147q-18 11 -49.5 17t-62.5 6q-33 0 -67 -6t-56 -16q-4 14 -6.5 34.5t-3.5 37.5q34 10 65.5 15t69.5 5q25 0 51 -3
t50.5 -9t46 -15t37.5 -21v-384q0 -18 6 -26t23 -8h58v-22zM348 235l-113 -4q-59 -2 -81 -24t-22 -71q0 -43 20 -62t65 -19q34 0 69.5 12t61.5 31v137zM359 731q-14 -38 -40 -80t-58 -79q-14 0 -30.5 1.5t-27.5 5.5l78 152h78v0z" />
    <glyph glyph-name="copyright" unicode="&#xa9;" horiz-adv-x="725" 
d="M658 338q0 -72 -22 -130t-61.5 -99.5t-93.5 -64t-119 -22.5q-64 0 -118 22t-93.5 63.5t-61.5 100t-22 130.5q0 70 22 127.5t61 99t93.5 64t118.5 22.5q62 0 116 -22t94 -62.5t63 -98.5t23 -130zM484 162q-21 -13 -51.5 -18.5t-56.5 -5.5q-83 0 -126.5 49.5t-43.5 146.5
q0 51 13 87.5t35.5 60t53 35t66.5 11.5q26 0 56 -5t47 -13q-1 -12 -3.5 -27t-5.5 -28q-18 9 -42.5 14t-49.5 5t-44.5 -7t-33 -23.5t-21 -43t-7.5 -66.5q0 -75 26.5 -108.5t80.5 -33.5q26 0 52.5 7t45.5 18q4 -12 6.5 -26t2.5 -29zM618 335q0 63 -19 115t-53 88.5t-81 56.5
t-103 20q-60 0 -107.5 -20.5t-80.5 -57t-50.5 -88t-17.5 -114.5q0 -61 18 -112t51.5 -88t81 -57.5t105.5 -20.5t105.5 19.5t81 56t51.5 88t18 114.5z" />
    <glyph glyph-name="trademark" unicode="&#x2122;" horiz-adv-x="760" 
d="M706 327q-10 -2 -25.5 -3t-26.5 -1l-21 232q-1 6 -1.5 17.5t-0.5 16.5h-4q-3 -18 -8 -32l-88 -232h-56l-87 232q-2 5 -4.5 14.5t-2.5 17.5h-4q0 -4 -0.5 -15.5t-1.5 -18.5l-26 -232q-9 0 -24 1t-23 3q6 88 16.5 173.5t22.5 173.5h59l96 -255q5 -16 8 -31h4q3 15 8 31
l95 255h60q12 -88 21 -175.5t14 -171.5zM278 674q0 -8 -0.5 -24t-4.5 -27h-93v-298h-57v298h-96v51h251v0z" />
    <glyph glyph-name="acute" unicode="&#xb4;" 
d="M328 731q-14 -38 -40 -80t-58 -79q-14 0 -30.5 1.5t-27.5 5.5l78 152h78v0z" />
    <glyph glyph-name="dieresis" unicode="&#xa8;" 
d="M207 633q0 -20 -12 -33.5t-33 -13.5t-33 13.5t-12 33.5t12 34.5t34 14.5q21 0 32.5 -14.5t11.5 -34.5zM382 633q0 -20 -12 -33.5t-33 -13.5t-32.5 13.5t-11.5 33.5t11.5 34.5t33.5 14.5q21 0 32.5 -14.5t11.5 -34.5z" />
    <glyph glyph-name="notequal" unicode="&#x2260;" horiz-adv-x="490" 
d="M190 152l-78 -119h-46l77 119h-78v59h118l85 131h-203v59h242l70 107h48l-70 -107h70v-59h-110l-86 -131h196v-59h-235z" />
    <glyph glyph-name="AE" unicode="&#xc6;" horiz-adv-x="815" 
d="M374 604h-6l-159 -304h165v304zM758 74q0 -17 -2 -36.5l-4 -37.5h-378v230h-198l-127 -236q-18 1 -41 4t-40 8l178.5 336.5l187.5 331.5h408q0 -17 -2 -36.5l-4 -37.5h-281v-210h214v-74h-214v-242h303v0z" />
    <glyph glyph-name="Oslash" unicode="&#xd8;" horiz-adv-x="676" 
d="M612 337q0 -88 -19.5 -153.5t-55 -108.5t-86 -64t-112.5 -21q-89 0 -151 38l-47 -89h-45l60 113q-45 42 -68.5 111.5t-23.5 169.5q0 174 72.5 262.5t202.5 88.5q77 0 136 -31l42 79h46l-54 -102q51 -41 77 -113.5t26 -179.5zM522 337q0 81 -13 134.5t-39 85.5l-245 -460
q41 -34 114 -34q48 0 82.5 15t57 48t33 85t10.5 126zM154 337q0 -72 10 -123.5t33 -85.5l242 457q-40 26 -101 26q-45 0 -79.5 -14t-58 -46t-35 -84.5t-11.5 -129.5z" />
    <glyph glyph-name="infinity" unicode="&#x221e;" horiz-adv-x="881" 
d="M239 53q-92 0 -140.5 57.5t-48.5 157.5q0 43 11.5 80.5t35.5 65t60 43t85 15.5q54 0 103 -29t96 -107q48 77 96 106.5t107 29.5q91 0 139 -56t48 -153t-48 -153.5t-139 -56.5q-27 0 -53 6t-51.5 21.5t-50.5 41.5t-50 66q-41 -70 -89 -102.5t-111 -32.5zM644 120
q57 0 86 37.5t29 107.5q0 72 -32.5 106t-85.5 34q-56 0 -95.5 -33t-75.5 -108q38 -79 81.5 -111.5t92.5 -32.5zM245 120q55 0 96.5 38.5t68.5 104.5q-33 69 -72.5 105.5t-93.5 36.5q-122 0 -122 -142q0 -68 28.5 -105.5t94.5 -37.5z" />
    <glyph glyph-name="plusminus" unicode="&#xb1;" horiz-adv-x="441" 
d="M249 315v-132h-59v132h-130v57h130v128h59v-128h132v-57h-132zM60 45v58h321v-58h-321z" />
    <glyph glyph-name="lessequal" unicode="&#x2264;" horiz-adv-x="440" 
d="M275 147l-192 176l192 177h79v-8l-190 -165l191 -172v-8h-80zM60 45v58h320v-58h-320z" />
    <glyph glyph-name="greaterequal" unicode="&#x2265;" horiz-adv-x="440" 
d="M165 147h-79v7l189 167l-190 171v8h80l192 -177zM60 45v58h320v-58h-320z" />
    <glyph glyph-name="yen" unicode="&#xa5;" 
d="M437 296q0 -14 -2 -30t-6 -30h-139v-236h-83v236h-147v60h126q-47 90 -87.5 181t-81.5 193q19 4 43.5 5.5t41.5 1.5l128 -298q5 -12 10.5 -28l10.5 -30h5q4 14 9.5 30.5t10.5 29.5l128 296q19 0 39.5 -1.5t39.5 -5.5l-43 -101.5l-41.5 -93l-42 -89.5l-45.5 -90h126v0z
" />
    <glyph glyph-name="mu" unicode="&#xb5;" horiz-adv-x="586" 
d="M407 0v45h-4q-37 -27 -73 -41t-78 -14q-20 0 -39 5t-34 22v-223h-78v725q16 2 38.5 4t39.5 2v-375q0 -42 20 -65.5t71 -23.5q41 0 73 10.5t64 30.5v417q16 2 38.5 4t39.5 2v-525h-78z" />
    <glyph glyph-name="mu" unicode="&#x3bc;" horiz-adv-x="586" 
d="M407 0v45h-4q-37 -27 -73 -41t-78 -14q-20 0 -39 5t-34 22v-223h-78v725q16 2 38.5 4t39.5 2v-375q0 -42 20 -65.5t71 -23.5q41 0 73 10.5t64 30.5v417q16 2 38.5 4t39.5 2v-525h-78z" />
    <glyph glyph-name="partialdiff" unicode="&#x2202;" horiz-adv-x="549" 
d="M494 370q0 -193 -52 -286.5t-166 -93.5q-52 0 -92.5 14t-69 45.5t-43.5 81t-15 119.5q0 135 63.5 204t168.5 69q26 0 58 -4.5t60 -12.5q-5 48 -17.5 80.5t-33.5 52t-51 28t-70 8.5q-16 0 -34.5 -2t-37 -5.5t-35 -8t-28.5 -10.5q0 20 1.5 39.5t3.5 31.5q15 7 33 11.5
t36 7.5t35.5 4t30.5 1q56 0 103 -14.5t81 -55t52.5 -114t18.5 -190.5zM414 337q0 26 -1 51.5t-3 47.5q-24 9 -56 14t-61 5q-33 0 -61.5 -10t-49 -33.5t-32 -61t-11.5 -93.5t8 -94t24.5 -61t42 -33t61.5 -10t62 12t43 43.5t25.5 85t8.5 137.5z" />
    <glyph glyph-name="summation" unicode="&#x2211;" horiz-adv-x="558" 
d="M484 73q0 -15 -2 -34t-5 -39h-439v68l275 282l-256 256v68h410q0 -18 -1.5 -38t-4.5 -36h-294l219 -224v-56l-242 -247h340z" />
    <glyph glyph-name="product" unicode="&#x220f;" horiz-adv-x="701" 
d="M508 0v597h-315v-597h-84v674h483v-674h-84z" />
    <glyph glyph-name="pi" unicode="&#x3c0;" horiz-adv-x="644" 
d="M623 8q-19 -9 -41.5 -13.5t-44.5 -4.5q-63 0 -90 32t-27 91v334h-215v-447h-75v447h-98v75h587q0 -16 -2 -37.5t-4 -37.5h-118v-328q0 -35 12.5 -47.5t38.5 -12.5q35 0 67 16q5 -15 7.5 -33t2.5 -34z" />
    <glyph glyph-name="integral" unicode="&#x222b;" horiz-adv-x="311" 
d="M313 740q0 -17 -1 -35.5t-4 -35.5q-8 2 -22.5 2.5t-25.5 0.5q-38 0 -55.5 -22.5t-17.5 -67.5v-632q0 -38 -12 -69t-33.5 -52.5t-50 -33t-61.5 -11.5q-11 0 -23.5 1t-23.5 3q0 17 1 35.5t5 35.5q7 -2 22 -2.5t26 -0.5q38 0 55 22.5t17 67.5v632q0 38 12 69t33.5 52.5
t50 33t61.5 11.5q11 0 24 -1t23 -3z" />
    <glyph glyph-name="ordfeminine" unicode="&#xaa;" horiz-adv-x="380" 
d="M351 374q0 -21 -11 -30t-31 -9q-19 0 -32.5 8t-21.5 28h-3q-22 -20 -47.5 -28t-51.5 -8q-44 0 -70.5 22t-26.5 67q0 54 30.5 76t90.5 24l69 3v79q-11 6 -32 9.5t-40 3.5q-20 0 -42.5 -3.5t-36.5 -10.5q-4 12 -6.5 27.5t-2.5 28.5q22 6 44.5 9.5t46.5 3.5q33 0 68.5 -8
t56.5 -24v-228q0 -12 4.5 -16.5t16.5 -4.5h28v-19zM246 486l-74 -3q-32 -2 -44.5 -14.5t-12.5 -38.5q0 -25 11.5 -36t38.5 -11q19 0 42.5 6t38.5 18v79z" />
    <glyph glyph-name="ordmasculine" unicode="&#xba;" horiz-adv-x="379" 
d="M337 504q0 -84 -42.5 -126.5t-106.5 -42.5q-66 0 -106 40t-40 129q0 82 41 126t107 44q32 0 59 -9.5t46.5 -29.5t30.5 -52.5t11 -78.5zM274 504q0 67 -24 92.5t-60 25.5q-17 0 -32.5 -6t-27 -19.5t-18 -36t-6.5 -56.5q0 -65 22.5 -91t59.5 -26q38 0 62 25.5t24 91.5z" />
    <glyph glyph-name="Omega" unicode="&#x3a9;" horiz-adv-x="660" 
d="M360 0l-4 61q32 11 60 34.5t49 62t33.5 92t12.5 124.5q0 65 -11.5 109.5t-34.5 72t-57 39.5t-79 12q-43 0 -76.5 -12t-56 -39.5t-34.5 -72t-12 -110.5q0 -132 43 -210.5t111 -101.5l-3 -61h-248v73h140v5q-60 42 -94 118t-34 183q0 152 68 228.5t198 76.5
q132 0 198.5 -78t66.5 -226q0 -107 -34 -183.5t-94 -118.5v-5h139v-73h-247z" />
    <glyph glyph-name="ae" unicode="&#xe6;" horiz-adv-x="790" 
d="M731 325q0 -17 -1 -34t-3 -36l-311 -11q1 -41 7.5 -74.5t23.5 -57.5t46.5 -37.5t75.5 -13.5q38 0 73 9.5t58 23.5q6 -12 12.5 -34t8.5 -36q-29 -17 -72 -25.5t-83 -8.5q-63 0 -107 18.5t-76 62.5h-1q-52 -49 -95 -65t-85 -16q-71 0 -110.5 36.5t-39.5 108.5
q0 85 47 119.5t141 37.5l102 4q3 41 12 77t23 61q-26 13 -63.5 21t-71.5 8q-39 0 -73 -5.5t-57 -16.5q-4 14 -6.5 35t-2.5 35q37 11 68.5 16t72.5 5q51 0 96.5 -11t80.5 -33q51 44 122 44q91 0 139.5 -53t48.5 -154zM653 338q0 70 -29 102t-83 32t-88 -41t-36 -133l235 8
q1 6 1 16v16zM216 53q37 0 72.5 13t73.5 48q-21 50 -21 128l-101 -5q-25 -1 -45 -6t-34.5 -16t-22 -29t-7.5 -46q0 -46 20 -66.5t65 -20.5z" />
    <glyph glyph-name="oslash" unicode="&#xf8;" horiz-adv-x="568" 
d="M505 261q0 -69 -17 -120t-47 -84.5t-71 -50t-89 -16.5q-59 0 -104 21l-46 -86h-44l57 107q-38 32 -59.5 88t-21.5 141q0 65 16.5 115.5t45.5 85t70 52.5t90 18q32 0 60.5 -6.5t52.5 -20.5l45 84h44l-57 -106q35 -32 55 -86t20 -136zM147 261q0 -58 8.5 -97t25.5 -63
l183 341q-30 24 -79 24q-30 0 -55 -9.5t-43.5 -33t-29 -63t-10.5 -99.5zM422 261q0 52 -8 88.5t-23 61.5l-181 -338q28 -17 72 -17q32 0 58 10t44 34t28 63.5t10 97.5z" />
    <glyph glyph-name="questiondown" unicode="&#xbf;" horiz-adv-x="368" 
d="M21 26q0 69 46 123t153 92v104q15 4 32.5 5.5t32.5 2.5q5 -33 9 -76t4 -78q-96 -28 -147.5 -68t-51.5 -100q0 -58 31.5 -84.5t96.5 -26.5q28 0 57 3.5t51 8.5q4 -15 5.5 -34.5t1.5 -36.5q-28 -6 -58.5 -8.5t-62.5 -2.5q-41 0 -77.5 10t-63.5 31.5t-43 55t-16 79.5z
M208 497q0 23 13 35.5t33 12.5t33.5 -12.5t13.5 -35.5t-14 -36t-34 -13q-19 0 -32 13t-13 36z" />
    <glyph glyph-name="exclamdown" unicode="&#xa1;" horiz-adv-x="244" 
d="M82 -140q0 119 2.5 244.5t7.5 240.5q14 3 29 4.5t30 2.5q5 -118 8.5 -244.5t3.5 -247.5h-81v0zM76 497q0 23 13 35.5t33 12.5t33 -12.5t13 -35.5t-13.5 -36t-33.5 -13t-32.5 13t-12.5 36z" />
    <glyph glyph-name="logicalnot" unicode="&#xac;" horiz-adv-x="498" 
d="M453 139q-16 -3 -32.5 -4.5t-30.5 -1.5v167h-355v65h418v-226v0z" />
    <glyph glyph-name="radical" unicode="&#x221a;" horiz-adv-x="523" 
d="M521 674q0 -17 -1.5 -34.5t-5.5 -34.5h-97l-77 -605h-75l-125.5 258.5t-119.5 271.5q14 4 36 6.5t36 2.5l179 -383q5 -11 11 -26t10 -29h6q0 13 1 30.5t3 29.5l59 513h160v0z" />
    <glyph glyph-name="florin" unicode="&#x192;" 
d="M417 680q0 -34 -6 -70q-8 2 -22.5 3t-25.5 1q-38 0 -64.5 -24.5t-26.5 -74.5v-122h164q0 -33 -6 -66h-158v-459h-75v459h-137v66h137v115q0 42 13.5 74.5t37 55t54.5 34.5t66 12q12 0 25 -1t24 -3z" />
    <glyph glyph-name="approxequal" unicode="&#x2248;" horiz-adv-x="496" 
d="M438 353q-19 -17 -41 -26.5t-47 -9.5t-49.5 6.5t-48 15t-47.5 15t-49 6.5q-54 0 -98 -41v60q21 20 45 30.5t53 10.5q25 0 48.5 -6.5t47.5 -14.5t48 -14.5t49 -6.5q48 0 89 36v-61v0zM438 164q-19 -17 -41 -26.5t-47 -9.5t-49.5 6.5t-48 15t-47.5 15t-49 6.5
q-29 0 -53 -10.5t-45 -30.5v60q21 20 45 30.5t53 10.5q25 0 48.5 -6.5t47.5 -14.5t48 -14.5t49 -6.5t47 9.5t42 26.5v-61v0z" />
    <glyph glyph-name="Delta" unicode="&#x394;" horiz-adv-x="563" 
d="M12 0l107.5 334t120.5 340h84l117 -337.5l110 -336.5h-539zM286 549q-2 6 -3.5 15t-3.5 17h-3q-3 -19 -8 -32l-159 -480h336z" />
    <glyph glyph-name="guillemotleft" unicode="&#xab;" horiz-adv-x="475" 
d="M171 43l-139 220l139 220l62 -14l-122 -207l122 -206zM380 43l-139 220l139 220l63 -14l-122 -207l122 -206z" />
    <glyph glyph-name="guillemotright" unicode="&#xbb;" horiz-adv-x="475" 
d="M304 43l-63 14l122 207l-122 206l63 13l139 -220zM94 43l-62 14l121 207l-121 206l62 13l139 -220z" />
    <glyph glyph-name="ellipsis" unicode="&#x2026;" horiz-adv-x="616" 
d="M149 35q0 -23 -13 -35t-33 -12t-33 12t-13 35t13 36.5t33 13.5t33 -13.5t13 -36.5zM354 35q0 -23 -13 -35t-33 -12t-33 12t-13 35t13 36.5t33 13.5t33 -13.5t13 -36.5zM559 35q0 -23 -13 -35t-33 -12t-33 12t-13 35t13 36.5t33 13.5t33 -13.5t13 -36.5z" />
    <glyph glyph-name="nonbreakingspace" unicode="&#xa0;" horiz-adv-x="204" 
 />
    <glyph glyph-name="Agrave" unicode="&#xc0;" horiz-adv-x="568" 
d="M554 6q-18 -5 -39.5 -7.5t-41.5 -3.5l-72 215h-242l-70 -215q-18 1 -38 3.5t-37 7.5q50 162 107 330l120 338h87l117 -335zM292 549q-3 11 -5 21t-3 24h-6q-1 -14 -2.5 -24t-4.5 -21l-89 -270h198zM318 713q-4 -1 -13.5 -2l-19.5 -2t-19 -2t-14 -1q-33 29 -53 54t-34 55
h81z" />
    <glyph glyph-name="Atilde" unicode="&#xc3;" horiz-adv-x="568" 
d="M554 6q-18 -5 -39.5 -7.5t-41.5 -3.5l-72 215h-242l-70 -215q-18 1 -38 3.5t-37 7.5q50 162 107 330l120 338h87l117 -335zM292 549q-3 11 -5 21t-3 24h-6q-1 -14 -2.5 -24t-4.5 -21l-89 -270h198zM126 714q6 30 14.5 49t20 29.5t25 14.5t29.5 4t34 -7t36 -16t34.5 -16
t28.5 -7q8 0 14.5 1.5t12 7t9 16.5t6.5 29q11 -1 27 -4t27 -7q-5 -31 -13.5 -50.5t-20 -30t-25 -14t-29.5 -3.5t-34.5 7t-37 16t-35 16t-28.5 7q-18 0 -27.5 -10.5t-13.5 -42.5q-11 0 -26.5 3t-27.5 8z" />
    <glyph glyph-name="Otilde" unicode="&#xd5;" horiz-adv-x="676" 
d="M612 337q0 -88 -19.5 -153.5t-55 -108.5t-86 -64t-112.5 -21q-131 0 -203 84t-72 259q0 174 72.5 262.5t202.5 88.5q131 0 202 -85t71 -262zM522 337q0 77 -12 129t-35 84.5t-57.5 46.5t-79.5 14t-79.5 -14t-58 -46t-35 -84.5t-11.5 -129.5q0 -145 43.5 -209.5
t141.5 -64.5q48 0 82.5 15t57 48t33 85t10.5 126zM179 714q6 30 14.5 49t20 29.5t25 14.5t29.5 4t34 -7t36 -16t34.5 -16t28.5 -7q8 0 14.5 1.5t12 7t9 16.5t6.5 29q11 -1 27 -4t27 -7q-5 -31 -13.5 -50.5t-20 -30t-25 -14t-29.5 -3.5t-34.5 7t-37 16t-35 16t-28.5 7
q-18 0 -27.5 -10.5t-13.5 -42.5q-11 0 -26.5 3t-27.5 8z" />
    <glyph glyph-name="OE" unicode="&#x152;" horiz-adv-x="942" 
d="M885 74q0 -17 -2 -36.5t-5 -37.5h-365v78h-3q-29 -45 -76.5 -66.5t-102.5 -21.5q-267 0 -267 343q0 83 17 148t50.5 110t83.5 69t115 24q60 0 106 -21t74 -63h3v74h356q0 -17 -2 -36.5t-5 -37.5h-281v-210h214v-74h-214v-242h304v0zM504 337q0 74 -10 126t-31.5 85
t-54 48t-77.5 15t-78.5 -15t-55.5 -47.5t-32.5 -84.5t-10.5 -127q0 -143 41 -209t138 -66q48 0 80.5 16t53 50t29 85.5t8.5 123.5z" />
    <glyph glyph-name="oe" unicode="&#x153;" horiz-adv-x="868" 
d="M809 327v-38q0 -20 -2 -37h-313q1 -103 40 -146.5t118 -43.5q33 0 68.5 8.5t58.5 23.5q6 -14 12.5 -35t8.5 -35q-29 -17 -72.5 -25.5t-81.5 -8.5q-75 0 -120 27.5t-68 81.5q-29 -58 -72 -83.5t-105 -25.5q-103 0 -160.5 65.5t-57.5 205.5q0 63 15.5 113.5t44.5 85.5
t69.5 53.5t91.5 18.5q63 0 107 -26t67 -83q46 109 163 109q94 0 141 -55t47 -150zM731 306q1 6 1 16v16q0 72 -29.5 103t-83.5 31q-59 0 -88.5 -39t-35.5 -127h236v0zM421 261q0 110 -35.5 157.5t-101.5 47.5q-31 0 -56.5 -10t-43.5 -34t-28 -63.5t-10 -97.5q0 -114 34 -160
t101 -46q34 0 60 11t44 35t27 63.5t9 96.5z" />
    <glyph glyph-name="endash" unicode="&#x2013;" 
d="M55 235v61h398q0 -31 -8 -61h-390z" />
    <glyph glyph-name="emdash" unicode="&#x2014;" horiz-adv-x="1000" 
d="M67 235v61h869q0 -14 -1.5 -30.5t-5.5 -30.5h-862z" />
    <glyph glyph-name="quotedblleft" unicode="&#x201c;" horiz-adv-x="403" 
d="M42 526q0 69 28 119t85 77q18 -20 28 -45q-45 -22 -63.5 -54.5t-18.5 -75.5h38q7 -23 9.5 -48t2.5 -48h-109v75v0zM222 526q0 69 27.5 119t84.5 77q19 -19 29 -45q-45 -22 -64 -54.5t-19 -75.5h39q6 -23 8.5 -48t2.5 -48h-108v75v0z" />
    <glyph glyph-name="quotedblright" unicode="&#x201d;" horiz-adv-x="403" 
d="M181 638q0 -69 -28 -119t-85 -77q-17 19 -28 45q45 22 63.5 54.5t18.5 75.5h-38q-7 23 -9.5 47.5t-2.5 48.5h109v-75v0zM360 638q0 -69 -27.5 -119t-84.5 -77q-19 20 -29 45q45 22 64 54.5t19 75.5h-39q-6 23 -8.5 47.5t-2.5 48.5h108v-75v0z" />
    <glyph glyph-name="quoteleft" unicode="&#x2018;" horiz-adv-x="223" 
d="M42 526q0 69 28 119t85 77q18 -20 28 -45q-45 -22 -63.5 -54.5t-18.5 -75.5h38q7 -23 9.5 -48t2.5 -48h-109v75v0z" />
    <glyph glyph-name="quoteright" unicode="&#x2019;" horiz-adv-x="223" 
d="M181 638q0 -69 -28 -119t-85 -77q-17 19 -28 45q45 22 63.5 54.5t18.5 75.5h-38q-7 23 -9.5 47.5t-2.5 48.5h109v-75v0z" />
    <glyph glyph-name="divide" unicode="&#xf7;" horiz-adv-x="407" 
d="M250 84q0 -23 -13 -35t-33 -12t-33 12t-13 35q0 24 13 37t34 13q19 0 32 -13.5t13 -36.5zM250 460q0 -23 -13 -35.5t-33 -12.5t-33 12.5t-13 35.5t13 36.5t34 13.5q19 0 32 -13.5t13 -36.5zM64 247v54h279v-54h-279z" />
    <glyph glyph-name="lozenge" unicode="&#x25ca;" horiz-adv-x="461" 
d="M412 241q-33 -65 -70 -127t-78 -124h-68q-39 60 -76 123t-71 128v52q65 126 147 252h68q41 -59 78.5 -123t69.5 -130v-51v0zM230 483l-121 -214l123 -216l120 214z" />
    <glyph glyph-name="ydieresis" unicode="&#xff;" horiz-adv-x="510" 
d="M305 9q-41 -119 -90.5 -172t-118.5 -53q-18 0 -42 3.5t-47 15.5q2 19 6.5 38.5t10.5 33.5q15 -8 36 -12t41 -4q31 0 52.5 17t37.5 54l30 70q-24 56 -48.5 120l-48 131.5l-45 135t-38.5 131.5q16 3 37.5 5t38.5 2l125 -384q5 -14 9.5 -30t6.5 -32h4q6 32 17 63l126 383
q15 0 37.5 -1.5t38.5 -5.5zM223 633q0 -20 -12 -33.5t-33 -13.5t-33 13.5t-12 33.5t12 34.5t34 14.5q21 0 32.5 -14.5t11.5 -34.5zM398 633q0 -20 -12 -33.5t-33 -13.5t-32.5 13.5t-11.5 33.5t11.5 34.5t33.5 14.5q21 0 32.5 -14.5t11.5 -34.5z" />
    <glyph glyph-name="Ydieresis" unicode="&#x178;" horiz-adv-x="550" 
d="M526 669l-52 -108.5l-50 -101.5l-51.5 -99.5l-56.5 -102.5v-257h-84v257q-60 103 -111 206t-97 206q18 4 43.5 5.5t43.5 1.5l143 -294q5 -11 10 -23.5t10 -26.5h6l9.5 26.5t10.5 25.5l144 292q19 0 41 -1.5t41 -5.5zM235 756q0 -19 -12 -30.5t-33 -11.5q-20 0 -32 12
t-12 30q0 19 12 31t33 12q20 0 32 -12t12 -31zM412 756q0 -19 -12 -30.5t-33 -11.5q-20 0 -31.5 12t-11.5 30q0 19 11.5 31t32.5 12q20 0 32 -12t12 -31z" />
    <glyph glyph-name="fraction" unicode="&#x2215;" horiz-adv-x="161" 
d="M-31 -8q-15 2 -27.5 6.5t-23.5 10.5l271 675q12 -1 27 -4t27 -8z" />
    <glyph glyph-name="currency" unicode="&#xa4;" 
d="M179 232q11 -89 46.5 -129.5t101.5 -40.5q32 0 66 8t61 24q8 -36 9 -76q-29 -15 -66 -21.5t-70 -6.5q-195 0 -228 242h-65v56h60q-1 12 -1 24v26v29q0 15 2 29h-61v55h67q10 62 30.5 106t50 72.5t66 41.5t78.5 13q14 0 31 -1.5t34.5 -4t33.5 -6t27 -8.5q0 -17 -2 -37.5
t-7 -38.5q-23 10 -54.5 16.5t-61.5 6.5q-60 0 -96.5 -35.5t-49.5 -124.5h234q0 -11 -2 -26t-6 -29h-232q-1 -14 -1 -29v-32v-25q0 -11 1 -22h222q0 -11 -2 -26.5t-6 -29.5h-210z" />
    <glyph glyph-name="guilsinglleft" unicode="&#x2039;" horiz-adv-x="265" 
d="M171 43l-139 220l139 220l62 -14l-122 -207l122 -206z" />
    <glyph glyph-name="guilsinglright" unicode="&#x203a;" horiz-adv-x="265" 
d="M94 43l-62 14l121 207l-121 206l62 13l139 -220z" />
    <glyph glyph-name="fi" unicode="&#xfb01;" horiz-adv-x="604" 
d="M426 0v455h-223v-455h-78v455h-64v67h64v65q0 38 12.5 67.5t33 49.5t47.5 30t55 10q11 0 24.5 -1t23.5 -3q0 -16 -1.5 -35t-4.5 -36q-8 2 -22 2.5t-25 0.5q-35 0 -50 -18.5t-15 -59.5v-72h301v-522h-78zM512 669q0 -21 -12 -35t-35 -14t-35 14.5t-12 34.5t12 35t36 15
q23 0 34.5 -15t11.5 -35z" />
    <glyph glyph-name="fl" unicode="&#xfb02;" horiz-adv-x="617" 
d="M438 0v667q-10 2 -26 3.5t-34 3t-35.5 2.5t-32.5 1q-63 0 -85 -20t-22 -61v-74h113q0 -35 -6 -67h-107v-455h-78v455h-64v67h64v68q0 76 49.5 115t140.5 39q21 0 46.5 -1t52.5 -3.5t53.5 -5.5t48.5 -7v-727h-78z" />
    <glyph glyph-name="daggerdbl" unicode="&#x2021;" horiz-adv-x="523" 
d="M299 59v-188q-16 -5 -36.5 -7t-38.5 -2v197h-173v71h173v161h-173v71h173v183h75v-183h173v-71h-173v-161h173v-71h-173z" />
    <glyph glyph-name="periodcentered" unicode="&#xb7;" horiz-adv-x="214" 
d="M153 282q0 -23 -13 -35t-33 -12t-33 12t-13 35q0 24 13 37t34 13q19 0 32 -13.5t13 -36.5z" />
    <glyph glyph-name="quotesinglbase" unicode="&#x201a;" horiz-adv-x="223" 
d="M181 91q0 -69 -28 -119t-85 -77q-17 19 -28 46q44 20 62.5 54t18.5 72h-39q-6 23 -8.5 49t-2.5 50h110v-75v0z" />
    <glyph glyph-name="quotedblbase" unicode="&#x201e;" horiz-adv-x="403" 
d="M181 91q0 -69 -28 -119t-85 -77q-17 19 -28 46q44 20 62.5 54t18.5 72h-39q-6 23 -8.5 49t-2.5 50h110v-75v0zM361 91q0 -69 -28 -119t-85 -77q-20 21 -28 46q43 20 62 54t19 72h-39q-6 23 -8.5 49t-2.5 50h110v-75v0z" />
    <glyph glyph-name="perthousand" unicode="&#x2030;" horiz-adv-x="1159" 
d="M344 494q0 -90 -39 -140t-113 -50q-71 0 -113 46t-42 144q0 95 43 142.5t112 47.5q73 0 112.5 -46.5t39.5 -143.5zM278 494q0 64 -18.5 100t-67.5 36q-47 0 -67.5 -34.5t-20.5 -101.5q0 -69 20 -102.5t68 -33.5t67 35t19 101zM298 -9q-30 4 -57 18l265 671
q15 0 31.5 -2.5t30.5 -6.5zM768 180q0 -90 -39.5 -140t-113.5 -50q-71 0 -113 46t-42 144q0 95 43 142.5t112 47.5q73 0 113 -46.5t40 -143.5zM701 180q0 64 -18 100t-68 36q-46 0 -67 -34.5t-21 -101.5q0 -69 20.5 -102.5t67.5 -33.5q48 0 67 35t19 101zM1122 180
q0 -90 -39 -140t-113 -50q-71 0 -113 46t-42 144q0 95 43 142.5t112 47.5q73 0 112.5 -46.5t39.5 -143.5zM1056 180q0 64 -18 100t-68 36q-47 0 -67.5 -34.5t-20.5 -101.5q0 -69 20 -102.5t68 -33.5t67 35t19 101z" />
    <glyph glyph-name="Acircumflex" unicode="&#xc2;" horiz-adv-x="568" 
d="M554 6q-18 -5 -39.5 -7.5t-41.5 -3.5l-72 215h-242l-70 -215q-18 1 -38 3.5t-37 7.5q50 162 107 330l120 338h87l117 -335zM292 549q-3 11 -5 21t-3 24h-6q-1 -14 -2.5 -24t-4.5 -21l-89 -270h198zM424 711q-14 -3 -32.5 -4.5t-34.5 -1.5l-73 77l-74 -77q-14 0 -33 1.5
t-33 3.5l24.5 32l20 26t20 23l22.5 24h108q24 -26 43 -49.5z" />
    <glyph glyph-name="Ecircumflex" unicode="&#xca;" horiz-adv-x="548" 
d="M491 74q0 -17 -2 -36.5t-5 -37.5h-381v674h371q0 -17 -1.5 -36.5t-4.5 -37.5h-281v-210h214v-74h-214v-242h304v0zM428 711q-14 -3 -32.5 -4.5t-34.5 -1.5l-73 77l-74 -77q-14 0 -33 1.5t-33 3.5l24.5 32l20 26t20 23l22.5 24h108q24 -26 43 -49.5z" />
    <glyph glyph-name="Aacute" unicode="&#xc1;" horiz-adv-x="568" 
d="M554 6q-18 -5 -39.5 -7.5t-41.5 -3.5l-72 215h-242l-70 -215q-18 1 -38 3.5t-37 7.5q50 162 107 330l120 338h87l117 -335zM292 549q-3 11 -5 21t-3 24h-6q-1 -14 -2.5 -24t-4.5 -21l-89 -270h198zM399 815q-15 -30 -35 -55t-53 -54q-5 0 -14 1t-19 2t-19 2t-13 2l71 102
h82v0z" />
    <glyph glyph-name="Edieresis" unicode="&#xcb;" horiz-adv-x="548" 
d="M491 74q0 -17 -2 -36.5t-5 -37.5h-381v674h371q0 -17 -1.5 -36.5t-4.5 -37.5h-281v-210h214v-74h-214v-242h304v0zM240 756q0 -19 -12 -30.5t-33 -11.5q-20 0 -32 12t-12 30q0 19 12 31t33 12q20 0 32 -12t12 -31zM417 756q0 -19 -12 -30.5t-33 -11.5q-20 0 -31.5 12
t-11.5 30q0 19 11.5 31t32.5 12q20 0 32 -12t12 -31z" />
    <glyph glyph-name="Egrave" unicode="&#xc8;" horiz-adv-x="548" 
d="M491 74q0 -17 -2 -36.5t-5 -37.5h-381v674h371q0 -17 -1.5 -36.5t-4.5 -37.5h-281v-210h214v-74h-214v-242h304v0zM330 713q-4 -1 -13.5 -2l-19.5 -2t-19 -2t-14 -1q-33 29 -53 54t-34 55h81z" />
    <glyph glyph-name="Iacute" unicode="&#xcd;" horiz-adv-x="290" 
d="M103 0v674h84v-674h-84zM262 815q-15 -30 -35 -55t-53 -54q-5 0 -14 1t-19 2t-19 2t-13 2l71 102h82v0z" />
    <glyph glyph-name="Icircumflex" unicode="&#xce;" horiz-adv-x="290" 
d="M285 711q-14 -3 -32.5 -4.5t-34.5 -1.5l-73 77l-74 -77q-14 0 -33 1.5t-33 3.5l24.5 32l20 26t20 23l22.5 24h108q24 -26 43 -49.5zM103 0v674h84v-674h-84z" />
    <glyph glyph-name="Idieresis" unicode="&#xcf;" horiz-adv-x="290" 
d="M101 756q0 -19 -12 -30.5t-33 -11.5q-20 0 -32 12t-12 30q0 19 12 31t33 12q20 0 32 -12t12 -31zM278 756q0 -19 -12 -30.5t-33 -11.5q-20 0 -31.5 12t-11.5 30q0 19 11.5 31t32.5 12q20 0 32 -12t12 -31zM103 0v674h84v-674h-84z" />
    <glyph glyph-name="Igrave" unicode="&#xcc;" horiz-adv-x="290" 
d="M183 713q-4 -1 -13.5 -2l-19.5 -2t-19 -2t-14 -1q-33 29 -53 54t-34 55h81zM103 0v674h84v-674h-84z" />
    <glyph glyph-name="Oacute" unicode="&#xd3;" horiz-adv-x="676" 
d="M612 337q0 -88 -19.5 -153.5t-55 -108.5t-86 -64t-112.5 -21q-131 0 -203 84t-72 259q0 174 72.5 262.5t202.5 88.5q131 0 202 -85t71 -262zM522 337q0 77 -12 129t-35 84.5t-57.5 46.5t-79.5 14t-79.5 -14t-58 -46t-35 -84.5t-11.5 -129.5q0 -145 43.5 -209.5
t141.5 -64.5q48 0 82.5 15t57 48t33 85t10.5 126zM447 815q-15 -30 -35 -55t-53 -54q-5 0 -14 1t-19 2t-19 2t-13 2l71 102h82v0z" />
    <glyph glyph-name="Ocircumflex" unicode="&#xd4;" horiz-adv-x="676" 
d="M612 337q0 -88 -19.5 -153.5t-55 -108.5t-86 -64t-112.5 -21q-131 0 -203 84t-72 259q0 174 72.5 262.5t202.5 88.5q131 0 202 -85t71 -262zM522 337q0 77 -12 129t-35 84.5t-57.5 46.5t-79.5 14t-79.5 -14t-58 -46t-35 -84.5t-11.5 -129.5q0 -145 43.5 -209.5
t141.5 -64.5q48 0 82.5 15t57 48t33 85t10.5 126zM477 711q-14 -3 -32.5 -4.5t-34.5 -1.5l-73 77l-74 -77q-14 0 -33 1.5t-33 3.5l24.5 32l20 26t20 23l22.5 24h108q24 -26 43 -49.5z" />
    <glyph glyph-name="Ograve" unicode="&#xd2;" horiz-adv-x="676" 
d="M612 337q0 -88 -19.5 -153.5t-55 -108.5t-86 -64t-112.5 -21q-131 0 -203 84t-72 259q0 174 72.5 262.5t202.5 88.5q131 0 202 -85t71 -262zM522 337q0 77 -12 129t-35 84.5t-57.5 46.5t-79.5 14t-79.5 -14t-58 -46t-35 -84.5t-11.5 -129.5q0 -145 43.5 -209.5
t141.5 -64.5q48 0 82.5 15t57 48t33 85t10.5 126zM383 713q-4 -1 -13.5 -2l-19.5 -2t-19 -2t-14 -1q-33 29 -53 54t-34 55h81z" />
    <glyph glyph-name="Uacute" unicode="&#xda;" horiz-adv-x="676" 
d="M574 266q0 -65 -12 -116t-39.5 -86.5t-73 -54.5t-112.5 -19q-56 0 -100 12.5t-74 44t-45.5 84.5t-15.5 135v408h84v-424q0 -50 7 -85t24.5 -57t47 -32t74.5 -10q80 0 118 42.5t38 141.5v424h79v-408v0zM443 815q-15 -30 -35 -55t-53 -54q-5 0 -14 1t-19 2t-19 2t-13 2
l71 102h82v0z" />
    <glyph glyph-name="Ucircumflex" unicode="&#xdb;" horiz-adv-x="676" 
d="M574 266q0 -65 -12 -116t-39.5 -86.5t-73 -54.5t-112.5 -19q-56 0 -100 12.5t-74 44t-45.5 84.5t-15.5 135v408h84v-424q0 -50 7 -85t24.5 -57t47 -32t74.5 -10q80 0 118 42.5t38 141.5v424h79v-408v0zM482 711q-14 -3 -32.5 -4.5t-34.5 -1.5l-73 77l-74 -77
q-14 0 -33 1.5t-33 3.5l24.5 32l20 26t20 23l22.5 24h108q24 -26 43 -49.5z" />
    <glyph glyph-name="Ugrave" unicode="&#xd9;" horiz-adv-x="676" 
d="M574 266q0 -65 -12 -116t-39.5 -86.5t-73 -54.5t-112.5 -19q-56 0 -100 12.5t-74 44t-45.5 84.5t-15.5 135v408h84v-424q0 -50 7 -85t24.5 -57t47 -32t74.5 -10q80 0 118 42.5t38 141.5v424h79v-408v0zM393 713q-4 -1 -13.5 -2l-19.5 -2t-19 -2t-14 -1q-33 29 -53 54
t-34 55h81z" />
    <glyph glyph-name="dotlessi" unicode="&#x131;" horiz-adv-x="279" 
d="M101 0v522h78v-522h-78z" />
    <glyph glyph-name="circumflex" unicode="&#x2c6;" 
d="M398 578q-15 -3 -32 -4.5t-34 -1.5l-81 112l-81 -112q-14 0 -32 1.5t-32 3.5q25 44 49 80l51 74h92l52.5 -74.5t47.5 -78.5z" />
    <glyph glyph-name="tilde" unicode="&#x2dc;" 
d="M81 583q8 37 17.5 59t21.5 34t27 15.5t32 3.5q25 0 51 -14l53 -30q19 -11 35 -11q18 0 27.5 11t16.5 52q12 0 28 -3.5t30 -9.5q-7 -36 -16.5 -58t-21.5 -34t-26.5 -16t-32.5 -4q-12 0 -25 3t-27 11l-52 29q-21 12 -36 12q-10 0 -16.5 -2t-12 -9t-9 -19.5t-7.5 -32.5
q-12 0 -28 3.5t-29 9.5z" />
    <glyph glyph-name="macron" unicode="&#xaf;" 
d="M379 666q0 -14 -2 -31.5t-6 -31.5h-244v63h252v0z" />
    <glyph glyph-name="macron" unicode="&#x2c9;" 
d="M379 666q0 -14 -2 -31.5t-6 -31.5h-244v63h252v0z" />
    <glyph glyph-name="breve" unicode="&#x2d8;" 
d="M424 705q-25 -75 -70 -105t-105 -30t-103.5 31t-66.5 104q29 13 62 19q28 -92 110 -92q84 0 114 92q31 -6 59 -19z" />
    <glyph glyph-name="dotaccent" unicode="&#x2d9;" 
d="M297 633q0 -21 -12 -35t-36 -14q-23 0 -34.5 14.5t-11.5 34.5t12 35t35 15t35 -15t12 -35z" />
    <glyph glyph-name="ring" unicode="&#x2da;" 
d="M362 669q0 -44 -29.5 -71.5t-81.5 -27.5q-57 0 -85 27t-28 72q0 44 29 72.5t84 28.5t83 -27t28 -74zM304 671q0 26 -14 40.5t-39 14.5q-23 0 -39 -13.5t-16 -41.5q0 -58 53 -58q24 0 39.5 14.5t15.5 43.5z" />
    <glyph glyph-name="cedilla" unicode="&#xb8;" 
d="M363 -120q0 -46 -31.5 -71.5t-96.5 -25.5q-13 0 -30.5 2t-31.5 5q-3 14 -4 28t-1 26q15 -5 32.5 -6.5t29.5 -1.5q29 0 48.5 9t19.5 37q0 25 -16 35t-45 10q-9 0 -22 -1t-22 -3q1 10 4.5 24t7.5 22h53q53 0 79 -23.5t26 -65.5z" />
    <glyph glyph-name="hungarumlaut" unicode="&#x2dd;" 
d="M266 731q-14 -38 -38.5 -79.5t-56.5 -79.5q-14 0 -28.5 1.5t-26.5 5.5l74 152h76v0zM403 731q-14 -38 -38.5 -79.5t-56.5 -79.5q-14 0 -29 1.5t-26 5.5l74 152h76v0z" />
    <glyph glyph-name="ogonek" unicode="&#x2db;" 
d="M370 20q-47 -23 -76.5 -41.5t-45.5 -35t-21.5 -31.5t-5.5 -31q0 -28 15 -38t40 -10q13 0 26 2t27 5q-1 -10 -3.5 -24.5t-5.5 -25.5q-14 -3 -31 -5t-30 -2q-45 0 -74.5 20.5t-29.5 68.5q0 24 9.5 45t31.5 40.5t56.5 38.5t83.5 39l34 -15v0z" />
    <glyph glyph-name="caron" unicode="&#x2c7;" 
d="M104 727q15 4 32 5.5t34 1.5l81 -112l81 112q14 0 32 -1.5t32 -4.5q-25 -44 -49 -80l-51 -73h-92q-28 37 -52.5 73.5t-47.5 78.5z" />
    <glyph glyph-name="lslash" unicode="&#x142;" horiz-adv-x="280" 
d="M101 0v327l-54 -18v73l54 18v337q15 3 38 5t40 2v-318l56 19q0 -20 -1.5 -39t-5.5 -36l-49 -17v-353h-78z" />
    <glyph glyph-name="Scaron" unicode="&#x160;" horiz-adv-x="519" 
d="M422 812q-13 -18 -24 -31.5l-21 -25.5l-20 -23l-22 -24h-108q-25 26 -43.5 48.5t-41.5 54.5q14 3 32 4.5t34 1.5l74 -77l74 77q14 0 33 -1.5t33 -3.5zM464 178q0 -42 -15 -76.5t-43 -59.5t-68.5 -38.5t-92.5 -13.5q-42 0 -90.5 7t-88.5 24q2 18 8 39t11 36
q42 -18 83.5 -25.5t84.5 -7.5q63 0 95 27.5t32 80.5q0 38 -23.5 64t-58 46.5t-75.5 39t-75.5 42.5t-58 56.5t-23.5 80.5q0 45 16.5 79t46.5 57.5t71.5 35.5t90.5 12q32 0 71.5 -3.5t69.5 -11.5q0 -14 -4 -36.5t-9 -39.5q-31 8 -68.5 13t-69.5 5q-38 0 -63 -7.5t-40 -21
t-21 -32.5t-6 -42q0 -34 23 -57t58 -42t75.5 -38t75.5 -44.5t58 -61t23 -87.5z" />
    <glyph glyph-name="scaron" unicode="&#x161;" horiz-adv-x="449" 
d="M103 727q15 4 32 5.5t34 1.5l81 -112l81 112q14 0 32 -1.5t32 -4.5q-25 -44 -49 -80l-51 -73h-92q-28 37 -52.5 73.5t-47.5 78.5zM392 142q0 -39 -15 -68t-41 -47.5t-60 -27.5t-72 -9t-78 7.5t-71 24.5l9.5 35.5t11.5 34.5q31 -16 69 -23.5t75 -7.5q49 0 69.5 19.5
t20.5 55.5q0 28 -18 46t-45.5 31.5t-59 26t-59 29.5t-45.5 42.5t-18 64.5q0 38 15 67.5t40.5 49t60 29.5t73.5 10q24 0 57.5 -3.5t62.5 -11.5q0 -16 -3.5 -36t-8.5 -37q-27 10 -62 14.5t-67 4.5q-43 0 -66 -18.5t-23 -59.5q0 -24 18.5 -39.5t46 -28t59.5 -25.5t59.5 -32
t46 -47t18.5 -71z" />
    <glyph glyph-name="Yacute" unicode="&#xdd;" horiz-adv-x="550" 
d="M526 669l-52 -108.5l-50 -101.5l-51.5 -99.5l-56.5 -102.5v-257h-84v257q-60 103 -111 206t-97 206q18 4 43.5 5.5t43.5 1.5l143 -294q5 -11 10 -23.5t10 -26.5h6l9.5 26.5t10.5 25.5l144 292q19 0 41 -1.5t41 -5.5zM380 815q-15 -30 -35 -55t-53 -54q-5 0 -14 1t-19 2
t-19 2t-13 2l71 102h82v0z" />
    <glyph glyph-name="yacute" unicode="&#xfd;" horiz-adv-x="510" 
d="M305 9q-41 -119 -90.5 -172t-118.5 -53q-18 0 -42 3.5t-47 15.5q2 19 6.5 38.5t10.5 33.5q15 -8 36 -12t41 -4q31 0 52.5 17t37.5 54l30 70q-24 56 -48.5 120l-48 131.5l-45 135t-38.5 131.5q16 3 37.5 5t38.5 2l125 -384q5 -14 9.5 -30t6.5 -32h4q6 32 17 63l126 383
q15 0 37.5 -1.5t38.5 -5.5zM378 731q-14 -38 -40 -80t-58 -79q-14 0 -30.5 1.5t-27.5 5.5l78 152h78v0z" />
    <glyph glyph-name="Thorn" unicode="&#xde;" horiz-adv-x="568" 
d="M511 350q0 -57 -19 -97.5t-51 -67t-73 -39t-86 -12.5h-96v-134h-83v674h83v-120q27 3 50.5 4t50.5 1q46 0 86.5 -11.5t71 -37t48.5 -65t18 -95.5zM426 350q0 39 -11 66t-30.5 43.5t-45 24t-54.5 7.5q-37 0 -99 -6v-282h84q70 0 113 34.5t43 112.5z" />
    <glyph glyph-name="thorn" unicode="&#xfe;" horiz-adv-x="575" 
d="M512 277q0 -150 -61 -218.5t-168 -68.5q-26 0 -53 5t-51 14v-215h-78v943q15 3 38 5t40 2v-267h4q37 32 72 43.5t74 11.5q41 0 74.5 -14t57.5 -45t37.5 -79.5t13.5 -116.5zM429 268q0 59 -8.5 96.5t-24 59t-38.5 30t-52 8.5q-32 0 -64.5 -10t-62.5 -31v-339
q23 -12 49.5 -17.5t52.5 -5.5q37 0 65 11t46.5 35.5t27.5 64.5t9 98z" />
    <glyph glyph-name="Zcaron" unicode="&#x17d;" horiz-adv-x="550" 
d="M505 74q0 -17 -2 -37.5t-5 -36.5h-446l-7 67l357 533h-337q-3 18 -4.5 37.5t-1.5 36.5h434l6 -67l-356 -533h362v0zM417 812q-13 -18 -24 -31.5l-21 -25.5l-20 -23l-22 -24h-108q-25 26 -43.5 48.5t-41.5 54.5q14 3 32 4.5t34 1.5l74 -77l74 77q14 0 33 -1.5t33 -3.5z
" />
    <glyph glyph-name="zcaron" unicode="&#x17e;" horiz-adv-x="469" 
d="M46 0l-8 63l286 392h-261q-2 17 -3.5 35t-1.5 32h349l8 -63l-286 -392h285q5 -17 7.5 -34t2.5 -33h-378zM86 727q15 4 32 5.5t34 1.5l81 -112l81 112q14 0 32 -1.5t32 -4.5q-25 -44 -49 -80l-51 -73h-92q-28 37 -52.5 73.5t-47.5 78.5z" />
    <glyph glyph-name="DLE" unicode="&#xe000;" horiz-adv-x="563" 
d="M453 34l-52 58q-26 -20 -57 -30.5t-63 -10.5q-71 0 -121 40l-50 -57l-48 46l53 57q-20 28 -31 62.5t-11 76.5t11.5 77.5t31.5 62.5l-52 55l47 46l50 -55q26 20 57.5 30t64.5 10q69 0 121 -37l48 52l47 -45l-50 -54q20 -26 31.5 -61.5t11.5 -78.5q0 -42 -12 -77t-33 -64
l53 -57zM426 277q0 77 -41 119t-102 42q-28 0 -54 -11t-46 -31.5t-32 -50.5t-12 -68q0 -78 39.5 -120t101.5 -42q30 0 56.5 11t46.5 31.5t31.5 50.5t11.5 69z" />
    <glyph glyph-name="Euro" unicode="&#x20ac;" 
d="M179 232q11 -89 46.5 -129.5t101.5 -40.5q32 0 66 8t61 24q8 -36 9 -76q-29 -15 -66 -21.5t-70 -6.5q-195 0 -228 242h-65v56h60q-1 12 -1 24v26v29q0 15 2 29h-61v55h67q10 62 30.5 106t50 72.5t66 41.5t78.5 13q14 0 31 -1.5t34.5 -4t33.5 -6t27 -8.5q0 -17 -2 -37.5
t-7 -38.5q-23 10 -54.5 16.5t-61.5 6.5q-60 0 -96.5 -35.5t-49.5 -124.5h234q0 -11 -2 -26t-6 -29h-232q-1 -14 -1 -29v-32v-25q0 -11 1 -22h222q0 -11 -2 -26.5t-6 -29.5h-210z" />
    <glyph glyph-name="onehalf" unicode="&#xbd;" horiz-adv-x="838" 
d="M315 343q0 -11 -1 -28t-4 -28h-267v56h126v274l-118 -19q-4 11 -5.5 26t-1.5 26l129 24h55v-331h87v0zM805 56q0 -12 -1 -27.5t-3 -28.5h-263l-3 50q53 36 88 65.5t56.5 55t30.5 48.5t9 46q0 40 -22 56t-58 16q-25 0 -50.5 -5t-39.5 -13q-4 11 -6.5 28.5t-3.5 28.5
q23 9 53.5 13.5t54.5 4.5q61 0 99 -31t38 -96q0 -51 -36.5 -102t-121.5 -109h179v0zM310 -8q-15 2 -27.5 6.5t-23.5 10.5l271 675q12 -1 27 -4t27 -8z" />
    <glyph glyph-name="onequarter" unicode="&#xbc;" horiz-adv-x="828" 
d="M315 343q0 -11 -1 -28t-4 -28h-267v56h126v274l-118 -19q-4 11 -5.5 26t-1.5 26l129 24h55v-331h87v0zM814 138q0 -11 -2 -27t-4 -27h-50v-84h-57v84h-193v56q18 34 39.5 68.5l43.5 67.5l43.5 63.5t40.5 54.5q4 0 11.5 -1l15.5 -2t15.5 -2.5t11.5 -3.5l-163 -249h136v88
h56v-86h56v0zM310 -8q-15 2 -27.5 6.5t-23.5 10.5l271 675q12 -1 27 -4t27 -8z" />
    <glyph glyph-name="onesuperior" unicode="&#xb9;" horiz-adv-x="339" 
d="M315 343q0 -11 -1 -28t-4 -28h-267v56h126v274l-118 -19q-4 11 -5.5 26t-1.5 26l129 24h55v-331h87v0z" />
    <glyph glyph-name="threequarters" unicode="&#xbe;" horiz-adv-x="828" 
d="M293 396q0 -59 -44 -87.5t-116 -28.5q-25 0 -53.5 4.5t-49.5 12.5q1 14 3.5 31t6.5 27q20 -8 42 -13.5t50 -5.5q45 0 70 13t25 48q0 38 -22.5 50t-64.5 12h-66v54h64q45 0 63 16t18 45q0 28 -21.5 39.5t-59.5 11.5q-25 0 -46.5 -4t-40.5 -11q-3 8 -5.5 25t-3.5 31
q26 8 52.5 11.5t52.5 3.5q28 0 52.5 -5.5t43 -17t29.5 -30.5t11 -46q0 -34 -18 -56.5t-48 -32.5v-3q35 -9 55.5 -32.5t20.5 -61.5zM814 138q0 -11 -2 -27t-4 -27h-50v-84h-57v84h-193v56q18 34 39.5 68.5l43.5 67.5l43.5 63.5t40.5 54.5q4 0 11.5 -1l15.5 -2t15.5 -2.5
t11.5 -3.5l-163 -249h136v88h56v-86h56v0zM310 -8q-15 2 -27.5 6.5t-23.5 10.5l271 675q12 -1 27 -4t27 -8z" />
    <glyph glyph-name="threesuperior" unicode="&#xb3;" horiz-adv-x="339" 
d="M293 396q0 -59 -44 -87.5t-116 -28.5q-25 0 -53.5 4.5t-49.5 12.5q1 14 3.5 31t6.5 27q20 -8 42 -13.5t50 -5.5q45 0 70 13t25 48q0 38 -22.5 50t-64.5 12h-66v54h64q45 0 63 16t18 45q0 28 -21.5 39.5t-59.5 11.5q-25 0 -46.5 -4t-40.5 -11q-3 8 -5.5 25t-3.5 31
q26 8 52.5 11.5t52.5 3.5q28 0 52.5 -5.5t43 -17t29.5 -30.5t11 -46q0 -34 -18 -56.5t-48 -32.5v-3q35 -9 55.5 -32.5t20.5 -61.5z" />
    <glyph glyph-name="twosuperior" unicode="&#xb2;" horiz-adv-x="339" 
d="M306 343q0 -12 -1 -27.5t-3 -28.5h-263l-3 50q53 36 88 65.5t56.5 55t30.5 48.5t9 46q0 40 -22 56t-58 16q-25 0 -50.5 -5t-39.5 -13q-4 11 -6.5 28.5t-3.5 28.5q23 9 53.5 13.5t54.5 4.5q61 0 99 -31t38 -96q0 -51 -36.5 -102t-121.5 -109h179v0z" />
    <glyph glyph-name="brokenbar" unicode="&#xa6;" horiz-adv-x="252" 
d="M94 401v273h64v-273h-64zM94 0v277h64v-277h-64z" />
    <glyph glyph-name="minus" unicode="&#x2212;" horiz-adv-x="501" 
d="M74 243v65h353v-65h-353z" />
    <glyph glyph-name="multiply" unicode="&#xd7;" horiz-adv-x="496" 
d="M396 32l-148 153l-150 -153l-43 44l151 152l-151 149l43 44l150 -153l148 153l45 -44l-152 -149l152 -152z" />
    <glyph glyph-name="Lslash" unicode="&#x141;" horiz-adv-x="498" 
d="M478 75q0 -35 -8 -75h-367v312l-61 -21v72l61 21v290h84v-260l92 33q0 -40 -9 -76l-83 -29v-267h291v0z" />
    <glyph glyph-name="exclam" unicode="!" horiz-adv-x="244" 
d="M162 674q0 -120 -3 -245.5t-8 -239.5q-13 -3 -28.5 -5t-29.5 -2q-5 118 -8.5 244.5t-3.5 247.5h81v0zM168 36q0 -23 -13 -35t-33 -12t-33.5 12t-13.5 35t13.5 36.5t33.5 13.5t33 -13.5t13 -36.5z" />
    <glyph glyph-name="quotedbl" unicode="&#x22;" horiz-adv-x="331" 
d="M117 453q-24 -8 -51 -8l-16 268h84zM264 453q-26 -8 -51 -8l-16 268h84z" />
    <glyph glyph-name="numbersign" unicode="#" horiz-adv-x="502" 
d="M476 508q0 -16 -2.5 -34.5t-7.5 -35.5h-95l-33 -195h97q0 -15 -2 -33t-7 -35h-100l-29 -175h-55l29 175h-99l-29 -175h-55l29 175h-91q0 17 3 35t8 33h92l33 195h-96q1 17 3.5 35.5t7.5 34.5h97l28 166h55l-28 -166h98l29 166h55l-28 -166h93v0zM316 438h-99l-33 -195h99
z" />
    <glyph glyph-name="dollar" unicode="$" 
d="M446 216q0 -30 -11.5 -57t-34 -48t-55.5 -35t-76 -18l3 -58h-73l3 57q-36 2 -74 7.5t-69 17.5q2 15 6 36.5t9 33.5q38 -15 81.5 -21.5t88.5 -6.5q60 0 93 22t33 64q0 35 -23.5 54.5t-58.5 32.5t-75.5 24t-75.5 27.5t-58.5 43.5t-23.5 73q0 63 47.5 105t127.5 50l-2 54h74
l-3 -51q28 -2 58 -4.5t56 -7.5q-1 -14 -3.5 -34t-6.5 -36q-29 7 -69 11t-74 4q-38 0 -63 -6.5t-40 -17.5t-21 -27t-6 -34q0 -29 23.5 -45.5t58.5 -28t76 -22.5t76 -29.5t58.5 -48.5t23.5 -81z" />
    <glyph glyph-name="percent" unicode="%" horiz-adv-x="805" 
d="M344 494q0 -90 -39 -140t-113 -50q-71 0 -113 46t-42 144q0 95 43 142.5t112 47.5q73 0 112.5 -46.5t39.5 -143.5zM278 494q0 64 -18.5 100t-67.5 36q-47 0 -67.5 -34.5t-20.5 -101.5q0 -69 20 -102.5t68 -33.5t67 35t19 101zM298 -9q-30 4 -57 18l265 671
q15 0 31.5 -2.5t30.5 -6.5zM768 180q0 -90 -39.5 -140t-113.5 -50q-71 0 -113 46t-42 144q0 95 43 142.5t112 47.5q73 0 113 -46.5t40 -143.5zM701 180q0 64 -18 100t-68 36q-46 0 -67 -34.5t-21 -101.5q0 -69 20.5 -102.5t67.5 -33.5q48 0 67 35t19 101z" />
    <glyph glyph-name="ampersand" unicode="&#x26;" horiz-adv-x="637" 
d="M608 2q-18 -4 -40.5 -7t-40.5 -3l-77 91q-56 -50 -103.5 -71.5t-100.5 -21.5q-50 0 -87 14t-61 39.5t-36 60t-12 76.5q0 35 8 63t26 52t48 46t74 45q-29 44 -40 77t-11 61q0 38 12 68t34 50.5t51.5 31t65.5 10.5q69 0 107.5 -36t38.5 -100q0 -54 -40 -97.5t-117 -81.5
q3 -4 20.5 -26l41 -50.5l48.5 -59t44 -51.5q26 27 56.5 62l67.5 80q3 -20 5.5 -44t2.5 -47l-47.5 -55.5t-43.5 -46.5zM242 335q-38 -21 -61 -38t-35 -34t-16 -36t-4 -43q0 -67 34 -95.5t91 -28.5q16 0 33 2.5t36 10.5t41 22.5t48 38.5l-27 32l-34 40l-36 42.5l-32.5 40
l-25 31t-12.5 15.5zM395 552q0 38 -21 56t-59 18t-62.5 -21t-24.5 -69q0 -26 8.5 -53t33.5 -65q39 20 63.5 36.5t38 32.5t18.5 31.5t5 33.5z" />
    <glyph glyph-name="quotesingle" unicode="'" horiz-adv-x="184" 
d="M117 453q-24 -8 -51 -8l-16 268h84z" />
    <glyph glyph-name="agrave" unicode="&#xe0;" horiz-adv-x="531" 
d="M510 44q0 -29 -17 -41.5t-44 -12.5q-32 0 -56.5 11t-37.5 43h-3q-38 -30 -74 -42t-75 -12q-67 0 -109 34t-42 106q0 83 46.5 117.5t139.5 39.5l110 5v147q-18 11 -49.5 17t-62.5 6q-33 0 -67 -6t-56 -16q-4 14 -6.5 34.5t-3.5 37.5q34 10 65.5 15t69.5 5q25 0 51 -3
t50.5 -9t46 -15t37.5 -21v-384q0 -18 6 -26t23 -8h58v-22zM348 235l-113 -4q-59 -2 -81 -24t-22 -71q0 -43 20 -62t65 -19q34 0 69.5 12t61.5 31v137zM299 579q-12 -4 -28 -5.5t-30 -1.5q-32 37 -58.5 79t-40.5 80h79l78 -152v0z" />
    <glyph glyph-name="acircumflex" unicode="&#xe2;" horiz-adv-x="531" 
d="M510 44q0 -29 -17 -41.5t-44 -12.5q-32 0 -56.5 11t-37.5 43h-3q-38 -30 -74 -42t-75 -12q-67 0 -109 34t-42 106q0 83 46.5 117.5t139.5 39.5l110 5v147q-18 11 -49.5 17t-62.5 6q-33 0 -67 -6t-56 -16q-4 14 -6.5 34.5t-3.5 37.5q34 10 65.5 15t69.5 5q25 0 51 -3
t50.5 -9t46 -15t37.5 -21v-384q0 -18 6 -26t23 -8h58v-22zM348 235l-113 -4q-59 -2 -81 -24t-22 -71q0 -43 20 -62t65 -19q34 0 69.5 12t61.5 31v137zM410 578q-15 -3 -32 -4.5t-34 -1.5l-81 112l-81 -112q-14 0 -32 1.5t-32 3.5q25 44 49 80l51 74h92l52.5 -74.5
t47.5 -78.5z" />
    <glyph glyph-name="adieresis" unicode="&#xe4;" horiz-adv-x="531" 
d="M510 44q0 -29 -17 -41.5t-44 -12.5q-32 0 -56.5 11t-37.5 43h-3q-38 -30 -74 -42t-75 -12q-67 0 -109 34t-42 106q0 83 46.5 117.5t139.5 39.5l110 5v147q-18 11 -49.5 17t-62.5 6q-33 0 -67 -6t-56 -16q-4 14 -6.5 34.5t-3.5 37.5q34 10 65.5 15t69.5 5q25 0 51 -3
t50.5 -9t46 -15t37.5 -21v-384q0 -18 6 -26t23 -8h58v-22zM348 235l-113 -4q-59 -2 -81 -24t-22 -71q0 -43 20 -62t65 -19q34 0 69.5 12t61.5 31v137zM217 633q0 -20 -12 -33.5t-33 -13.5t-33 13.5t-12 33.5t12 34.5t34 14.5q21 0 32.5 -14.5t11.5 -34.5zM392 633
q0 -20 -12 -33.5t-33 -13.5t-32.5 13.5t-11.5 33.5t11.5 34.5t33.5 14.5q21 0 32.5 -14.5t11.5 -34.5z" />
    <glyph glyph-name="atilde" unicode="&#xe3;" horiz-adv-x="531" 
d="M510 44q0 -29 -17 -41.5t-44 -12.5q-32 0 -56.5 11t-37.5 43h-3q-38 -30 -74 -42t-75 -12q-67 0 -109 34t-42 106q0 83 46.5 117.5t139.5 39.5l110 5v147q-18 11 -49.5 17t-62.5 6q-33 0 -67 -6t-56 -16q-4 14 -6.5 34.5t-3.5 37.5q34 10 65.5 15t69.5 5q25 0 51 -3
t50.5 -9t46 -15t37.5 -21v-384q0 -18 6 -26t23 -8h58v-22zM348 235l-113 -4q-59 -2 -81 -24t-22 -71q0 -43 20 -62t65 -19q34 0 69.5 12t61.5 31v137zM94 583q8 37 17.5 59t21.5 34t27 15.5t32 3.5q25 0 51 -14l53 -30q19 -11 35 -11q18 0 27.5 11t16.5 52q12 0 28 -3.5
t30 -9.5q-7 -36 -16.5 -58t-21.5 -34t-26.5 -16t-32.5 -4q-12 0 -25 3t-27 11l-52 29q-21 12 -36 12q-10 0 -16.5 -2t-12 -9t-9 -19.5t-7.5 -32.5q-12 0 -28 3.5t-29 9.5z" />
    <glyph glyph-name="aring" unicode="&#xe5;" horiz-adv-x="531" 
d="M510 44q0 -29 -17 -41.5t-44 -12.5q-32 0 -56.5 11t-37.5 43h-3q-38 -30 -74 -42t-75 -12q-67 0 -109 34t-42 106q0 83 46.5 117.5t139.5 39.5l110 5v147q-18 11 -49.5 17t-62.5 6q-33 0 -67 -6t-56 -16q-4 14 -6.5 34.5t-3.5 37.5q34 10 65.5 15t69.5 5q25 0 51 -3
t50.5 -9t46 -15t37.5 -21v-384q0 -18 6 -26t23 -8h58v-22zM348 235l-113 -4q-59 -2 -81 -24t-22 -71q0 -43 20 -62t65 -19q34 0 69.5 12t61.5 31v137zM368 669q0 -44 -29.5 -71.5t-81.5 -27.5q-57 0 -85 27t-28 72q0 44 29 72.5t84 28.5t83 -27t28 -74zM310 671
q0 26 -14 40.5t-39 14.5q-23 0 -39 -13.5t-16 -41.5q0 -58 53 -58q24 0 39.5 14.5t15.5 43.5z" />
    <glyph glyph-name="ccedilla" unicode="&#xe7;" horiz-adv-x="475" 
d="M429 21q-13 -8 -31 -14t-36.5 -9.5t-36.5 -5.5t-32 -2q-230 0 -230 262q0 75 17.5 128.5t47 87t69 49t84.5 15.5q30 0 68.5 -5.5t66.5 -16.5q-2 -17 -6.5 -37t-9.5 -37q-28 12 -57 17t-58 5q-32 0 -57.5 -9.5t-43.5 -31.5t-28 -58t-10 -89q0 -61 9 -100.5t27.5 -63
t46.5 -33t65 -9.5q30 0 62 7.5t55 21.5q6 -16 11 -35t7 -37zM364 -120q0 -46 -31.5 -71.5t-96.5 -25.5q-13 0 -30.5 2t-31.5 5q-3 14 -4 28t-1 26q15 -5 32.5 -6.5t29.5 -1.5q29 0 48.5 9t19.5 37q0 25 -16 35t-45 10q-9 0 -22 -1t-22 -3q1 10 4.5 24t7.5 22h53
q53 0 79 -23.5t26 -65.5z" />
    <glyph glyph-name="eacute" unicode="&#xe9;" horiz-adv-x="521" 
d="M462 325q0 -17 -0.5 -36.5t-2.5 -37.5h-312v-8q0 -45 7.5 -78.5t25 -56t47 -34t73.5 -11.5q35 0 71.5 9.5t59.5 23.5q7 -15 12.5 -34.5t8.5 -36.5q-29 -17 -73 -26t-82 -9q-115 0 -174.5 65t-59.5 199q0 74 16 126.5t44.5 86t66.5 49.5t83 16q92 0 140.5 -53.5
t48.5 -153.5zM271 470q-56 0 -88.5 -38t-34.5 -126h235q1 7 1 17v16q0 70 -29.5 100.5t-83.5 30.5zM395 731q-14 -38 -40 -80t-58 -79q-14 0 -30.5 1.5t-27.5 5.5l78 152h78v0z" />
    <glyph glyph-name="egrave" unicode="&#xe8;" horiz-adv-x="521" 
d="M462 325q0 -17 -0.5 -36.5t-2.5 -37.5h-312v-8q0 -45 7.5 -78.5t25 -56t47 -34t73.5 -11.5q35 0 71.5 9.5t59.5 23.5q7 -15 12.5 -34.5t8.5 -36.5q-29 -17 -73 -26t-82 -9q-115 0 -174.5 65t-59.5 199q0 74 16 126.5t44.5 86t66.5 49.5t83 16q92 0 140.5 -53.5
t48.5 -153.5zM271 470q-56 0 -88.5 -38t-34.5 -126h235q1 7 1 17v16q0 70 -29.5 100.5t-83.5 30.5zM310 579q-12 -4 -28 -5.5t-30 -1.5q-32 37 -58.5 79t-40.5 80h79l78 -152v0z" />
    <glyph glyph-name="ecircumflex" unicode="&#xea;" horiz-adv-x="521" 
d="M462 325q0 -17 -0.5 -36.5t-2.5 -37.5h-312v-8q0 -45 7.5 -78.5t25 -56t47 -34t73.5 -11.5q35 0 71.5 9.5t59.5 23.5q7 -15 12.5 -34.5t8.5 -36.5q-29 -17 -73 -26t-82 -9q-115 0 -174.5 65t-59.5 199q0 74 16 126.5t44.5 86t66.5 49.5t83 16q92 0 140.5 -53.5
t48.5 -153.5zM271 470q-56 0 -88.5 -38t-34.5 -126h235q1 7 1 17v16q0 70 -29.5 100.5t-83.5 30.5zM417 578q-15 -3 -32 -4.5t-34 -1.5l-81 112l-81 -112q-14 0 -32 1.5t-32 3.5q25 44 49 80l51 74h92l52.5 -74.5t47.5 -78.5z" />
    <glyph glyph-name="edieresis" unicode="&#xeb;" horiz-adv-x="521" 
d="M462 325q0 -17 -0.5 -36.5t-2.5 -37.5h-312v-8q0 -45 7.5 -78.5t25 -56t47 -34t73.5 -11.5q35 0 71.5 9.5t59.5 23.5q7 -15 12.5 -34.5t8.5 -36.5q-29 -17 -73 -26t-82 -9q-115 0 -174.5 65t-59.5 199q0 74 16 126.5t44.5 86t66.5 49.5t83 16q92 0 140.5 -53.5
t48.5 -153.5zM271 470q-56 0 -88.5 -38t-34.5 -126h235q1 7 1 17v16q0 70 -29.5 100.5t-83.5 30.5zM230 633q0 -20 -12 -33.5t-33 -13.5t-33 13.5t-12 33.5t12 34.5t34 14.5q21 0 32.5 -14.5t11.5 -34.5zM405 633q0 -20 -12 -33.5t-33 -13.5t-32.5 13.5t-11.5 33.5
t11.5 34.5t33.5 14.5q21 0 32.5 -14.5t11.5 -34.5z" />
    <glyph glyph-name="iacute" unicode="&#xed;" horiz-adv-x="279" 
d="M101 0v522h78v-522h-78zM264 731q-14 -38 -40 -80t-58 -79q-14 0 -30.5 1.5t-27.5 5.5l78 152h78v0z" />
    <glyph glyph-name="igrave" unicode="&#xec;" horiz-adv-x="279" 
d="M101 0v522h78v-522h-78zM173 579q-12 -4 -28 -5.5t-30 -1.5q-32 37 -58.5 79t-40.5 80h79l78 -152v0z" />
    <glyph glyph-name="icircumflex" unicode="&#xee;" horiz-adv-x="279" 
d="M286 578q-15 -3 -32 -4.5t-34 -1.5l-81 112l-81 -112q-14 0 -32 1.5t-32 3.5q25 44 49 80l51 74h92l52.5 -74.5t47.5 -78.5zM101 0v522h78v-522h-78z" />
    <glyph glyph-name="idieresis" unicode="&#xef;" horiz-adv-x="279" 
d="M101 0v522h78v-522h-78zM97 633q0 -20 -12 -33.5t-33 -13.5t-33 13.5t-12 33.5t12 34.5t34 14.5q21 0 32.5 -14.5t11.5 -34.5zM272 633q0 -20 -12 -33.5t-33 -13.5t-32.5 13.5t-11.5 33.5t11.5 34.5t33.5 14.5q21 0 32.5 -14.5t11.5 -34.5z" />
    <glyph glyph-name="ntilde" unicode="&#xf1;" horiz-adv-x="584" 
d="M411 0v373q0 40 -20.5 64t-71.5 24q-42 0 -75 -11t-65 -34v-416h-78v518q15 3 38 4.5t40 1.5v-51h4q38 33 76.5 46t81.5 13q30 0 56.5 -7.5t46.5 -26t32 -48.5t12 -75v-375h-77zM133 583q8 37 17.5 59t21.5 34t27 15.5t32 3.5q25 0 51 -14l53 -30q19 -11 35 -11
q18 0 27.5 11t16.5 52q12 0 28 -3.5t30 -9.5q-7 -36 -16.5 -58t-21.5 -34t-26.5 -16t-32.5 -4q-12 0 -25 3t-27 11l-52 29q-21 12 -36 12q-10 0 -16.5 -2t-12 -9t-9 -19.5t-7.5 -32.5q-12 0 -28 3.5t-29 9.5z" />
    <glyph glyph-name="oacute" unicode="&#xf3;" horiz-adv-x="568" 
d="M505 261q0 -69 -17 -120t-47 -84.5t-71 -50t-89 -16.5q-49 0 -89.5 15.5t-69 48t-44 84t-15.5 123.5q0 65 16.5 115.5t45.5 85t70 52.5t90 18q47 0 87.5 -14.5t70 -46.5t46 -84t16.5 -126zM422 261q0 57 -9.5 96t-27.5 63t-43 34t-57 10q-30 0 -55 -9t-43.5 -32.5
t-29 -62.5t-10.5 -99q0 -58 9 -97t26.5 -62.5t42.5 -33.5t57 -10t58 10t44 33t28 62.5t10 97.5zM403 731q-14 -38 -40 -80t-58 -79q-14 0 -30.5 1.5t-27.5 5.5l78 152h78v0z" />
    <glyph glyph-name="ograve" unicode="&#xf2;" horiz-adv-x="568" 
d="M505 261q0 -69 -17 -120t-47 -84.5t-71 -50t-89 -16.5q-49 0 -89.5 15.5t-69 48t-44 84t-15.5 123.5q0 65 16.5 115.5t45.5 85t70 52.5t90 18q47 0 87.5 -14.5t70 -46.5t46 -84t16.5 -126zM422 261q0 57 -9.5 96t-27.5 63t-43 34t-57 10q-30 0 -55 -9t-43.5 -32.5
t-29 -62.5t-10.5 -99q0 -58 9 -97t26.5 -62.5t42.5 -33.5t57 -10t58 10t44 33t28 62.5t10 97.5zM322 579q-12 -4 -28 -5.5t-30 -1.5q-32 37 -58.5 79t-40.5 80h79l78 -152v0z" />
    <glyph glyph-name="ocircumflex" unicode="&#xf4;" horiz-adv-x="568" 
d="M505 261q0 -69 -17 -120t-47 -84.5t-71 -50t-89 -16.5q-49 0 -89.5 15.5t-69 48t-44 84t-15.5 123.5q0 65 16.5 115.5t45.5 85t70 52.5t90 18q47 0 87.5 -14.5t70 -46.5t46 -84t16.5 -126zM422 261q0 57 -9.5 96t-27.5 63t-43 34t-57 10q-30 0 -55 -9t-43.5 -32.5
t-29 -62.5t-10.5 -99q0 -58 9 -97t26.5 -62.5t42.5 -33.5t57 -10t58 10t44 33t28 62.5t10 97.5zM430 578q-15 -3 -32 -4.5t-34 -1.5l-81 112l-81 -112q-14 0 -32 1.5t-32 3.5q25 44 49 80l51 74h92l52.5 -74.5t47.5 -78.5z" />
    <glyph glyph-name="odieresis" unicode="&#xf6;" horiz-adv-x="568" 
d="M505 261q0 -69 -17 -120t-47 -84.5t-71 -50t-89 -16.5q-49 0 -89.5 15.5t-69 48t-44 84t-15.5 123.5q0 65 16.5 115.5t45.5 85t70 52.5t90 18q47 0 87.5 -14.5t70 -46.5t46 -84t16.5 -126zM422 261q0 57 -9.5 96t-27.5 63t-43 34t-57 10q-30 0 -55 -9t-43.5 -32.5
t-29 -62.5t-10.5 -99q0 -58 9 -97t26.5 -62.5t42.5 -33.5t57 -10t58 10t44 33t28 62.5t10 97.5zM242 633q0 -20 -12 -33.5t-33 -13.5t-33 13.5t-12 33.5t12 34.5t34 14.5q21 0 32.5 -14.5t11.5 -34.5zM417 633q0 -20 -12 -33.5t-33 -13.5t-32.5 13.5t-11.5 33.5t11.5 34.5
t33.5 14.5q21 0 32.5 -14.5t11.5 -34.5z" />
    <glyph glyph-name="otilde" unicode="&#xf5;" horiz-adv-x="568" 
d="M505 261q0 -69 -17 -120t-47 -84.5t-71 -50t-89 -16.5q-49 0 -89.5 15.5t-69 48t-44 84t-15.5 123.5q0 65 16.5 115.5t45.5 85t70 52.5t90 18q47 0 87.5 -14.5t70 -46.5t46 -84t16.5 -126zM422 261q0 57 -9.5 96t-27.5 63t-43 34t-57 10q-30 0 -55 -9t-43.5 -32.5
t-29 -62.5t-10.5 -99q0 -58 9 -97t26.5 -62.5t42.5 -33.5t57 -10t58 10t44 33t28 62.5t10 97.5zM114 583q8 37 17.5 59t21.5 34t27 15.5t32 3.5q25 0 51 -14l53 -30q19 -11 35 -11q18 0 27.5 11t16.5 52q12 0 28 -3.5t30 -9.5q-7 -36 -16.5 -58t-21.5 -34t-26.5 -16
t-32.5 -4q-12 0 -25 3t-27 11l-52 29q-21 12 -36 12q-10 0 -16.5 -2t-12 -9t-9 -19.5t-7.5 -32.5q-12 0 -28 3.5t-29 9.5z" />
    <glyph glyph-name="uacute" unicode="&#xfa;" horiz-adv-x="582" 
d="M403 0v45h-4q-38 -28 -75.5 -41.5t-81.5 -13.5q-29 0 -55.5 7.5t-46.5 26t-31.5 48.5t-11.5 75v372q16 2 38 4t39 2v-375q0 -41 20.5 -65t71.5 -24q41 0 74 11t63 30v417q15 2 38 4t40 2v-525h-78zM410 731q-14 -38 -40 -80t-58 -79q-14 0 -30.5 1.5t-27.5 5.5l78 152h78
v0z" />
    <glyph glyph-name="ugrave" unicode="&#xf9;" horiz-adv-x="582" 
d="M403 0v45h-4q-38 -28 -75.5 -41.5t-81.5 -13.5q-29 0 -55.5 7.5t-46.5 26t-31.5 48.5t-11.5 75v372q16 2 38 4t39 2v-375q0 -41 20.5 -65t71.5 -24q41 0 74 11t63 30v417q15 2 38 4t40 2v-525h-78zM332 579q-12 -4 -28 -5.5t-30 -1.5q-32 37 -58.5 79t-40.5 80h79
l78 -152v0z" />
    <glyph glyph-name="ucircumflex" unicode="&#xfb;" horiz-adv-x="582" 
d="M403 0v45h-4q-38 -28 -75.5 -41.5t-81.5 -13.5q-29 0 -55.5 7.5t-46.5 26t-31.5 48.5t-11.5 75v372q16 2 38 4t39 2v-375q0 -41 20.5 -65t71.5 -24q41 0 74 11t63 30v417q15 2 38 4t40 2v-525h-78zM435 578q-15 -3 -32 -4.5t-34 -1.5l-81 112l-81 -112q-14 0 -32 1.5
t-32 3.5q25 44 49 80l51 74h92l52.5 -74.5t47.5 -78.5z" />
    <glyph glyph-name="udieresis" unicode="&#xfc;" horiz-adv-x="582" 
d="M403 0v45h-4q-38 -28 -75.5 -41.5t-81.5 -13.5q-29 0 -55.5 7.5t-46.5 26t-31.5 48.5t-11.5 75v372q16 2 38 4t39 2v-375q0 -41 20.5 -65t71.5 -24q41 0 74 11t63 30v417q15 2 38 4t40 2v-525h-78zM247 633q0 -20 -12 -33.5t-33 -13.5t-33 13.5t-12 33.5t12 34.5t34 14.5
q21 0 32.5 -14.5t11.5 -34.5zM422 633q0 -20 -12 -33.5t-33 -13.5t-32.5 13.5t-11.5 33.5t11.5 34.5t33.5 14.5q21 0 32.5 -14.5t11.5 -34.5z" />
    <glyph glyph-name="dagger" unicode="&#x2020;" horiz-adv-x="523" 
d="M299 291v-420q-16 -5 -36.5 -7t-38.5 -2v429h-173v71h173v183h75v-183h173v-71h-173z" />
    <glyph glyph-name="degree" unicode="&#xb0;" horiz-adv-x="324" 
d="M289 551q0 -57 -34.5 -93.5t-92.5 -36.5q-62 0 -94.5 35t-32.5 93q0 57 35 93t92 36q59 0 93 -34.5t34 -92.5zM219 551q0 29 -15.5 47t-41.5 18t-41 -18t-15 -47q0 -28 14 -47t42 -19t42.5 18.5t14.5 47.5z" />
    <glyph glyph-name="cent" unicode="&#xa2;" 
d="M461 100q-23 -14 -56 -21.5t-61 -9.5l3 -69h-76l3 70q-100 11 -156 75t-56 182q0 69 17 118.5t46.5 82.5t68 51t80.5 22l-3 73h76l-3 -72q27 -2 55 -7t49 -13q-2 -17 -6.5 -36t-9.5 -36q-27 11 -60 16.5t-62 5.5q-33 0 -63.5 -9t-54 -31t-37.5 -58t-14 -89
q0 -61 13 -100.5t36.5 -62.5t56.5 -32.5t72 -9.5q31 0 66 8t60 22q5 -16 9.5 -34t6.5 -36z" />
    <glyph glyph-name="sterling" unicode="&#xa3;" 
d="M479 70q0 -33 -8 -70h-383v64q90 27 90 129q0 28 -13.5 62.5l-28.5 72.5h-82v58h57q-10 26 -15.5 52t-5.5 46q0 45 14 81.5t41 63t66 41t88 14.5q32 0 71.5 -3t70.5 -11q0 -14 -3.5 -35t-8.5 -39q-12 4 -28.5 7t-34 5.5t-35.5 3.5t-33 1q-69 0 -98.5 -33t-29.5 -97
q0 -19 6.5 -45t17.5 -52h232q0 -13 -2.5 -28.5t-5.5 -29.5h-197q14 -32 26 -66.5t12 -65.5q0 -42 -17 -72.5t-48 -53.5h285v0z" />
    <glyph glyph-name="section" unicode="&#xa7;" horiz-adv-x="499" 
d="M456 294q0 -45 -27.5 -85t-78.5 -67q-14 8 -25.5 19.5t-20.5 24.5q46 23 62 47.5t16 49.5q0 34 -21.5 54.5t-53.5 35t-69 26.5t-69 29.5t-53.5 43.5t-21.5 68q0 32 14 58t39.5 45.5t61 30t77.5 10.5q23 0 55.5 -3t60.5 -10q-1 -14 -4 -35t-7 -34q-60 17 -126 17
q-45 0 -71.5 -19t-26.5 -53q0 -28 21.5 -45.5t53.5 -30.5t69.5 -26t69.5 -31.5t53.5 -47t21.5 -72.5zM43 251q0 45 27.5 85.5t79.5 66.5q14 -8 25 -19.5t21 -24.5q-46 -23 -62.5 -47.5t-16.5 -49.5q0 -34 21.5 -54.5t53.5 -35t69 -26.5t69 -29.5t53.5 -43.5t21.5 -68
q0 -32 -14 -58t-39.5 -45.5t-60.5 -30t-77 -10.5q-23 0 -55.5 3t-61.5 10q1 14 4 35t7 34q60 -17 127 -17q45 0 71.5 19t26.5 53q0 28 -21.5 45.5t-53.5 30.5t-70 26t-70 31.5t-53.5 47t-21.5 72.5z" />
    <glyph glyph-name="bullet" unicode="&#x2022;" horiz-adv-x="351" 
d="M273 277q0 -45 -28 -72t-70 -27t-69.5 27t-27.5 72q0 46 27.5 74t69.5 28t70 -28t28 -74z" />
    <glyph glyph-name="paragraph" unicode="&#xb6;" 
d="M437 124q0 -46 -6.5 -83.5t-22.5 -69t-42.5 -58.5t-66.5 -52l-33 41q36 22 59 46t35.5 51t17.5 57.5t5 66.5v497q-6 2 -16.5 3.5t-22.5 3t-23.5 2.5t-20.5 1v-507q0 -30 -3.5 -53t-12.5 -41.5t-24.5 -34.5t-39.5 -31l-31 40q32 20 44 46t12 64v117h-21q-40 0 -74.5 12
t-59.5 37.5t-39 66t-14 97.5q0 65 20.5 110.5t54 74.5t76 42.5t86.5 13.5q42 0 83 -5t80 -17v-538z" />
    <glyph glyph-name="germandbls" unicode="&#xdf;" horiz-adv-x="543" 
d="M505 121q0 -63 -42 -97t-106 -34q-33 0 -66 6.5t-65 23.5q3 20 8 36.5t13 32.5q24 -15 53 -23t51 -8q38 0 56.5 15t18.5 50q0 22 -12.5 39.5t-30.5 33.5t-40 32.5t-40 35.5t-30.5 42t-12.5 53q0 41 19 71.5t42.5 57t42.5 51.5t19 53q0 44 -22.5 64t-71.5 20
q-38 0 -61.5 -8.5t-36.5 -25t-17.5 -41t-4.5 -57.5v-544h-75v546q0 97 52.5 147.5t144.5 50.5q76 0 124 -34.5t48 -105.5q0 -40 -19.5 -71t-43.5 -58t-43.5 -52.5t-19.5 -55.5q0 -22 12.5 -40t31 -35.5t40.5 -34.5t40.5 -37t31 -44t12.5 -55z" />
    <glyph glyph-name="registered" unicode="&#xae;" horiz-adv-x="725" 
d="M658 338q0 -72 -22 -130t-61.5 -99.5t-93.5 -64t-119 -22.5q-64 0 -118 22t-93.5 63.5t-61.5 100t-22 130.5q0 70 22 127.5t61 99t93.5 64t118.5 22.5q62 0 116 -22t94 -62.5t63 -98.5t23 -130zM618 335q0 63 -19 115t-53 88.5t-81 56.5t-103 20q-60 0 -107.5 -20.5
t-80.5 -57t-50.5 -88t-17.5 -114.5q0 -61 18 -112t51.5 -88t81 -57.5t105.5 -20.5t105.5 19.5t81 56t51.5 88t18 114.5zM510 148q-14 -4 -30.5 -4.5t-31.5 -1.5l-29 59q-34 67 -63 94h-55v-151h-58v375q33 4 61.5 5.5t53.5 1.5q26 0 48.5 -6t39 -18.5t26.5 -33.5t10 -51
q0 -39 -21.5 -65.5t-53.5 -36.5q33 -28 62 -86zM422 413q0 34 -18 49.5t-50 15.5q-12 0 -27 -1t-26 -2v-132h46q35 0 55 17t20 53z" />
    <glyph glyph-name="Eth" unicode="&#xd0;" horiz-adv-x="685" 
d="M621 351q0 -90 -22 -157.5t-61 -112.5t-93 -67.5t-118 -22.5q-23 0 -51 1t-57.5 2.5t-59 4t-56.5 6.5v314h-60v71h60v277q21 3 50.5 5.5t60 4.5t60.5 3t52 1q63 0 117 -18.5t93.5 -58.5t62 -102.5t22.5 -150.5zM530 342q0 81 -18 132.5t-47.5 81t-66.5 40.5t-75 11
t-70 -1.5t-66 -4.5v-211h120q0 -16 -2.5 -34t-6.5 -37h-111v-247q14 -1 31.5 -2.5t35.5 -2.5t35.5 -1.5t32.5 -0.5q103 0 155.5 68.5t52.5 208.5z" />
    <glyph glyph-name="eth" unicode="&#xf0;" horiz-adv-x="549" 
d="M494 370q0 -193 -52 -286.5t-166 -93.5q-52 0 -92.5 14t-69 45.5t-43.5 81t-15 119.5q0 135 63.5 204t168.5 69q26 0 58 -4.5t60 -12.5q-5 46 -16.5 77.5t-30.5 51t-46 29t-63 10.5l-46 -100q-14 1 -27 2.5t-25 6.5l40 89q-26 -3 -51 -9t-42 -14q0 20 1.5 39.5t3.5 31.5
q26 11 59.5 16.5t60.5 7.5l32 71q11 0 26 -3t26 -9l-28 -61q48 -4 87.5 -23t67.5 -61t43.5 -112t15.5 -176zM414 337q0 26 -1 51.5t-3 47.5q-24 9 -56 14t-61 5q-33 0 -61.5 -10t-49 -33.5t-32 -61t-11.5 -93.5t8 -94t24.5 -61t42 -33t61.5 -10t62 12t43 43.5t25.5 85
t8.5 137.5z" />
    </font>
</defs>
</svg>
